<?xml version="1.0" standalone="no"?>
<!DOCTYPE svg PUBLIC "-//W3C//DTD SVG 20010904//EN"
 "http://www.w3.org/TR/2001/REC-SVG-20010904/DTD/svg10.dtd">
<svg version="1.0" xmlns="http://www.w3.org/2000/svg"
 width="609.000000pt" height="609.000000pt" viewBox="0 0 609.000000 609.000000"
 preserveAspectRatio="xMidYMid meet">
<metadata>
Created by potrace 1.11, written by Peter Selinger 2001-2013
</metadata>
<g transform="translate(0.000000,609.000000) scale(0.100000,-0.100000)"
fill="#000000" stroke="none">
<path d="M2035 5693 c-125 -147 -228 -271 -228 -277 0 -6 125 -181 278 -389
239 -325 281 -378 299 -373 12 3 31 6 43 6 19 0 36 26 108 170 47 93 85 175
85 182 0 6 -8 20 -17 31 -27 29 -24 99 4 129 l23 24 -176 375 c-96 206 -179
377 -183 381 -4 5 -110 -112 -236 -259z"/>
<path d="M3638 5579 l-178 -380 22 -30 c28 -37 28 -90 1 -126 l-20 -28 89
-180 90 -180 44 -2 44 -1 273 371 c151 205 277 377 281 384 4 8 -81 115 -225
283 -128 148 -235 270 -238 270 -3 -1 -86 -172 -183 -381z"/>
<path d="M2335 5918 c20 -48 319 -681 328 -695 5 -7 20 -13 35 -13 25 0 35 15
129 202 57 111 99 205 95 209 -8 8 -591 329 -597 329 -2 0 2 -15 10 -32z"/>
<path d="M3680 5906 c-41 -23 -175 -98 -297 -165 l-222 -122 102 -204 c101
-203 102 -204 132 -201 29 3 35 13 162 282 184 390 213 454 205 453 -4 0 -41
-19 -82 -43z"/>
<path d="M2846 5363 l-83 -168 20 -28 c27 -36 27 -89 -1 -126 l-22 -30 81
-173 c44 -95 85 -177 90 -183 5 -5 9 162 9 433 0 243 -2 442 -5 442 -3 0 -43
-75 -89 -167z"/>
<path d="M3150 5142 l0 -389 -94 -198 c-51 -110 -98 -201 -104 -203 -7 -2 -12
23 -14 74 l-3 77 -54 -47 c-54 -45 -75 -54 -85 -37 -4 6 90 97 133 128 2 2
-42 102 -99 222 -98 210 -104 219 -134 224 -17 2 -32 4 -32 3 -1 0 -42 -82
-92 -181 l-90 -179 19 -24 c18 -23 26 -62 14 -62 -4 0 -20 7 -36 16 -52 27
-80 16 -112 -44 -21 -38 -32 -50 -40 -43 -8 6 -172 -51 -515 -181 -455 -173
-503 -193 -500 -212 3 -18 53 -40 321 -140 l318 -119 29 28 c21 20 40 28 69
29 l40 1 73 157 c39 87 76 158 80 158 24 0 16 -40 -22 -123 -83 -178 -99 -218
-87 -211 6 4 55 45 108 91 67 58 102 81 113 77 9 -4 16 -10 14 -14 -2 -4 -51
-48 -109 -98 l-106 -91 6 -42 6 -42 113 -41 c102 -36 128 -55 103 -70 -5 -3
-57 12 -115 34 -58 22 -110 40 -114 40 -4 0 -18 -9 -31 -19 l-23 -18 56 -206
c47 -169 55 -210 46 -228 -7 -11 -13 -19 -15 -17 -2 1 -26 89 -55 193 -66 246
-69 255 -84 255 -7 0 -18 -10 -23 -22 -6 -13 -93 -201 -192 -418 -138 -298
-198 -419 -248 -492 -37 -54 -70 -98 -75 -98 -10 0 -38 54 -38 74 0 10 -47 30
-157 65 -87 27 -239 75 -339 106 l-181 58 -26 -27 c-18 -18 -37 -26 -60 -26
-19 0 -39 -6 -44 -12 -15 -20 -356 -759 -352 -762 2 -2 247 77 544 174 454
148 541 174 546 161 4 -9 1 -18 -5 -21 -6 -2 -252 -84 -546 -180 -294 -97
-535 -181 -535 -187 0 -8 291 -381 575 -735 14 -18 34 21 270 535 219 477 257
554 271 546 15 -8 -16 -80 -232 -551 -137 -298 -248 -545 -247 -548 2 -3 204
55 450 130 341 103 448 139 448 151 0 8 6 23 13 33 12 16 19 14 110 -26 73
-32 95 -47 91 -58 -4 -8 -7 -20 -8 -25 -1 -11 846 -966 852 -960 2 2 -51 204
-118 449 -111 408 -127 486 -101 486 4 0 58 -188 120 -417 63 -230 118 -425
122 -433 5 -8 9 231 9 531 l0 547 103 -28 102 -27 5 -519 c4 -394 8 -511 16
-484 6 19 69 248 140 509 118 434 140 498 161 477 4 -3 -60 -249 -142 -546
-81 -298 -146 -543 -144 -545 9 -9 854 949 851 964 -17 76 -15 90 21 126 19
19 42 35 50 35 18 0 20 27 42 435 8 154 17 306 20 337 4 55 3 58 -24 74 -38
23 -56 56 -54 105 2 36 -2 42 -58 85 -54 41 -67 64 -37 64 6 0 35 -18 65 -40
52 -40 54 -40 82 -25 53 27 107 16 143 -28 15 -20 18 -20 64 -6 44 14 49 18
56 54 5 22 18 49 29 61 l20 21 -86 185 c-86 186 -91 203 -77 226 6 8 42 -60
103 -193 94 -205 94 -205 126 -205 22 0 44 -10 68 -31 l36 -32 332 105 332
105 6 36 c3 21 14 45 23 56 16 18 8 38 -187 457 l-204 439 -48 6 c-34 4 -54
12 -70 31 l-22 25 -312 -116 -313 -116 -13 -38 c-7 -21 -16 -41 -19 -45 -4 -3
-23 11 -44 30 -31 31 -84 71 -237 182 -14 10 -17 18 -10 25 7 7 28 -6 68 -41
32 -28 59 -49 61 -47 2 2 -14 44 -36 92 -30 67 -38 95 -33 115 7 24 13 16 57
-78 l49 -105 40 -1 c29 -1 48 -9 69 -29 l29 -28 318 119 c268 100 318 122 321
140 3 19 -34 35 -374 164 -207 78 -446 176 -532 216 -87 41 -169 74 -184 74
-27 0 -68 -40 -68 -66 0 -21 -17 -17 -34 8 -23 32 -20 100 5 132 l20 26 -91
178 c-90 176 -92 179 -123 178 -29 -1 -33 -6 -86 -118 -51 -108 -71 -133 -85
-109 -3 5 19 61 49 125 l55 117 -22 29 c-28 38 -28 91 -1 127 l20 28 -83 168
c-46 92 -86 167 -89 167 -3 0 -5 -175 -5 -388z m203 -682 c55 -26 67 -36 62
-51 -3 -10 -44 -98 -90 -196 l-84 -178 82 -38 c45 -21 90 -39 101 -40 14 -2
35 34 103 178 46 99 88 184 92 188 6 6 212 -79 240 -100 2 -1 -35 -87 -84
-190 -48 -104 -89 -193 -92 -200 -2 -6 35 -37 84 -69 123 -80 250 -210 293
-297 28 -57 34 -83 38 -153 5 -98 -6 -152 -54 -251 -62 -130 -163 -209 -298
-235 l-65 -12 65 -67 c174 -181 179 -396 13 -641 -121 -178 -292 -261 -502
-243 -95 8 -244 43 -357 84 -46 17 -85 30 -86 28 -2 -2 -45 -91 -95 -198 -50
-107 -92 -195 -94 -197 -1 -2 -57 23 -123 55 l-120 58 93 198 94 198 -96 45
c-53 24 -98 42 -101 39 -3 -3 -45 -89 -93 -192 -49 -103 -92 -189 -97 -191
-14 -4 -232 99 -232 110 0 5 41 97 91 205 50 107 89 196 87 197 -6 5 -351 167
-420 198 l-68 31 87 126 c47 69 89 129 93 134 3 4 49 -13 102 -38 110 -52 154
-57 188 -22 13 13 139 271 281 573 199 424 258 558 258 589 1 70 -25 98 -153
161 l-114 56 53 113 c29 62 57 120 61 128 7 12 52 -5 253 -100 134 -63 244
-113 246 -111 1 2 44 92 95 200 l92 197 52 -23 c28 -13 82 -38 119 -56z m131
-193 c7 -11 7 -20 1 -26 -15 -14 -49 14 -41 34 7 19 25 16 40 -8z m-1554
-2104 c0 -10 -4 -24 -9 -32 -6 -9 -10 -4 -13 18 -3 21 0 31 9 31 7 0 13 -8 13
-17z"/>
<path d="M3076 3668 c-18 -40 -68 -146 -110 -235 -42 -90 -76 -167 -76 -171 0
-13 167 -88 275 -124 118 -40 238 -44 301 -11 48 25 88 70 109 120 19 45 19
134 1 178 -21 49 -89 119 -167 171 -64 42 -268 144 -290 144 -5 0 -25 -33 -43
-72z"/>
<path d="M2746 2963 c-57 -114 -227 -485 -224 -489 15 -15 237 -111 321 -139
254 -85 407 -58 480 85 33 66 36 144 7 208 -26 57 -109 143 -192 198 -56 38
-345 184 -362 184 -3 0 -16 -21 -30 -47z"/>
<path d="M1395 5199 c-198 -105 -378 -199 -400 -211 -36 -19 -38 -22 -20 -29
16 -7 575 -160 1247 -341 73 -20 108 -20 108 1 0 13 -554 764 -566 767 -5 1
-171 -83 -369 -187z"/>
<path d="M4252 5298 c-456 -618 -494 -672 -484 -687 6 -9 14 -15 19 -15 31 6
1353 368 1350 370 -6 6 -806 424 -812 424 -2 0 -36 -42 -73 -92z"/>
<path d="M627 4637 c-152 -166 -274 -303 -273 -304 2 -2 219 21 482 52 263 30
699 80 969 110 269 31 491 58 494 60 2 3 2 5 -1 5 -5 0 -679 182 -1364 369
-31 9 -33 7 -307 -292z"/>
<path d="M4590 4776 c-818 -223 -801 -218 -797 -222 4 -4 1939 -225 1943 -221
2 2 -503 559 -539 593 -9 9 -159 -28 -607 -150z"/>
<path d="M1940 4474 c-157 -19 -584 -68 -950 -110 -366 -41 -666 -76 -667 -77
-2 -3 109 -461 113 -466 2 -2 150 51 328 119 324 123 324 123 330 155 12 60
87 106 142 85 16 -6 36 -18 44 -25 14 -13 32 -8 141 34 68 26 277 106 464 176
298 113 385 148 350 144 -6 -1 -138 -17 -295 -35z"/>
<path d="M3853 4504 c4 -5 218 -88 475 -186 413 -157 468 -176 482 -163 9 8
30 19 46 25 56 20 128 -25 140 -86 l6 -32 319 -121 c175 -67 323 -121 328
-121 9 0 125 459 118 467 -3 3 -432 52 -1497 173 -195 22 -371 42 -390 46 -19
3 -31 2 -27 -2z"/>
<path d="M765 3901 l-330 -126 -193 -278 c-106 -154 -192 -280 -190 -282 2 -1
122 -39 267 -85 168 -53 269 -80 276 -74 51 38 71 48 99 47 l31 -1 203 437
c111 240 202 441 202 447 0 6 -8 18 -17 26 -16 14 -48 4 -348 -111z"/>
<path d="M1284 4002 c-15 -19 -34 -27 -69 -31 l-48 -6 -204 -439 c-195 -419
-203 -439 -187 -457 9 -11 20 -36 23 -56 l6 -37 333 -104 333 -105 28 27 c18
17 44 30 68 33 l40 5 186 407 c102 223 189 414 193 424 4 11 0 25 -11 37 -9
10 -23 36 -30 57 l-13 37 -243 91 c-134 50 -275 103 -314 117 l-70 25 -21 -25z"/>
<path d="M4976 4011 c-9 -9 -16 -22 -16 -27 0 -5 91 -205 202 -445 l203 -437
31 1 c28 1 48 -9 99 -47 7 -5 109 22 276 74 145 45 266 84 267 85 4 4 -353
523 -377 547 -9 10 -160 72 -336 139 -176 66 -323 123 -326 125 -4 2 -14 -5
-23 -15z"/>
<path d="M88 3119 c16 -30 71 -130 122 -224 l93 -170 -6 -274 c-4 -151 -5
-272 -3 -270 2 2 79 166 170 363 l167 359 -20 21 c-12 12 -24 36 -27 54 -5 26
-13 33 -53 46 -47 15 -421 132 -455 143 -16 4 -15 -2 12 -48z"/>
<path d="M5920 3140 c-47 -16 -158 -52 -246 -80 -159 -50 -162 -51 -168 -82
-3 -18 -15 -42 -27 -54 l-20 -21 166 -359 c92 -198 169 -361 171 -364 3 -2 2
119 -1 270 l-7 275 74 135 c154 279 169 310 156 309 -7 0 -51 -13 -98 -29z"/>
<path d="M5065 2869 c-121 -38 -270 -85 -331 -104 -107 -34 -112 -37 -118 -67
-3 -17 -14 -40 -22 -50 -15 -16 -14 -23 16 -91 l34 -74 565 -185 c311 -102
568 -184 570 -182 2 2 -77 175 -175 386 -113 242 -185 383 -194 384 -8 1 -25
2 -37 3 -12 0 -35 12 -51 26 -17 14 -31 25 -33 25 -2 -1 -103 -32 -224 -71z"/>
<path d="M4353 2644 c-42 -15 -63 -41 -40 -49 69 -26 277 -92 277 -89 0 3 -10
28 -21 55 -19 44 -25 49 -54 49 -18 0 -49 11 -69 25 -42 29 -38 28 -93 9z"/>
<path d="M4265 2539 c-10 -11 -30 -22 -42 -25 -19 -5 -23 -13 -23 -43 0 -20
-9 -203 -21 -408 l-21 -372 41 -39 c23 -21 41 -47 41 -58 0 -16 61 -37 445
-153 245 -74 447 -132 450 -129 5 5 -508 1125 -521 1138 -9 7 -314 111 -324
109 -3 0 -14 -9 -25 -20z"/>
<path d="M4683 2398 c21 -48 486 -1059 496 -1075 5 -10 98 100 305 361 164
206 296 378 294 383 -3 7 -1022 345 -1081 359 l-28 6 14 -34z"/>
<path d="M1388 1397 c-241 -73 -437 -135 -435 -138 1 -4 238 -252 527 -553
l525 -546 2 53 c2 28 -12 320 -31 647 -31 551 -34 595 -52 605 -10 5 -30 22
-45 38 -15 15 -33 27 -41 26 -7 0 -210 -60 -450 -132z"/>
<path d="M4216 1505 c-9 -14 -27 -27 -41 -31 -18 -4 -26 -14 -29 -38 -3 -17
-19 -299 -36 -626 -17 -327 -32 -607 -34 -623 -1 -15 0 -27 4 -27 6 0 1053
1087 1058 1099 2 6 -872 272 -894 271 -7 0 -19 -11 -28 -25z"/>
<path d="M1996 1473 c-16 -4 -18 -12 -13 -71 4 -37 20 -332 37 -657 18 -324
33 -596 36 -603 2 -8 48 10 143 57 93 47 232 103 427 171 158 55 289 102 291
104 5 5 -889 1006 -896 1005 -3 -1 -14 -3 -25 -6z"/>
<path d="M3629 993 c-239 -267 -439 -494 -446 -503 -11 -16 14 -27 270 -115
195 -68 327 -121 430 -172 100 -50 149 -69 151 -61 2 7 20 306 39 663 33 599
34 651 19 663 -8 6 -19 12 -22 12 -4 0 -202 -219 -441 -487z"/>
<path d="M914 1048 c-5 -95 -9 -185 -9 -200 0 -25 36 -53 380 -292 327 -228
399 -274 513 -327 73 -33 135 -60 137 -58 4 5 -992 1043 -1004 1047 -5 2 -13
-75 -17 -170z"/>
<path d="M4653 698 c-276 -288 -498 -524 -494 -526 4 -1 64 24 135 57 108 50
188 101 513 328 l385 267 -6 56 c-3 30 -8 119 -12 198 -4 78 -10 142 -13 142
-3 0 -232 -235 -508 -522z"/>
</g>
</svg>
