<?xml version="1.0" encoding="UTF-8" standalone="no"?><!-- Generator: Gravit.io --><svg xmlns="http://www.w3.org/2000/svg" xmlns:xlink="http://www.w3.org/1999/xlink" style="isolation:isolate" viewBox="0 0 470 180" width="470pt" height="180pt"><g><g><path d=" M 33.3 63.535 Q 27.903 68.342 19.308 68.342 L 1.159 68.342 C 0.846 68.34 0.549 68.206 0.34 67.972 C 0.128 67.768 0.005 67.487 0 67.193 L 0 2.132 C -0.005 1.824 0.118 1.527 0.34 1.313 C 0.561 1.106 0.857 0.998 1.159 1.013 L 17.23 1.013 Q 26.854 1.013 32.29 5.63 Q 37.727 10.247 37.727 19.402 Q 37.727 28.926 31.181 33.253 C 30.921 33.453 30.891 33.643 31.091 33.833 Q 38.697 39.23 38.687 49.823 Q 38.687 58.728 33.3 63.535 Z  M 13.572 13.106 L 13.572 28.217 C 13.551 28.349 13.595 28.484 13.69 28.578 C 13.785 28.673 13.919 28.717 14.052 28.696 L 17.52 28.696 C 19.442 28.803 21.312 28.044 22.616 26.627 C 23.925 24.978 24.577 22.903 24.445 20.801 C 24.589 18.632 23.958 16.483 22.666 14.735 C 21.366 13.279 19.468 12.501 17.52 12.626 L 14.052 12.626 C 13.919 12.605 13.785 12.649 13.69 12.744 C 13.595 12.839 13.551 12.973 13.572 13.106 Z  M 23.296 54.291 C 24.618 52.378 25.259 50.076 25.115 47.755 C 25.243 45.363 24.605 42.994 23.296 40.989 C 22.181 39.382 20.334 38.444 18.379 38.49 L 14.052 38.49 C 13.919 38.469 13.785 38.513 13.69 38.608 C 13.595 38.703 13.551 38.837 13.572 38.97 L 13.572 56.12 C 13.551 56.252 13.595 56.386 13.69 56.481 C 13.785 56.576 13.919 56.62 14.052 56.599 L 18.289 56.599 C 20.232 56.678 22.094 55.819 23.296 54.291 Z " fill="rgb(1,1,1)"/><path d=" M 55.197 67.972 C 54.974 67.758 54.851 67.461 54.857 67.153 L 54.857 2.132 C 54.851 1.824 54.974 1.527 55.197 1.313 C 55.418 1.106 55.714 0.998 56.016 1.013 L 67.269 1.013 C 67.577 1.01 67.873 1.133 68.089 1.353 C 68.311 1.567 68.434 1.864 68.428 2.172 L 68.428 67.233 C 68.434 67.541 68.311 67.838 68.089 68.052 C 67.872 68.27 67.576 68.389 67.269 68.382 L 56.016 68.382 C 55.697 68.37 55.398 68.221 55.197 67.972 Z " fill="rgb(1,1,1)"/><path d=" M 124.774 1.313 C 124.996 1.527 125.12 1.824 125.114 2.132 L 125.114 11.467 C 125.114 11.779 124.988 12.079 124.764 12.297 C 124.54 12.516 124.237 12.634 123.925 12.626 L 111.932 12.626 C 111.799 12.605 111.665 12.649 111.57 12.744 C 111.475 12.839 111.431 12.973 111.452 13.106 L 111.452 67.193 C 111.455 67.5 111.333 67.796 111.115 68.012 C 110.897 68.228 110.6 68.347 110.293 68.342 L 99.03 68.342 C 98.723 68.348 98.428 68.228 98.211 68.011 C 97.994 67.795 97.875 67.499 97.88 67.193 L 97.88 13.106 C 97.901 12.973 97.857 12.839 97.763 12.744 C 97.668 12.649 97.533 12.605 97.401 12.626 L 85.848 12.626 C 85.54 12.627 85.245 12.505 85.028 12.286 C 84.806 12.072 84.683 11.775 84.689 11.467 L 84.689 2.132 C 84.683 1.824 84.806 1.527 85.028 1.313 C 85.251 1.109 85.546 1.001 85.848 1.013 L 123.925 1.013 C 124.237 0.988 124.546 1.097 124.774 1.313 Z " fill="rgb(1,1,1)"/><path d=" M 143.733 63.975 Q 138.486 58.828 138.496 50.163 L 138.496 19.002 Q 138.496 10.447 143.733 5.34 Q 148.969 0.234 157.644 0.204 Q 166.399 0.204 171.636 5.31 Q 176.872 10.417 176.892 19.002 L 176.892 20.002 C 176.898 20.31 176.775 20.607 176.553 20.821 C 176.341 21.047 176.042 21.17 175.733 21.161 L 164.48 21.641 C 163.71 21.641 163.321 21.291 163.321 20.581 L 163.321 18.103 C 163.397 16.457 162.847 14.842 161.782 13.585 C 160.732 12.417 159.214 11.779 157.644 11.847 C 156.103 11.792 154.618 12.43 153.597 13.585 C 152.535 14.845 151.986 16.457 152.057 18.103 L 152.057 51.312 C 151.982 52.946 152.532 54.548 153.597 55.79 C 154.635 56.914 156.114 57.528 157.644 57.469 C 159.202 57.539 160.713 56.926 161.782 55.79 C 162.85 54.55 163.401 52.947 163.321 51.312 L 163.321 48.714 C 163.321 48.074 163.84 47.555 164.48 47.555 L 175.733 48.034 C 176.04 48.034 176.335 48.157 176.553 48.374 C 176.77 48.591 176.892 48.886 176.892 49.194 L 176.892 50.193 Q 176.892 58.858 171.596 64.005 Q 166.299 69.152 157.604 69.152 Q 148.979 69.112 143.733 63.975 Z " fill="rgb(1,1,1)"/><path d=" M 198.069 63.915 Q 192.763 58.728 192.773 50.063 L 192.773 19.262 Q 192.773 10.597 198.069 5.4 Q 203.366 0.204 212.211 0.204 Q 221.065 0.204 226.412 5.4 Q 231.759 10.597 231.749 19.262 L 231.749 50.063 Q 231.749 58.718 226.412 63.915 Q 221.075 69.112 212.211 69.112 Q 203.356 69.112 198.069 63.915 Z  M 216.548 55.59 C 217.696 54.186 218.277 52.403 218.177 50.593 L 218.177 18.612 C 218.275 16.802 217.694 15.02 216.548 13.615 C 215.459 12.368 213.866 11.677 212.211 11.737 C 210.571 11.669 208.993 12.363 207.933 13.615 C 206.813 15.032 206.248 16.809 206.344 18.612 L 206.344 50.593 C 206.246 52.397 206.811 54.174 207.933 55.59 C 208.99 56.846 210.571 57.541 212.211 57.469 C 213.867 57.534 215.463 56.842 216.548 55.59 Z " fill="rgb(1,1,1)"/><path d=" M 249.218 67.972 C 248.996 67.758 248.873 67.461 248.878 67.153 L 248.878 2.132 C 248.873 1.824 248.996 1.527 249.218 1.313 C 249.434 1.093 249.73 0.97 250.038 0.973 L 261.301 0.973 C 261.606 0.97 261.899 1.093 262.11 1.313 C 262.333 1.527 262.456 1.824 262.45 2.132 L 262.45 67.193 C 262.453 67.498 262.333 67.792 262.116 68.008 C 261.9 68.225 261.606 68.345 261.301 68.342 L 250.038 68.342 C 249.725 68.339 249.428 68.205 249.218 67.972 Z " fill="rgb(1,1,1)"/><path d=" M 308.502 1.313 C 308.719 1.095 309.014 0.972 309.322 0.973 L 320.485 0.973 C 320.792 0.973 321.087 1.095 321.304 1.313 C 321.522 1.53 321.644 1.825 321.644 2.132 L 321.644 67.193 C 321.647 67.5 321.525 67.796 321.307 68.012 C 321.089 68.228 320.792 68.347 320.485 68.342 L 307.812 68.342 C 307.204 68.371 306.668 67.943 306.563 67.343 L 294.601 30.135 C 294.531 29.945 294.421 29.866 294.261 29.896 C 294.101 29.925 294.021 30.045 294.021 30.235 L 294.111 67.213 C 294.116 67.519 293.997 67.815 293.78 68.031 C 293.563 68.248 293.268 68.368 292.962 68.362 L 281.828 68.362 C 281.521 68.369 281.225 68.25 281.009 68.032 C 280.786 67.818 280.663 67.521 280.669 67.213 L 280.669 2.132 C 280.663 1.824 280.786 1.527 281.009 1.313 C 281.231 1.107 281.526 0.999 281.828 1.013 L 294.431 1.013 C 295.039 0.984 295.575 1.412 295.68 2.013 L 307.673 39.25 C 307.742 39.45 307.852 39.53 308.012 39.5 C 308.168 39.465 308.271 39.318 308.252 39.16 L 308.152 2.182 C 308.135 1.855 308.263 1.537 308.502 1.313 Z " fill="rgb(1,1,1)"/><path d=" M 377.17 1.013 L 382.367 1.013 C 382.644 0.963 382.929 1.052 383.129 1.251 C 383.328 1.45 383.417 1.735 383.366 2.013 L 383.366 67.383 C 383.422 67.661 383.335 67.949 383.134 68.15 C 382.933 68.35 382.645 68.438 382.367 68.382 L 377.46 68.382 C 377.182 68.438 376.894 68.35 376.693 68.15 C 376.492 67.949 376.405 67.661 376.461 67.383 L 376.461 9.058 C 376.465 8.942 376.408 8.832 376.311 8.768 C 376.209 8.707 376.082 8.707 375.981 8.768 L 366.926 11.767 L 366.637 11.857 C 366.187 11.857 365.907 11.577 365.777 10.997 L 365.297 7.439 L 365.297 7.239 C 365.297 6.92 365.517 6.6 365.967 6.24 L 375.881 1.243 C 376.286 1.064 376.728 0.986 377.17 1.013 L 377.17 1.013 Z " fill="rgb(1,1,1)"/><path d=" M 408.111 64.544 Q 403.644 59.777 403.634 52.082 L 403.634 17.243 Q 403.634 9.538 408.111 4.781 C 411.174 1.57 415.471 -0.167 419.904 0.014 C 424.38 -0.173 428.722 1.561 431.837 4.781 Q 436.364 9.538 436.364 17.243 L 436.364 52.082 Q 436.364 59.787 431.837 64.544 C 428.722 67.764 424.38 69.499 419.904 69.311 C 415.471 69.492 411.174 67.755 408.111 64.544 L 408.111 64.544 Z  M 426.93 60.357 C 428.741 58.136 429.667 55.324 429.528 52.462 L 429.528 16.853 C 429.655 14.008 428.73 11.215 426.93 9.008 C 425.169 7.005 422.599 5.904 419.934 6.01 C 417.319 5.921 414.804 7.024 413.098 9.008 C 411.288 11.226 410.363 14.034 410.5 16.893 L 410.5 52.462 C 410.361 55.324 411.287 58.136 413.098 60.357 C 414.804 62.342 417.319 63.445 419.934 63.355 C 422.599 63.461 425.169 62.36 426.93 60.357 Z " fill="rgb(1,1,1)"/><path d=" M 463.787 1.013 L 468.984 1.013 C 469.262 0.963 469.546 1.052 469.746 1.251 C 469.945 1.45 470.034 1.735 469.984 2.013 L 469.984 67.383 C 470.039 67.661 469.952 67.949 469.751 68.15 C 469.55 68.35 469.263 68.438 468.984 68.382 L 464.077 68.382 C 463.799 68.438 463.511 68.35 463.31 68.15 C 463.109 67.949 463.022 67.661 463.078 67.383 L 463.078 9.058 C 463.082 8.942 463.025 8.832 462.928 8.768 C 462.826 8.707 462.699 8.707 462.598 8.768 L 453.544 11.767 L 453.254 11.857 C 452.804 11.857 452.514 11.577 452.394 10.997 L 451.915 7.439 L 451.915 7.239 C 451.915 6.92 452.134 6.6 452.584 6.24 L 462.498 1.243 C 462.903 1.064 463.345 0.986 463.787 1.013 Z " fill="rgb(1,1,1)"/><path d=" M 4.847 89.649 L 4.457 87.73 L 4.398 87.73 L 1.569 87.73 L 1.519 87.73 C 1.519 87.73 1.519 87.73 1.519 87.73 L 1.129 89.649 C 1.127 89.691 1.107 89.73 1.075 89.756 C 1.043 89.783 1.001 89.795 0.96 89.789 L 0.14 89.789 C 0.09 89.789 0.05 89.789 0.03 89.789 C 0.009 89.752 0.009 89.706 0.03 89.669 L 2.329 79.066 C 2.356 78.997 2.426 78.956 2.499 78.966 L 3.438 78.966 C 3.479 78.96 3.521 78.972 3.554 78.998 C 3.586 79.025 3.606 79.064 3.608 79.105 L 5.997 89.619 L 5.997 89.619 C 6 89.657 5.986 89.694 5.959 89.721 C 5.932 89.748 5.895 89.762 5.857 89.759 L 4.997 89.759 C 4.929 89.758 4.869 89.714 4.847 89.649 Z  M 1.739 86.761 L 4.198 86.761 C 4.198 86.761 4.198 86.761 4.198 86.701 L 2.998 80.605 C 2.998 80.605 2.998 80.605 2.998 80.605 C 2.998 80.605 2.998 80.605 2.998 80.605 L 1.699 86.701 C 1.699 86.701 1.709 86.761 1.739 86.761 Z " fill="rgb(1,1,1)"/><path d=" M 17.989 78.966 L 18.769 78.966 C 18.811 78.959 18.854 78.973 18.885 79.002 C 18.916 79.031 18.932 79.073 18.929 79.115 L 18.929 89.639 C 18.932 89.682 18.916 89.723 18.885 89.753 C 18.854 89.782 18.811 89.795 18.769 89.789 L 17.849 89.789 C 17.772 89.792 17.702 89.743 17.679 89.669 L 14.681 81.674 C 14.681 81.674 14.681 81.624 14.631 81.674 C 14.631 81.674 14.631 81.674 14.631 81.674 L 14.631 89.669 C 14.638 89.711 14.625 89.753 14.595 89.783 C 14.565 89.813 14.523 89.826 14.481 89.819 L 13.692 89.819 C 13.582 89.819 13.532 89.819 13.532 89.669 L 13.532 79.076 C 13.532 78.976 13.582 78.926 13.692 78.926 L 14.591 78.926 C 14.669 78.922 14.738 78.972 14.761 79.046 L 17.759 87.041 C 17.775 87.05 17.794 87.05 17.809 87.041 C 17.82 87.022 17.82 86.999 17.809 86.981 L 17.809 78.986 C 17.854 78.931 17.934 78.923 17.989 78.966 Z " fill="rgb(1,1,1)"/><path d=" M 27.354 89.639 L 27.354 79.076 C 27.346 79.034 27.36 78.992 27.39 78.962 C 27.419 78.932 27.462 78.919 27.503 78.926 L 29.902 78.926 C 30.621 78.896 31.318 79.18 31.811 79.705 C 32.304 80.294 32.557 81.047 32.52 81.814 L 32.52 86.901 C 32.557 87.668 32.304 88.421 31.811 89.009 C 31.318 89.534 30.621 89.819 29.902 89.789 L 27.503 89.789 C 27.462 89.796 27.419 89.783 27.39 89.753 C 27.36 89.723 27.346 89.681 27.354 89.639 Z  M 28.513 88.83 L 29.882 88.83 C 30.313 88.845 30.725 88.647 30.981 88.3 C 31.272 87.885 31.419 87.387 31.401 86.881 L 31.401 81.884 C 31.433 81.37 31.292 80.86 31.001 80.435 C 30.737 80.086 30.319 79.888 29.882 79.905 L 28.513 79.905 C 28.496 79.901 28.478 79.906 28.466 79.918 C 28.454 79.931 28.449 79.948 28.453 79.965 L 28.453 88.79 C 28.455 88.803 28.463 88.815 28.474 88.822 C 28.486 88.83 28.5 88.832 28.513 88.83 Z " fill="rgb(1,1,1)"/><path d=" M 54.657 89.009 C 54.125 89.531 53.403 89.813 52.658 89.789 L 50.25 89.789 C 50.14 89.789 50.09 89.789 50.09 89.639 L 50.09 79.076 C 50.09 78.976 50.14 78.926 50.25 78.926 L 52.478 78.926 C 53.248 78.884 54.003 79.15 54.577 79.665 C 55.113 80.227 55.389 80.989 55.336 81.764 C 55.435 82.746 54.924 83.689 54.047 84.142 L 54.047 84.142 C 54.047 84.142 54.047 84.142 54.047 84.142 C 54.966 84.691 55.493 85.714 55.406 86.781 C 55.479 87.596 55.207 88.404 54.657 89.009 Z  M 51.189 79.965 L 51.189 83.713 C 51.189 83.713 51.189 83.773 51.259 83.773 L 52.478 83.773 C 52.966 83.8 53.442 83.618 53.787 83.273 C 54.116 82.888 54.281 82.389 54.247 81.884 C 54.282 81.357 54.118 80.836 53.787 80.425 C 53.447 80.069 52.969 79.879 52.478 79.905 L 51.259 79.905 C 51.259 79.905 51.189 79.905 51.189 79.965 Z  M 53.827 88.28 C 54.167 87.842 54.334 87.294 54.297 86.741 C 54.337 86.178 54.17 85.62 53.827 85.172 C 53.513 84.794 53.039 84.587 52.548 84.612 L 51.259 84.612 C 51.259 84.612 51.189 84.612 51.189 84.672 L 51.189 88.77 C 51.189 88.77 51.189 88.83 51.259 88.83 L 52.548 88.83 C 53.04 88.849 53.513 88.639 53.827 88.26 L 53.827 88.28 Z " fill="rgb(1,1,1)"/><path d=" M 67.959 79.885 L 64.321 79.885 C 64.304 79.881 64.287 79.886 64.274 79.898 C 64.262 79.911 64.257 79.928 64.261 79.945 L 64.261 83.803 C 64.257 83.819 64.262 83.837 64.274 83.849 C 64.287 83.861 64.304 83.866 64.321 83.863 L 66.59 83.863 C 66.632 83.856 66.675 83.87 66.706 83.899 C 66.737 83.928 66.753 83.97 66.749 84.012 L 66.749 84.682 C 66.756 84.726 66.742 84.771 66.71 84.803 C 66.679 84.834 66.634 84.849 66.59 84.842 L 64.321 84.842 C 64.304 84.838 64.287 84.843 64.274 84.855 C 64.262 84.868 64.257 84.885 64.261 84.902 L 64.261 88.77 C 64.257 88.786 64.262 88.804 64.274 88.816 C 64.287 88.828 64.304 88.833 64.321 88.83 L 67.959 88.83 C 68 88.822 68.043 88.836 68.072 88.866 C 68.102 88.896 68.116 88.938 68.109 88.979 L 68.109 89.639 C 68.116 89.681 68.102 89.723 68.072 89.753 C 68.043 89.783 68 89.796 67.959 89.789 L 63.312 89.789 C 63.27 89.796 63.228 89.783 63.198 89.753 C 63.168 89.723 63.155 89.681 63.162 89.639 L 63.162 79.076 C 63.155 79.034 63.168 78.992 63.198 78.962 C 63.228 78.932 63.27 78.919 63.312 78.926 L 67.959 78.926 C 68 78.919 68.043 78.932 68.072 78.962 C 68.102 78.992 68.116 79.034 68.109 79.076 L 68.109 79.735 C 68.116 79.777 68.102 79.819 68.072 79.849 C 68.043 79.879 68 79.892 67.959 79.885 Z " fill="rgb(1,1,1)"/><path d=" M 77.653 89.619 L 77.653 84.962 C 77.653 84.962 77.653 84.892 77.653 84.882 L 75.494 79.095 L 75.494 79.026 C 75.494 78.946 75.494 78.906 75.634 78.906 L 76.474 78.906 C 76.557 78.896 76.636 78.946 76.663 79.026 L 78.183 83.573 C 78.183 83.573 78.183 83.573 78.183 83.573 L 79.712 79.026 C 79.734 78.985 79.773 78.955 79.819 78.944 C 79.864 78.932 79.912 78.94 79.951 78.966 L 80.791 78.966 C 80.841 78.939 80.901 78.939 80.951 78.966 C 80.976 79.009 80.976 79.062 80.951 79.105 L 78.812 84.892 C 78.812 84.892 78.812 84.892 78.812 84.972 L 78.812 89.609 C 78.815 89.652 78.799 89.695 78.769 89.725 C 78.738 89.756 78.695 89.772 78.652 89.769 L 77.863 89.769 C 77.814 89.79 77.758 89.785 77.715 89.754 C 77.672 89.723 77.648 89.672 77.653 89.619 Z " fill="rgb(1,1,1)"/><path d=" M 89.116 89.169 C 88.607 88.632 88.343 87.909 88.386 87.171 L 88.386 81.514 C 88.345 80.776 88.609 80.053 89.116 79.515 C 90.225 78.531 91.894 78.531 93.003 79.515 C 93.521 80.048 93.792 80.772 93.753 81.514 L 93.753 87.201 C 93.793 87.942 93.522 88.667 93.003 89.199 C 92.475 89.724 91.748 90 91.005 89.959 C 90.294 89.965 89.611 89.68 89.116 89.169 L 89.116 89.169 Z  M 92.204 88.48 C 92.51 88.149 92.671 87.71 92.654 87.261 L 92.654 81.474 C 92.673 81.018 92.512 80.572 92.204 80.235 C 91.906 79.921 91.487 79.75 91.055 79.765 C 90.625 79.75 90.209 79.921 89.915 80.235 C 89.619 80.578 89.465 81.021 89.486 81.474 L 89.486 87.261 C 89.474 87.711 89.639 88.149 89.945 88.48 C 90.239 88.794 90.655 88.965 91.085 88.949 C 91.507 88.956 91.913 88.786 92.204 88.48 Z " fill="rgb(1,1,1)"/><path d=" M 106.435 78.966 L 107.205 78.966 C 107.315 78.966 107.365 79.016 107.365 79.115 L 107.365 89.639 C 107.365 89.739 107.315 89.789 107.205 89.789 L 106.295 89.789 C 106.217 89.796 106.145 89.745 106.125 89.669 L 103.127 81.674 C 103.127 81.674 103.127 81.624 103.127 81.674 C 103.127 81.674 103.127 81.674 103.127 81.674 L 103.127 89.669 C 103.131 89.712 103.115 89.753 103.084 89.783 C 103.052 89.812 103.01 89.825 102.967 89.819 L 102.178 89.819 C 102.136 89.825 102.093 89.812 102.062 89.783 C 102.031 89.753 102.014 89.712 102.018 89.669 L 102.018 79.076 C 102.014 79.033 102.031 78.991 102.062 78.962 C 102.093 78.933 102.136 78.919 102.178 78.926 L 103.077 78.926 C 103.155 78.922 103.225 78.972 103.247 79.046 L 106.245 87.041 C 106.256 87.022 106.256 86.999 106.245 86.981 L 106.245 78.986 C 106.275 78.966 106.325 78.966 106.435 78.966 Z " fill="rgb(1,1,1)"/><path d=" M 115.79 89.639 L 115.79 79.076 C 115.79 78.976 115.79 78.926 115.949 78.926 L 118.338 78.926 C 119.058 78.895 119.755 79.179 120.247 79.705 C 120.745 80.291 120.999 81.046 120.956 81.814 L 120.956 86.901 C 120.999 87.669 120.745 88.424 120.247 89.009 C 119.755 89.535 119.058 89.82 118.338 89.789 L 115.929 89.789 C 115.84 89.789 115.79 89.739 115.79 89.639 Z  M 116.959 88.83 L 118.318 88.83 C 118.749 88.845 119.161 88.647 119.417 88.3 C 119.711 87.886 119.862 87.388 119.847 86.881 L 119.847 81.884 C 119.876 81.369 119.732 80.858 119.437 80.435 C 119.173 80.086 118.755 79.888 118.318 79.905 L 116.929 79.905 C 116.929 79.905 116.859 79.905 116.859 79.965 L 116.859 88.79 C 116.859 88.79 116.929 88.83 116.929 88.83 L 116.959 88.83 Z " fill="rgb(1,1,1)"/></g></g><path d=" M 425.01 129.914 L 425.01 129.914 Q 425.039 131.01 425.039 133.2 L 425.039 133.2 L 425.039 133.2 Q 425.039 135.302 425.01 136.397 L 425.01 136.397 L 425.01 136.397 Q 424.95 138.38 423.87 139.608 L 423.87 139.608 L 423.87 139.608 Q 422.79 140.837 421.014 140.837 L 421.014 140.837 L 421.014 140.837 Q 419.119 140.837 418.083 139.416 L 418.083 139.416 L 418.083 139.416 Q 418.024 139.357 417.98 139.386 L 417.98 139.386 L 417.98 139.386 Q 417.935 139.416 417.935 139.475 L 417.935 139.475 L 417.935 146.046 L 417.935 146.046 Q 417.935 146.342 417.639 146.342 L 417.639 146.342 L 416.13 146.342 L 416.13 146.342 Q 415.834 146.342 415.834 146.046 L 415.834 146.046 L 415.834 125.918 L 415.834 125.918 Q 415.834 125.622 416.13 125.622 L 416.13 125.622 L 417.639 125.622 L 417.639 125.622 Q 417.935 125.622 417.935 125.918 L 417.935 125.918 L 417.935 126.777 L 417.935 126.777 Q 417.935 126.836 417.98 126.866 L 417.98 126.866 L 417.98 126.866 Q 418.024 126.895 418.083 126.836 L 418.083 126.836 L 418.083 126.836 Q 418.586 126.126 419.341 125.756 L 419.341 125.756 L 419.341 125.756 Q 420.096 125.386 421.014 125.386 L 421.014 125.386 L 421.014 125.386 Q 422.76 125.386 423.84 126.644 L 423.84 126.644 L 423.84 126.644 Q 424.921 127.902 425.01 129.914 L 425.01 129.914 L 425.01 129.914 Z  M 420.392 139.002 L 420.392 139.002 Q 421.546 139.002 422.257 138.188 L 422.257 138.188 L 422.257 138.188 Q 422.967 137.374 422.938 136.042 L 422.938 136.042 L 422.938 135.006 L 422.938 133.111 L 422.938 130.181 L 422.938 130.181 Q 422.967 128.878 422.257 128.05 L 422.257 128.05 L 422.257 128.05 Q 421.546 127.221 420.392 127.221 L 420.392 127.221 L 420.392 127.221 Q 419.326 127.221 418.631 128.035 L 418.631 128.035 L 418.631 128.035 Q 417.935 128.849 417.935 130.181 L 417.935 130.181 L 417.935 136.042 L 417.935 136.042 Q 417.935 137.374 418.631 138.188 L 418.631 138.188 L 418.631 138.188 Q 419.326 139.002 420.392 139.002 L 420.392 139.002 L 420.392 139.002 Z  M 428.443 140.6 L 428.443 140.6 Q 428.147 140.6 428.147 140.304 L 428.147 140.304 L 428.147 120.176 L 428.147 120.176 Q 428.147 119.88 428.443 119.88 L 428.443 119.88 L 429.953 119.88 L 429.953 119.88 Q 430.249 119.88 430.249 120.176 L 430.249 120.176 L 430.249 140.304 L 430.249 140.304 Q 430.249 140.6 429.953 140.6 L 429.953 140.6 L 428.443 140.6 L 428.443 140.6 Z  M 438.034 125.386 L 438.034 125.386 Q 440.106 125.386 441.334 126.732 L 441.334 126.732 L 441.334 126.732 Q 442.562 128.079 442.562 130.329 L 442.562 130.329 L 442.562 140.304 L 442.562 140.304 Q 442.562 140.6 442.266 140.6 L 442.266 140.6 L 440.757 140.6 L 440.757 140.6 Q 440.461 140.6 440.461 140.304 L 440.461 140.304 L 440.461 139.446 L 440.461 139.446 Q 440.461 139.386 440.416 139.372 L 440.416 139.372 L 440.416 139.372 Q 440.372 139.357 440.313 139.416 L 440.313 139.416 L 440.313 139.416 Q 439.218 140.837 437.057 140.837 L 437.057 140.837 L 437.057 140.837 Q 435.429 140.837 434.23 139.904 L 434.23 139.904 L 434.23 139.904 Q 433.031 138.972 433.031 136.604 L 433.031 136.604 L 433.031 136.604 Q 433.031 134.088 434.482 132.919 L 434.482 132.919 L 434.482 132.919 Q 435.932 131.75 438.3 131.75 L 438.3 131.75 L 440.342 131.75 L 440.342 131.75 Q 440.461 131.75 440.461 131.631 L 440.461 131.631 L 440.461 130.477 L 440.461 130.477 Q 440.461 128.997 439.795 128.109 L 439.795 128.109 L 439.795 128.109 Q 439.129 127.221 437.974 127.221 L 437.974 127.221 L 437.974 127.221 Q 437.086 127.221 436.435 127.813 L 436.435 127.813 L 436.435 127.813 Q 435.784 128.405 435.695 129.322 L 435.695 129.322 L 435.695 129.322 Q 435.666 129.618 435.37 129.618 L 435.37 129.618 L 433.742 129.589 L 433.742 129.589 Q 433.594 129.589 433.52 129.5 L 433.52 129.5 L 433.52 129.5 Q 433.446 129.411 433.475 129.293 L 433.475 129.293 L 433.475 129.293 Q 433.623 127.546 434.896 126.466 L 434.896 126.466 L 434.896 126.466 Q 436.169 125.386 438.034 125.386 L 438.034 125.386 L 438.034 125.386 Z  M 437.501 139.002 L 437.501 139.002 Q 438.714 139.002 439.588 138.217 L 439.588 138.217 L 439.588 138.217 Q 440.461 137.433 440.461 136.042 L 440.461 136.042 L 440.461 133.555 L 440.461 133.555 Q 440.461 133.437 440.342 133.437 L 440.342 133.437 L 438.27 133.437 L 438.27 133.437 Q 436.85 133.437 436.021 134.192 L 436.021 134.192 L 436.021 134.192 Q 435.192 134.946 435.192 136.426 L 435.192 136.426 L 435.192 136.426 Q 435.192 137.729 435.828 138.365 L 435.828 138.365 L 435.828 138.365 Q 436.465 139.002 437.501 139.002 L 437.501 139.002 L 437.501 139.002 Z  M 450.14 140.837 L 450.14 140.837 Q 448.038 140.837 446.78 139.594 L 446.78 139.594 L 446.78 139.594 Q 445.522 138.35 445.522 136.308 L 445.522 136.308 L 445.522 129.914 L 445.522 129.914 Q 445.522 127.902 446.795 126.644 L 446.795 126.644 L 446.795 126.644 Q 448.068 125.386 450.14 125.386 L 450.14 125.386 L 450.14 125.386 Q 451.531 125.386 452.597 125.948 L 452.597 125.948 L 452.597 125.948 Q 453.662 126.51 454.24 127.443 L 454.24 127.443 L 454.24 127.443 Q 454.817 128.375 454.817 129.5 L 454.817 129.5 L 454.817 129.796 L 454.817 129.796 Q 454.817 130.092 454.521 130.092 L 454.521 130.092 L 453.011 130.151 L 453.011 130.151 Q 452.893 130.151 452.804 130.077 L 452.804 130.077 L 452.804 130.077 Q 452.715 130.003 452.715 129.885 L 452.715 129.885 L 452.715 129.648 L 452.715 129.648 Q 452.715 128.671 451.99 127.946 L 451.99 127.946 L 451.99 127.946 Q 451.265 127.221 450.14 127.221 L 450.14 127.221 L 450.14 127.221 Q 449.015 127.221 448.32 128.005 L 448.32 128.005 L 448.32 128.005 Q 447.624 128.79 447.624 130.062 L 447.624 130.062 L 447.624 136.16 L 447.624 136.16 Q 447.624 137.433 448.32 138.217 L 448.32 138.217 L 448.32 138.217 Q 449.015 139.002 450.14 139.002 L 450.14 139.002 L 450.14 139.002 Q 451.265 139.002 451.99 138.276 L 451.99 138.276 L 451.99 138.276 Q 452.715 137.551 452.715 136.574 L 452.715 136.574 L 452.715 136.367 L 452.715 136.367 Q 452.715 136.071 453.011 136.071 L 453.011 136.071 L 454.521 136.101 L 454.521 136.101 Q 454.817 136.101 454.817 136.397 L 454.817 136.397 L 454.817 136.722 L 454.817 136.722 Q 454.817 138.498 453.529 139.668 L 453.529 139.668 L 453.529 139.668 Q 452.242 140.837 450.14 140.837 L 450.14 140.837 L 450.14 140.837 Z  M 466.686 133.614 L 466.686 133.614 Q 466.686 133.91 466.39 133.91 L 466.39 133.91 L 459.642 133.91 L 459.642 133.91 Q 459.523 133.91 459.523 134.029 L 459.523 134.029 L 459.523 136.19 L 459.523 136.19 Q 459.523 137.433 460.219 138.217 L 460.219 138.217 L 460.219 138.217 Q 460.914 139.002 462.039 139.002 L 462.039 139.002 L 462.039 139.002 Q 462.986 139.002 463.652 138.424 L 463.652 138.424 L 463.652 138.424 Q 464.318 137.847 464.526 136.93 L 464.526 136.93 L 464.526 136.93 Q 464.614 136.663 464.851 136.663 L 464.851 136.663 L 466.331 136.722 L 466.331 136.722 Q 466.45 136.722 466.538 136.811 L 466.538 136.811 L 466.538 136.811 Q 466.627 136.9 466.598 137.048 L 466.598 137.048 L 466.598 137.048 Q 466.361 138.794 465.162 139.816 L 465.162 139.816 L 465.162 139.816 Q 463.963 140.837 462.039 140.837 L 462.039 140.837 L 462.039 140.837 Q 459.938 140.837 458.68 139.594 L 458.68 139.594 L 458.68 139.594 Q 457.422 138.35 457.422 136.308 L 457.422 136.308 L 457.422 129.914 L 457.422 129.914 Q 457.422 127.902 458.68 126.644 L 458.68 126.644 L 458.68 126.644 Q 459.938 125.386 462.039 125.386 L 462.039 125.386 L 462.039 125.386 Q 464.17 125.386 465.428 126.644 L 465.428 126.644 L 465.428 126.644 Q 466.686 127.902 466.686 129.914 L 466.686 129.914 L 466.686 133.614 L 466.686 133.614 Z  M 462.039 127.221 L 462.039 127.221 Q 460.914 127.221 460.219 128.005 L 460.219 128.005 L 460.219 128.005 Q 459.523 128.79 459.523 130.062 L 459.523 130.062 L 459.523 132.046 L 459.523 132.046 Q 459.523 132.164 459.642 132.164 L 459.642 132.164 L 464.496 132.164 L 464.496 132.164 Q 464.614 132.164 464.614 132.046 L 464.614 132.046 L 464.614 130.062 L 464.614 130.062 Q 464.614 128.79 463.904 128.005 L 463.904 128.005 L 463.904 128.005 Q 463.194 127.221 462.039 127.221 L 462.039 127.221 L 462.039 127.221 Z  M 377.206 140.837 L 377.206 140.837 Q 375.074 140.837 373.816 139.594 L 373.816 139.594 L 373.816 139.594 Q 372.558 138.35 372.558 136.308 L 372.558 136.308 L 372.558 129.914 L 372.558 129.914 Q 372.558 127.902 373.831 126.644 L 373.831 126.644 L 373.831 126.644 Q 375.104 125.386 377.206 125.386 L 377.206 125.386 L 377.206 125.386 Q 379.307 125.386 380.595 126.644 L 380.595 126.644 L 380.595 126.644 Q 381.882 127.902 381.882 129.914 L 381.882 129.914 L 381.882 136.308 L 381.882 136.308 Q 381.882 138.35 380.61 139.594 L 380.61 139.594 L 380.61 139.594 Q 379.337 140.837 377.206 140.837 L 377.206 140.837 L 377.206 140.837 Z  M 377.206 139.002 L 377.206 139.002 Q 378.33 139.002 379.056 138.217 L 379.056 138.217 L 379.056 138.217 Q 379.781 137.433 379.781 136.19 L 379.781 136.19 L 379.781 130.062 L 379.781 130.062 Q 379.781 128.79 379.056 128.005 L 379.056 128.005 L 379.056 128.005 Q 378.33 127.221 377.206 127.221 L 377.206 127.221 L 377.206 127.221 Q 376.081 127.221 375.37 128.005 L 375.37 128.005 L 375.37 128.005 Q 374.66 128.79 374.66 130.062 L 374.66 130.062 L 374.66 136.19 L 374.66 136.19 Q 374.66 137.433 375.37 138.217 L 375.37 138.217 L 375.37 138.217 Q 376.081 139.002 377.206 139.002 L 377.206 139.002 L 377.206 139.002 Z  M 390.466 125.415 L 390.466 125.415 Q 392.272 125.415 393.264 126.658 L 393.264 126.658 L 393.264 126.658 Q 394.255 127.902 394.255 130.122 L 394.255 130.122 L 394.255 140.304 L 394.255 140.304 Q 394.255 140.6 393.959 140.6 L 393.959 140.6 L 392.45 140.6 L 392.45 140.6 Q 392.154 140.6 392.154 140.304 L 392.154 140.304 L 392.154 130.299 L 392.154 130.299 Q 392.154 128.849 391.532 128.05 L 391.532 128.05 L 391.532 128.05 Q 390.91 127.25 389.786 127.25 L 389.786 127.25 L 389.786 127.25 Q 388.602 127.25 387.921 128.109 L 387.921 128.109 L 387.921 128.109 Q 387.24 128.967 387.24 130.447 L 387.24 130.447 L 387.24 140.304 L 387.24 140.304 Q 387.24 140.6 386.944 140.6 L 386.944 140.6 L 385.434 140.6 L 385.434 140.6 Q 385.138 140.6 385.138 140.304 L 385.138 140.304 L 385.138 125.918 L 385.138 125.918 Q 385.138 125.622 385.434 125.622 L 385.434 125.622 L 386.944 125.622 L 386.944 125.622 Q 387.24 125.622 387.24 125.918 L 387.24 125.918 L 387.24 126.895 L 387.24 126.895 Q 387.24 126.954 387.299 126.969 L 387.299 126.969 L 387.299 126.969 Q 387.358 126.984 387.388 126.925 L 387.388 126.925 L 387.388 126.925 Q 388.483 125.415 390.466 125.415 L 390.466 125.415 L 390.466 125.415 Z  M 406.628 133.614 L 406.628 133.614 Q 406.628 133.91 406.332 133.91 L 406.332 133.91 L 399.583 133.91 L 399.583 133.91 Q 399.465 133.91 399.465 134.029 L 399.465 134.029 L 399.465 136.19 L 399.465 136.19 Q 399.465 137.433 400.16 138.217 L 400.16 138.217 L 400.16 138.217 Q 400.856 139.002 401.981 139.002 L 401.981 139.002 L 401.981 139.002 Q 402.928 139.002 403.594 138.424 L 403.594 138.424 L 403.594 138.424 Q 404.26 137.847 404.467 136.93 L 404.467 136.93 L 404.467 136.93 Q 404.556 136.663 404.793 136.663 L 404.793 136.663 L 406.273 136.722 L 406.273 136.722 Q 406.391 136.722 406.48 136.811 L 406.48 136.811 L 406.48 136.811 Q 406.569 136.9 406.539 137.048 L 406.539 137.048 L 406.539 137.048 Q 406.302 138.794 405.104 139.816 L 405.104 139.816 L 405.104 139.816 Q 403.905 140.837 401.981 140.837 L 401.981 140.837 L 401.981 140.837 Q 399.879 140.837 398.621 139.594 L 398.621 139.594 L 398.621 139.594 Q 397.363 138.35 397.363 136.308 L 397.363 136.308 L 397.363 129.914 L 397.363 129.914 Q 397.363 127.902 398.621 126.644 L 398.621 126.644 L 398.621 126.644 Q 399.879 125.386 401.981 125.386 L 401.981 125.386 L 401.981 125.386 Q 404.112 125.386 405.37 126.644 L 405.37 126.644 L 405.37 126.644 Q 406.628 127.902 406.628 129.914 L 406.628 129.914 L 406.628 133.614 L 406.628 133.614 Z  M 401.981 127.221 L 401.981 127.221 Q 400.856 127.221 400.16 128.005 L 400.16 128.005 L 400.16 128.005 Q 399.465 128.79 399.465 130.062 L 399.465 130.062 L 399.465 132.046 L 399.465 132.046 Q 399.465 132.164 399.583 132.164 L 399.583 132.164 L 404.438 132.164 L 404.438 132.164 Q 404.556 132.164 404.556 132.046 L 404.556 132.046 L 404.556 130.062 L 404.556 130.062 Q 404.556 128.79 403.846 128.005 L 403.846 128.005 L 403.846 128.005 Q 403.135 127.221 401.981 127.221 L 401.981 127.221 L 401.981 127.221 Z  M 349.648 122.958 L 349.648 122.958 Q 348.997 122.958 348.582 122.514 L 348.582 122.514 L 348.582 122.514 Q 348.168 122.07 348.168 121.39 L 348.168 121.39 L 348.168 121.39 Q 348.168 120.738 348.582 120.309 L 348.582 120.309 L 348.582 120.309 Q 348.997 119.88 349.648 119.88 L 349.648 119.88 L 349.648 119.88 Q 350.27 119.88 350.669 120.309 L 350.669 120.309 L 350.669 120.309 Q 351.069 120.738 351.069 121.39 L 351.069 121.39 L 351.069 121.39 Q 351.069 122.07 350.669 122.514 L 350.669 122.514 L 350.669 122.514 Q 350.27 122.958 349.648 122.958 L 349.648 122.958 L 349.648 122.958 Z  M 348.878 140.6 L 348.878 140.6 Q 348.582 140.6 348.582 140.304 L 348.582 140.304 L 348.582 125.918 L 348.582 125.918 Q 348.582 125.622 348.878 125.622 L 348.878 125.622 L 350.388 125.622 L 350.388 125.622 Q 350.684 125.622 350.684 125.918 L 350.684 125.918 L 350.684 140.304 L 350.684 140.304 Q 350.684 140.6 350.388 140.6 L 350.388 140.6 L 348.878 140.6 L 348.878 140.6 Z  M 359.742 125.415 L 359.742 125.415 Q 361.547 125.415 362.539 126.658 L 362.539 126.658 L 362.539 126.658 Q 363.53 127.902 363.53 130.122 L 363.53 130.122 L 363.53 140.304 L 363.53 140.304 Q 363.53 140.6 363.234 140.6 L 363.234 140.6 L 361.725 140.6 L 361.725 140.6 Q 361.429 140.6 361.429 140.304 L 361.429 140.304 L 361.429 130.299 L 361.429 130.299 Q 361.429 128.849 360.807 128.05 L 360.807 128.05 L 360.807 128.05 Q 360.186 127.25 359.061 127.25 L 359.061 127.25 L 359.061 127.25 Q 357.877 127.25 357.196 128.109 L 357.196 128.109 L 357.196 128.109 Q 356.515 128.967 356.515 130.447 L 356.515 130.447 L 356.515 140.304 L 356.515 140.304 Q 356.515 140.6 356.219 140.6 L 356.219 140.6 L 354.71 140.6 L 354.71 140.6 Q 354.414 140.6 354.414 140.304 L 354.414 140.304 L 354.414 125.918 L 354.414 125.918 Q 354.414 125.622 354.71 125.622 L 354.71 125.622 L 356.219 125.622 L 356.219 125.622 Q 356.515 125.622 356.515 125.918 L 356.515 125.918 L 356.515 126.895 L 356.515 126.895 Q 356.515 126.954 356.574 126.969 L 356.574 126.969 L 356.574 126.969 Q 356.634 126.984 356.663 126.925 L 356.663 126.925 L 356.663 126.925 Q 357.758 125.415 359.742 125.415 L 359.742 125.415 L 359.742 125.415 Z  M 209.078 121.478 L 209.078 121.478 Q 207.953 121.478 207.479 122.233 L 207.479 122.233 L 207.479 122.233 Q 207.006 122.988 207.006 124.586 L 207.006 124.586 L 207.006 125.504 L 207.006 125.504 Q 207.006 125.622 207.124 125.622 L 207.124 125.622 L 209.403 125.622 L 209.403 125.622 Q 209.699 125.622 209.699 125.918 L 209.699 125.918 L 209.699 126.895 L 209.699 126.895 Q 209.699 127.191 209.403 127.191 L 209.403 127.191 L 207.124 127.191 L 207.124 127.191 Q 207.006 127.191 207.006 127.31 L 207.006 127.31 L 207.006 140.304 L 207.006 140.304 Q 207.006 140.6 206.71 140.6 L 206.71 140.6 L 205.23 140.6 L 205.23 140.6 Q 204.934 140.6 204.934 140.304 L 204.934 140.304 L 204.934 127.31 L 204.934 127.31 Q 204.934 127.191 204.815 127.191 L 204.815 127.191 L 203.631 127.191 L 203.631 127.191 Q 203.335 127.191 203.335 126.895 L 203.335 126.895 L 203.335 125.918 L 203.335 125.918 Q 203.335 125.622 203.631 125.622 L 203.631 125.622 L 204.815 125.622 L 204.815 125.622 Q 204.934 125.622 204.934 125.504 L 204.934 125.504 L 204.934 124.557 L 204.934 124.557 Q 204.934 121.982 205.881 120.827 L 205.881 120.827 L 205.881 120.827 Q 206.828 119.673 209.048 119.673 L 209.048 119.673 L 209.462 119.673 L 209.462 119.673 Q 209.758 119.673 209.758 119.969 L 209.758 119.969 L 209.729 121.182 L 209.729 121.182 Q 209.729 121.478 209.433 121.478 L 209.433 121.478 L 209.078 121.478 L 209.078 121.478 Z  M 219.319 125.918 L 219.319 125.918 Q 219.319 125.622 219.615 125.622 L 219.615 125.622 L 221.125 125.622 L 221.125 125.622 Q 221.421 125.622 221.421 125.918 L 221.421 125.918 L 221.421 140.304 L 221.421 140.304 Q 221.421 140.6 221.125 140.6 L 221.125 140.6 L 219.615 140.6 L 219.615 140.6 Q 219.319 140.6 219.319 140.304 L 219.319 140.304 L 219.319 139.298 L 219.319 139.298 Q 219.319 139.209 219.275 139.209 L 219.275 139.209 L 219.275 139.209 Q 219.23 139.209 219.171 139.268 L 219.171 139.268 L 219.171 139.268 Q 218.254 140.807 216.211 140.807 L 216.211 140.807 L 216.211 140.807 Q 214.435 140.807 213.384 139.727 L 213.384 139.727 L 213.384 139.727 Q 212.334 138.646 212.334 136.456 L 212.334 136.456 L 212.334 125.918 L 212.334 125.918 Q 212.334 125.622 212.63 125.622 L 212.63 125.622 L 214.139 125.622 L 214.139 125.622 Q 214.435 125.622 214.435 125.918 L 214.435 125.918 L 214.435 135.982 L 214.435 135.982 Q 214.435 137.462 215.042 138.217 L 215.042 138.217 L 215.042 138.217 Q 215.649 138.972 216.803 138.972 L 216.803 138.972 L 216.803 138.972 Q 217.987 138.972 218.653 138.114 L 218.653 138.114 L 218.653 138.114 Q 219.319 137.255 219.319 135.775 L 219.319 135.775 L 219.319 125.918 L 219.319 125.918 Z  M 230.36 125.415 L 230.36 125.415 Q 232.166 125.415 233.157 126.658 L 233.157 126.658 L 233.157 126.658 Q 234.149 127.902 234.149 130.122 L 234.149 130.122 L 234.149 140.304 L 234.149 140.304 Q 234.149 140.6 233.853 140.6 L 233.853 140.6 L 232.343 140.6 L 232.343 140.6 Q 232.047 140.6 232.047 140.304 L 232.047 140.304 L 232.047 130.299 L 232.047 130.299 Q 232.047 128.849 231.426 128.05 L 231.426 128.05 L 231.426 128.05 Q 230.804 127.25 229.679 127.25 L 229.679 127.25 L 229.679 127.25 Q 228.495 127.25 227.814 128.109 L 227.814 128.109 L 227.814 128.109 Q 227.134 128.967 227.134 130.447 L 227.134 130.447 L 227.134 140.304 L 227.134 140.304 Q 227.134 140.6 226.838 140.6 L 226.838 140.6 L 225.328 140.6 L 225.328 140.6 Q 225.032 140.6 225.032 140.304 L 225.032 140.304 L 225.032 125.918 L 225.032 125.918 Q 225.032 125.622 225.328 125.622 L 225.328 125.622 L 226.838 125.622 L 226.838 125.622 Q 227.134 125.622 227.134 125.918 L 227.134 125.918 L 227.134 126.895 L 227.134 126.895 Q 227.134 126.954 227.193 126.969 L 227.193 126.969 L 227.193 126.969 Q 227.252 126.984 227.282 126.925 L 227.282 126.925 L 227.282 126.925 Q 228.377 125.415 230.36 125.415 L 230.36 125.415 L 230.36 125.415 Z  M 244.39 120.176 L 244.39 120.176 Q 244.39 119.88 244.686 119.88 L 244.686 119.88 L 246.196 119.88 L 246.196 119.88 Q 246.492 119.88 246.492 120.176 L 246.492 120.176 L 246.492 140.304 L 246.492 140.304 Q 246.492 140.6 246.196 140.6 L 246.196 140.6 L 244.686 140.6 L 244.686 140.6 Q 244.39 140.6 244.39 140.304 L 244.39 140.304 L 244.39 139.446 L 244.39 139.446 Q 244.39 139.386 244.346 139.357 L 244.346 139.357 L 244.346 139.357 Q 244.302 139.327 244.242 139.386 L 244.242 139.386 L 244.242 139.386 Q 243.739 140.097 242.984 140.467 L 242.984 140.467 L 242.984 140.467 Q 242.23 140.837 241.312 140.837 L 241.312 140.837 L 241.312 140.837 Q 239.566 140.837 238.485 139.579 L 238.485 139.579 L 238.485 139.579 Q 237.405 138.321 237.316 136.308 L 237.316 136.308 L 237.316 136.308 Q 237.286 135.213 237.286 133.022 L 237.286 133.022 L 237.286 133.022 Q 237.286 130.921 237.316 129.826 L 237.316 129.826 L 237.316 129.826 Q 237.375 127.842 238.456 126.614 L 238.456 126.614 L 238.456 126.614 Q 239.536 125.386 241.312 125.386 L 241.312 125.386 L 241.312 125.386 Q 243.236 125.386 244.242 126.806 L 244.242 126.806 L 244.242 126.806 Q 244.302 126.866 244.346 126.836 L 244.346 126.836 L 244.346 126.836 Q 244.39 126.806 244.39 126.747 L 244.39 126.747 L 244.39 120.176 L 244.39 120.176 Z  M 241.934 139.002 L 241.934 139.002 Q 242.999 139.002 243.695 138.188 L 243.695 138.188 L 243.695 138.188 Q 244.39 137.374 244.39 136.042 L 244.39 136.042 L 244.39 130.181 L 244.39 130.181 Q 244.39 128.849 243.695 128.035 L 243.695 128.035 L 243.695 128.035 Q 242.999 127.221 241.934 127.221 L 241.934 127.221 L 241.934 127.221 Q 240.779 127.221 240.069 128.035 L 240.069 128.035 L 240.069 128.035 Q 239.358 128.849 239.388 130.181 L 239.388 130.181 L 239.388 131.217 L 239.388 133.111 L 239.388 136.042 L 239.388 136.042 Q 239.358 137.344 240.069 138.173 L 240.069 138.173 L 240.069 138.173 Q 240.779 139.002 241.934 139.002 L 241.934 139.002 L 241.934 139.002 Z  M 254.454 125.386 L 254.454 125.386 Q 256.526 125.386 257.755 126.732 L 257.755 126.732 L 257.755 126.732 Q 258.983 128.079 258.983 130.329 L 258.983 130.329 L 258.983 140.304 L 258.983 140.304 Q 258.983 140.6 258.687 140.6 L 258.687 140.6 L 257.178 140.6 L 257.178 140.6 Q 256.882 140.6 256.882 140.304 L 256.882 140.304 L 256.882 139.446 L 256.882 139.446 Q 256.882 139.386 256.837 139.372 L 256.837 139.372 L 256.837 139.372 Q 256.793 139.357 256.734 139.416 L 256.734 139.416 L 256.734 139.416 Q 255.638 140.837 253.478 140.837 L 253.478 140.837 L 253.478 140.837 Q 251.85 140.837 250.651 139.904 L 250.651 139.904 L 250.651 139.904 Q 249.452 138.972 249.452 136.604 L 249.452 136.604 L 249.452 136.604 Q 249.452 134.088 250.902 132.919 L 250.902 132.919 L 250.902 132.919 Q 252.353 131.75 254.721 131.75 L 254.721 131.75 L 256.763 131.75 L 256.763 131.75 Q 256.882 131.75 256.882 131.631 L 256.882 131.631 L 256.882 130.477 L 256.882 130.477 Q 256.882 128.997 256.216 128.109 L 256.216 128.109 L 256.216 128.109 Q 255.55 127.221 254.395 127.221 L 254.395 127.221 L 254.395 127.221 Q 253.507 127.221 252.856 127.813 L 252.856 127.813 L 252.856 127.813 Q 252.205 128.405 252.116 129.322 L 252.116 129.322 L 252.116 129.322 Q 252.086 129.618 251.79 129.618 L 251.79 129.618 L 250.162 129.589 L 250.162 129.589 Q 250.014 129.589 249.94 129.5 L 249.94 129.5 L 249.94 129.5 Q 249.866 129.411 249.896 129.293 L 249.896 129.293 L 249.896 129.293 Q 250.044 127.546 251.317 126.466 L 251.317 126.466 L 251.317 126.466 Q 252.59 125.386 254.454 125.386 L 254.454 125.386 L 254.454 125.386 Z  M 253.922 139.002 L 253.922 139.002 Q 255.135 139.002 256.008 138.217 L 256.008 138.217 L 256.008 138.217 Q 256.882 137.433 256.882 136.042 L 256.882 136.042 L 256.882 133.555 L 256.882 133.555 Q 256.882 133.437 256.763 133.437 L 256.763 133.437 L 254.691 133.437 L 254.691 133.437 Q 253.27 133.437 252.442 134.192 L 252.442 134.192 L 252.442 134.192 Q 251.613 134.946 251.613 136.426 L 251.613 136.426 L 251.613 136.426 Q 251.613 137.729 252.249 138.365 L 252.249 138.365 L 252.249 138.365 Q 252.886 139.002 253.922 139.002 L 253.922 139.002 L 253.922 139.002 Z  M 274.257 125.415 L 274.257 125.415 Q 276.033 125.415 277.01 126.718 L 277.01 126.718 L 277.01 126.718 Q 277.986 128.02 277.986 130.329 L 277.986 130.329 L 277.986 140.304 L 277.986 140.304 Q 277.986 140.6 277.69 140.6 L 277.69 140.6 L 276.21 140.6 L 276.21 140.6 Q 275.914 140.6 275.914 140.304 L 275.914 140.304 L 275.914 130.506 L 275.914 130.506 Q 275.914 128.997 275.278 128.124 L 275.278 128.124 L 275.278 128.124 Q 274.642 127.25 273.606 127.25 L 273.606 127.25 L 273.606 127.25 Q 272.481 127.25 271.83 128.109 L 271.83 128.109 L 271.83 128.109 Q 271.178 128.967 271.178 130.447 L 271.178 130.447 L 271.178 140.304 L 271.178 140.304 Q 271.178 140.6 270.882 140.6 L 270.882 140.6 L 269.373 140.6 L 269.373 140.6 Q 269.077 140.6 269.077 140.304 L 269.077 140.304 L 269.077 130.506 L 269.077 130.506 Q 269.077 128.997 268.44 128.124 L 268.44 128.124 L 268.44 128.124 Q 267.804 127.25 266.798 127.25 L 266.798 127.25 L 266.798 127.25 Q 265.673 127.25 265.007 128.109 L 265.007 128.109 L 265.007 128.109 Q 264.341 128.967 264.341 130.447 L 264.341 130.447 L 264.341 140.304 L 264.341 140.304 Q 264.341 140.6 264.045 140.6 L 264.045 140.6 L 262.565 140.6 L 262.565 140.6 Q 262.269 140.6 262.269 140.304 L 262.269 140.304 L 262.269 125.918 L 262.269 125.918 Q 262.269 125.622 262.565 125.622 L 262.565 125.622 L 264.045 125.622 L 264.045 125.622 Q 264.341 125.622 264.341 125.918 L 264.341 125.918 L 264.341 126.836 L 264.341 126.836 Q 264.341 126.895 264.385 126.91 L 264.385 126.91 L 264.385 126.91 Q 264.43 126.925 264.489 126.866 L 264.489 126.866 L 264.489 126.866 Q 265.051 126.126 265.821 125.77 L 265.821 125.77 L 265.821 125.77 Q 266.59 125.415 267.449 125.415 L 267.449 125.415 L 267.449 125.415 Q 268.574 125.415 269.402 125.963 L 269.402 125.963 L 269.402 125.963 Q 270.231 126.51 270.675 127.517 L 270.675 127.517 L 270.675 127.517 Q 270.705 127.576 270.764 127.576 L 270.764 127.576 L 270.764 127.576 Q 270.823 127.576 270.853 127.487 L 270.853 127.487 L 270.853 127.487 Q 271.386 126.422 272.303 125.918 L 272.303 125.918 L 272.303 125.918 Q 273.221 125.415 274.257 125.415 L 274.257 125.415 L 274.257 125.415 Z  M 290.359 133.614 L 290.359 133.614 Q 290.359 133.91 290.063 133.91 L 290.063 133.91 L 283.314 133.91 L 283.314 133.91 Q 283.196 133.91 283.196 134.029 L 283.196 134.029 L 283.196 136.19 L 283.196 136.19 Q 283.196 137.433 283.892 138.217 L 283.892 138.217 L 283.892 138.217 Q 284.587 139.002 285.712 139.002 L 285.712 139.002 L 285.712 139.002 Q 286.659 139.002 287.325 138.424 L 287.325 138.424 L 287.325 138.424 Q 287.991 137.847 288.198 136.93 L 288.198 136.93 L 288.198 136.93 Q 288.287 136.663 288.524 136.663 L 288.524 136.663 L 290.004 136.722 L 290.004 136.722 Q 290.122 136.722 290.211 136.811 L 290.211 136.811 L 290.211 136.811 Q 290.3 136.9 290.27 137.048 L 290.27 137.048 L 290.27 137.048 Q 290.034 138.794 288.835 139.816 L 288.835 139.816 L 288.835 139.816 Q 287.636 140.837 285.712 140.837 L 285.712 140.837 L 285.712 140.837 Q 283.61 140.837 282.352 139.594 L 282.352 139.594 L 282.352 139.594 Q 281.094 138.35 281.094 136.308 L 281.094 136.308 L 281.094 129.914 L 281.094 129.914 Q 281.094 127.902 282.352 126.644 L 282.352 126.644 L 282.352 126.644 Q 283.61 125.386 285.712 125.386 L 285.712 125.386 L 285.712 125.386 Q 287.843 125.386 289.101 126.644 L 289.101 126.644 L 289.101 126.644 Q 290.359 127.902 290.359 129.914 L 290.359 129.914 L 290.359 133.614 L 290.359 133.614 Z  M 285.712 127.221 L 285.712 127.221 Q 284.587 127.221 283.892 128.005 L 283.892 128.005 L 283.892 128.005 Q 283.196 128.79 283.196 130.062 L 283.196 130.062 L 283.196 132.046 L 283.196 132.046 Q 283.196 132.164 283.314 132.164 L 283.314 132.164 L 288.169 132.164 L 288.169 132.164 Q 288.287 132.164 288.287 132.046 L 288.287 132.046 L 288.287 130.062 L 288.287 130.062 Q 288.287 128.79 287.577 128.005 L 287.577 128.005 L 287.577 128.005 Q 286.866 127.221 285.712 127.221 L 285.712 127.221 L 285.712 127.221 Z  M 298.795 125.415 L 298.795 125.415 Q 300.601 125.415 301.592 126.658 L 301.592 126.658 L 301.592 126.658 Q 302.584 127.902 302.584 130.122 L 302.584 130.122 L 302.584 140.304 L 302.584 140.304 Q 302.584 140.6 302.288 140.6 L 302.288 140.6 L 300.778 140.6 L 300.778 140.6 Q 300.482 140.6 300.482 140.304 L 300.482 140.304 L 300.482 130.299 L 300.482 130.299 Q 300.482 128.849 299.861 128.05 L 299.861 128.05 L 299.861 128.05 Q 299.239 127.25 298.114 127.25 L 298.114 127.25 L 298.114 127.25 Q 296.93 127.25 296.25 128.109 L 296.25 128.109 L 296.25 128.109 Q 295.569 128.967 295.569 130.447 L 295.569 130.447 L 295.569 140.304 L 295.569 140.304 Q 295.569 140.6 295.273 140.6 L 295.273 140.6 L 293.763 140.6 L 293.763 140.6 Q 293.467 140.6 293.467 140.304 L 293.467 140.304 L 293.467 125.918 L 293.467 125.918 Q 293.467 125.622 293.763 125.622 L 293.763 125.622 L 295.273 125.622 L 295.273 125.622 Q 295.569 125.622 295.569 125.918 L 295.569 125.918 L 295.569 126.895 L 295.569 126.895 Q 295.569 126.954 295.628 126.969 L 295.628 126.969 L 295.628 126.969 Q 295.687 126.984 295.717 126.925 L 295.717 126.925 L 295.717 126.925 Q 296.812 125.415 298.795 125.415 L 298.795 125.415 L 298.795 125.415 Z  M 311.286 126.895 L 311.286 126.895 Q 311.286 127.191 310.99 127.191 L 310.99 127.191 L 308.741 127.191 L 308.741 127.191 Q 308.622 127.191 308.622 127.31 L 308.622 127.31 L 308.622 136.367 L 308.622 136.367 Q 308.622 137.729 309.096 138.247 L 309.096 138.247 L 309.096 138.247 Q 309.57 138.765 310.546 138.735 L 310.546 138.735 L 310.842 138.735 L 310.842 138.735 Q 311.138 138.735 311.138 139.031 L 311.138 139.031 L 311.138 140.304 L 311.138 140.304 Q 311.138 140.6 310.842 140.6 L 310.842 140.6 L 310.102 140.6 L 310.102 140.6 Q 308.356 140.6 307.453 139.845 L 307.453 139.845 L 307.453 139.845 Q 306.55 139.09 306.55 136.989 L 306.55 136.989 L 306.55 127.31 L 306.55 127.31 Q 306.55 127.191 306.432 127.191 L 306.432 127.191 L 305.278 127.191 L 305.278 127.191 Q 304.982 127.191 304.982 126.895 L 304.982 126.895 L 304.982 125.918 L 304.982 125.918 Q 304.982 125.622 305.278 125.622 L 305.278 125.622 L 306.432 125.622 L 306.432 125.622 Q 306.55 125.622 306.55 125.504 L 306.55 125.504 L 306.55 122.189 L 306.55 122.189 Q 306.55 121.893 306.846 121.893 L 306.846 121.893 L 308.326 121.893 L 308.326 121.893 Q 308.622 121.893 308.622 122.189 L 308.622 122.189 L 308.622 125.504 L 308.622 125.504 Q 308.622 125.622 308.741 125.622 L 308.741 125.622 L 310.99 125.622 L 310.99 125.622 Q 311.286 125.622 311.286 125.918 L 311.286 125.918 L 311.286 126.895 L 311.286 126.895 Z  M 318.272 125.386 L 318.272 125.386 Q 320.344 125.386 321.572 126.732 L 321.572 126.732 L 321.572 126.732 Q 322.801 128.079 322.801 130.329 L 322.801 130.329 L 322.801 140.304 L 322.801 140.304 Q 322.801 140.6 322.505 140.6 L 322.505 140.6 L 320.995 140.6 L 320.995 140.6 Q 320.699 140.6 320.699 140.304 L 320.699 140.304 L 320.699 139.446 L 320.699 139.446 Q 320.699 139.386 320.655 139.372 L 320.655 139.372 L 320.655 139.372 Q 320.61 139.357 320.551 139.416 L 320.551 139.416 L 320.551 139.416 Q 319.456 140.837 317.295 140.837 L 317.295 140.837 L 317.295 140.837 Q 315.667 140.837 314.468 139.904 L 314.468 139.904 L 314.468 139.904 Q 313.27 138.972 313.27 136.604 L 313.27 136.604 L 313.27 136.604 Q 313.27 134.088 314.72 132.919 L 314.72 132.919 L 314.72 132.919 Q 316.17 131.75 318.538 131.75 L 318.538 131.75 L 320.581 131.75 L 320.581 131.75 Q 320.699 131.75 320.699 131.631 L 320.699 131.631 L 320.699 130.477 L 320.699 130.477 Q 320.699 128.997 320.033 128.109 L 320.033 128.109 L 320.033 128.109 Q 319.367 127.221 318.213 127.221 L 318.213 127.221 L 318.213 127.221 Q 317.325 127.221 316.674 127.813 L 316.674 127.813 L 316.674 127.813 Q 316.022 128.405 315.934 129.322 L 315.934 129.322 L 315.934 129.322 Q 315.904 129.618 315.608 129.618 L 315.608 129.618 L 313.98 129.589 L 313.98 129.589 Q 313.832 129.589 313.758 129.5 L 313.758 129.5 L 313.758 129.5 Q 313.684 129.411 313.714 129.293 L 313.714 129.293 L 313.714 129.293 Q 313.862 127.546 315.134 126.466 L 315.134 126.466 L 315.134 126.466 Q 316.407 125.386 318.272 125.386 L 318.272 125.386 L 318.272 125.386 Z  M 317.739 139.002 L 317.739 139.002 Q 318.953 139.002 319.826 138.217 L 319.826 138.217 L 319.826 138.217 Q 320.699 137.433 320.699 136.042 L 320.699 136.042 L 320.699 133.555 L 320.699 133.555 Q 320.699 133.437 320.581 133.437 L 320.581 133.437 L 318.509 133.437 L 318.509 133.437 Q 317.088 133.437 316.259 134.192 L 316.259 134.192 L 316.259 134.192 Q 315.43 134.946 315.43 136.426 L 315.43 136.426 L 315.43 136.426 Q 315.43 137.729 316.067 138.365 L 316.067 138.365 L 316.067 138.365 Q 316.703 139.002 317.739 139.002 L 317.739 139.002 L 317.739 139.002 Z  M 326.205 140.6 L 326.205 140.6 Q 325.909 140.6 325.909 140.304 L 325.909 140.304 L 325.909 120.176 L 325.909 120.176 Q 325.909 119.88 326.205 119.88 L 326.205 119.88 L 327.714 119.88 L 327.714 119.88 Q 328.01 119.88 328.01 120.176 L 328.01 120.176 L 328.01 140.304 L 328.01 140.304 Q 328.01 140.6 327.714 140.6 L 327.714 140.6 L 326.205 140.6 L 326.205 140.6 Z  M 335.351 140.748 L 335.351 140.748 Q 333.309 140.748 332.08 139.697 L 332.08 139.697 L 332.08 139.697 Q 330.852 138.646 330.852 136.9 L 330.852 136.9 L 330.852 136.693 L 330.852 136.693 Q 330.852 136.397 331.148 136.397 L 331.148 136.397 L 332.569 136.397 L 332.569 136.397 Q 332.865 136.397 332.865 136.634 L 332.865 136.634 L 332.865 136.87 L 332.865 136.87 Q 332.865 137.818 333.56 138.469 L 333.56 138.469 L 333.56 138.469 Q 334.256 139.12 335.381 139.12 L 335.381 139.12 L 335.381 139.12 Q 336.446 139.12 337.098 138.469 L 337.098 138.469 L 337.098 138.469 Q 337.749 137.818 337.749 136.811 L 337.749 136.811 L 337.749 136.811 Q 337.749 136.042 337.334 135.524 L 337.334 135.524 L 337.334 135.524 Q 336.92 135.006 336.372 134.71 L 336.372 134.71 L 336.372 134.71 Q 335.825 134.414 334.73 133.94 L 334.73 133.94 L 334.73 133.94 Q 333.575 133.466 332.82 133.008 L 332.82 133.008 L 332.82 133.008 Q 332.066 132.549 331.518 131.705 L 331.518 131.705 L 331.518 131.705 Q 330.97 130.862 330.97 129.559 L 330.97 129.559 L 330.97 129.559 Q 330.97 127.665 332.14 126.57 L 332.14 126.57 L 332.14 126.57 Q 333.309 125.474 335.292 125.474 L 335.292 125.474 L 335.292 125.474 Q 337.305 125.474 338.489 126.599 L 338.489 126.599 L 338.489 126.599 Q 339.673 127.724 339.673 129.589 L 339.673 129.589 L 339.673 129.678 L 339.673 129.678 Q 339.673 129.974 339.377 129.974 L 339.377 129.974 L 338.015 129.974 L 338.015 129.974 Q 337.719 129.974 337.719 129.737 L 337.719 129.737 L 337.719 129.5 L 337.719 129.5 Q 337.719 128.494 337.053 127.842 L 337.053 127.842 L 337.053 127.842 Q 336.387 127.191 335.322 127.191 L 335.322 127.191 L 335.322 127.191 Q 334.256 127.191 333.62 127.857 L 333.62 127.857 L 333.62 127.857 Q 332.983 128.523 332.983 129.5 L 332.983 129.5 L 332.983 129.5 Q 332.983 130.21 333.368 130.699 L 333.368 130.699 L 333.368 130.699 Q 333.753 131.187 334.315 131.498 L 334.315 131.498 L 334.315 131.498 Q 334.878 131.809 335.884 132.253 L 335.884 132.253 L 335.884 132.253 Q 337.098 132.786 337.882 133.259 L 337.882 133.259 L 337.882 133.259 Q 338.666 133.733 339.258 134.591 L 339.258 134.591 L 339.258 134.591 Q 339.85 135.45 339.85 136.722 L 339.85 136.722 L 339.85 136.722 Q 339.85 138.558 338.637 139.653 L 338.637 139.653 L 338.637 139.653 Q 337.423 140.748 335.351 140.748 L 335.351 140.748 L 335.351 140.748 Z  M 100.357 122.958 L 100.357 122.958 Q 99.706 122.958 99.291 122.514 L 99.291 122.514 L 99.291 122.514 Q 98.877 122.07 98.877 121.39 L 98.877 121.39 L 98.877 121.39 Q 98.877 120.738 99.291 120.309 L 99.291 120.309 L 99.291 120.309 Q 99.706 119.88 100.357 119.88 L 100.357 119.88 L 100.357 119.88 Q 100.978 119.88 101.378 120.309 L 101.378 120.309 L 101.378 120.309 Q 101.778 120.738 101.778 121.39 L 101.778 121.39 L 101.778 121.39 Q 101.778 122.07 101.378 122.514 L 101.378 122.514 L 101.378 122.514 Q 100.978 122.958 100.357 122.958 L 100.357 122.958 L 100.357 122.958 Z  M 99.587 140.6 L 99.587 140.6 Q 99.291 140.6 99.291 140.304 L 99.291 140.304 L 99.291 125.918 L 99.291 125.918 Q 99.291 125.622 99.587 125.622 L 99.587 125.622 L 101.097 125.622 L 101.097 125.622 Q 101.393 125.622 101.393 125.918 L 101.393 125.918 L 101.393 140.304 L 101.393 140.304 Q 101.393 140.6 101.097 140.6 L 101.097 140.6 L 99.587 140.6 L 99.587 140.6 Z  M 117.11 125.415 L 117.11 125.415 Q 118.886 125.415 119.863 126.718 L 119.863 126.718 L 119.863 126.718 Q 120.84 128.02 120.84 130.329 L 120.84 130.329 L 120.84 140.304 L 120.84 140.304 Q 120.84 140.6 120.544 140.6 L 120.544 140.6 L 119.064 140.6 L 119.064 140.6 Q 118.768 140.6 118.768 140.304 L 118.768 140.304 L 118.768 130.506 L 118.768 130.506 Q 118.768 128.997 118.132 128.124 L 118.132 128.124 L 118.132 128.124 Q 117.495 127.25 116.459 127.25 L 116.459 127.25 L 116.459 127.25 Q 115.334 127.25 114.683 128.109 L 114.683 128.109 L 114.683 128.109 Q 114.032 128.967 114.032 130.447 L 114.032 130.447 L 114.032 140.304 L 114.032 140.304 Q 114.032 140.6 113.736 140.6 L 113.736 140.6 L 112.226 140.6 L 112.226 140.6 Q 111.93 140.6 111.93 140.304 L 111.93 140.304 L 111.93 130.506 L 111.93 130.506 Q 111.93 128.997 111.294 128.124 L 111.294 128.124 L 111.294 128.124 Q 110.658 127.25 109.651 127.25 L 109.651 127.25 L 109.651 127.25 Q 108.526 127.25 107.86 128.109 L 107.86 128.109 L 107.86 128.109 Q 107.194 128.967 107.194 130.447 L 107.194 130.447 L 107.194 140.304 L 107.194 140.304 Q 107.194 140.6 106.898 140.6 L 106.898 140.6 L 105.418 140.6 L 105.418 140.6 Q 105.122 140.6 105.122 140.304 L 105.122 140.304 L 105.122 125.918 L 105.122 125.918 Q 105.122 125.622 105.418 125.622 L 105.418 125.622 L 106.898 125.622 L 106.898 125.622 Q 107.194 125.622 107.194 125.918 L 107.194 125.918 L 107.194 126.836 L 107.194 126.836 Q 107.194 126.895 107.239 126.91 L 107.239 126.91 L 107.239 126.91 Q 107.283 126.925 107.342 126.866 L 107.342 126.866 L 107.342 126.866 Q 107.905 126.126 108.674 125.77 L 108.674 125.77 L 108.674 125.77 Q 109.444 125.415 110.302 125.415 L 110.302 125.415 L 110.302 125.415 Q 111.427 125.415 112.256 125.963 L 112.256 125.963 L 112.256 125.963 Q 113.085 126.51 113.529 127.517 L 113.529 127.517 L 113.529 127.517 Q 113.558 127.576 113.618 127.576 L 113.618 127.576 L 113.618 127.576 Q 113.677 127.576 113.706 127.487 L 113.706 127.487 L 113.706 127.487 Q 114.239 126.422 115.157 125.918 L 115.157 125.918 L 115.157 125.918 Q 116.074 125.415 117.11 125.415 L 117.11 125.415 L 117.11 125.415 Z  M 133.627 129.914 L 133.627 129.914 Q 133.657 131.01 133.657 133.2 L 133.657 133.2 L 133.657 133.2 Q 133.657 135.302 133.627 136.397 L 133.627 136.397 L 133.627 136.397 Q 133.568 138.38 132.488 139.608 L 132.488 139.608 L 132.488 139.608 Q 131.407 140.837 129.631 140.837 L 129.631 140.837 L 129.631 140.837 Q 127.737 140.837 126.701 139.416 L 126.701 139.416 L 126.701 139.416 Q 126.642 139.357 126.597 139.386 L 126.597 139.386 L 126.597 139.386 Q 126.553 139.416 126.553 139.475 L 126.553 139.475 L 126.553 146.046 L 126.553 146.046 Q 126.553 146.342 126.257 146.342 L 126.257 146.342 L 124.747 146.342 L 124.747 146.342 Q 124.451 146.342 124.451 146.046 L 124.451 146.046 L 124.451 125.918 L 124.451 125.918 Q 124.451 125.622 124.747 125.622 L 124.747 125.622 L 126.257 125.622 L 126.257 125.622 Q 126.553 125.622 126.553 125.918 L 126.553 125.918 L 126.553 126.777 L 126.553 126.777 Q 126.553 126.836 126.597 126.866 L 126.597 126.866 L 126.597 126.866 Q 126.642 126.895 126.701 126.836 L 126.701 126.836 L 126.701 126.836 Q 127.204 126.126 127.959 125.756 L 127.959 125.756 L 127.959 125.756 Q 128.714 125.386 129.631 125.386 L 129.631 125.386 L 129.631 125.386 Q 131.378 125.386 132.458 126.644 L 132.458 126.644 L 132.458 126.644 Q 133.538 127.902 133.627 129.914 L 133.627 129.914 L 133.627 129.914 Z  M 129.01 139.002 L 129.01 139.002 Q 130.164 139.002 130.874 138.188 L 130.874 138.188 L 130.874 138.188 Q 131.585 137.374 131.555 136.042 L 131.555 136.042 L 131.555 135.006 L 131.555 133.111 L 131.555 130.181 L 131.555 130.181 Q 131.585 128.878 130.874 128.05 L 130.874 128.05 L 130.874 128.05 Q 130.164 127.221 129.01 127.221 L 129.01 127.221 L 129.01 127.221 Q 127.944 127.221 127.248 128.035 L 127.248 128.035 L 127.248 128.035 Q 126.553 128.849 126.553 130.181 L 126.553 130.181 L 126.553 136.042 L 126.553 136.042 Q 126.553 137.374 127.248 138.188 L 127.248 138.188 L 127.248 138.188 Q 127.944 139.002 129.01 139.002 L 129.01 139.002 L 129.01 139.002 Z  M 141.264 140.837 L 141.264 140.837 Q 139.133 140.837 137.875 139.594 L 137.875 139.594 L 137.875 139.594 Q 136.617 138.35 136.617 136.308 L 136.617 136.308 L 136.617 129.914 L 136.617 129.914 Q 136.617 127.902 137.89 126.644 L 137.89 126.644 L 137.89 126.644 Q 139.162 125.386 141.264 125.386 L 141.264 125.386 L 141.264 125.386 Q 143.366 125.386 144.653 126.644 L 144.653 126.644 L 144.653 126.644 Q 145.941 127.902 145.941 129.914 L 145.941 129.914 L 145.941 136.308 L 145.941 136.308 Q 145.941 138.35 144.668 139.594 L 144.668 139.594 L 144.668 139.594 Q 143.395 140.837 141.264 140.837 L 141.264 140.837 L 141.264 140.837 Z  M 141.264 139.002 L 141.264 139.002 Q 142.389 139.002 143.114 138.217 L 143.114 138.217 L 143.114 138.217 Q 143.839 137.433 143.839 136.19 L 143.839 136.19 L 143.839 130.062 L 143.839 130.062 Q 143.839 128.79 143.114 128.005 L 143.114 128.005 L 143.114 128.005 Q 142.389 127.221 141.264 127.221 L 141.264 127.221 L 141.264 127.221 Q 140.139 127.221 139.429 128.005 L 139.429 128.005 L 139.429 128.005 Q 138.718 128.79 138.718 130.062 L 138.718 130.062 L 138.718 136.19 L 138.718 136.19 Q 138.718 137.433 139.429 138.217 L 139.429 138.217 L 139.429 138.217 Q 140.139 139.002 141.264 139.002 L 141.264 139.002 L 141.264 139.002 Z  M 154.258 125.474 L 154.258 125.474 Q 154.998 125.474 155.531 125.8 L 155.531 125.8 L 155.531 125.8 Q 155.738 125.918 155.679 126.185 L 155.679 126.185 L 155.354 127.694 L 155.354 127.694 Q 155.324 127.961 154.969 127.872 L 154.969 127.872 L 154.969 127.872 Q 154.614 127.724 154.17 127.724 L 154.17 127.724 L 154.17 127.724 Q 153.874 127.724 153.726 127.754 L 153.726 127.754 L 153.726 127.754 Q 152.66 127.813 151.979 128.864 L 151.979 128.864 L 151.979 128.864 Q 151.298 129.914 151.298 131.424 L 151.298 131.424 L 151.298 140.304 L 151.298 140.304 Q 151.298 140.6 151.002 140.6 L 151.002 140.6 L 149.493 140.6 L 149.493 140.6 Q 149.197 140.6 149.197 140.304 L 149.197 140.304 L 149.197 125.918 L 149.197 125.918 Q 149.197 125.622 149.493 125.622 L 149.493 125.622 L 151.002 125.622 L 151.002 125.622 Q 151.298 125.622 151.298 125.918 L 151.298 125.918 L 151.298 127.694 L 151.298 127.694 Q 151.298 127.783 151.343 127.783 L 151.343 127.783 L 151.343 127.783 Q 151.387 127.783 151.446 127.724 L 151.446 127.724 L 151.446 127.724 Q 152.305 125.474 154.258 125.474 L 154.258 125.474 L 154.258 125.474 Z  M 163.138 126.895 L 163.138 126.895 Q 163.138 127.191 162.842 127.191 L 162.842 127.191 L 160.593 127.191 L 160.593 127.191 Q 160.474 127.191 160.474 127.31 L 160.474 127.31 L 160.474 136.367 L 160.474 136.367 Q 160.474 137.729 160.948 138.247 L 160.948 138.247 L 160.948 138.247 Q 161.422 138.765 162.398 138.735 L 162.398 138.735 L 162.694 138.735 L 162.694 138.735 Q 162.99 138.735 162.99 139.031 L 162.99 139.031 L 162.99 140.304 L 162.99 140.304 Q 162.99 140.6 162.694 140.6 L 162.694 140.6 L 161.954 140.6 L 161.954 140.6 Q 160.208 140.6 159.305 139.845 L 159.305 139.845 L 159.305 139.845 Q 158.402 139.09 158.402 136.989 L 158.402 136.989 L 158.402 127.31 L 158.402 127.31 Q 158.402 127.191 158.284 127.191 L 158.284 127.191 L 157.13 127.191 L 157.13 127.191 Q 156.834 127.191 156.834 126.895 L 156.834 126.895 L 156.834 125.918 L 156.834 125.918 Q 156.834 125.622 157.13 125.622 L 157.13 125.622 L 158.284 125.622 L 158.284 125.622 Q 158.402 125.622 158.402 125.504 L 158.402 125.504 L 158.402 122.189 L 158.402 122.189 Q 158.402 121.893 158.698 121.893 L 158.698 121.893 L 160.178 121.893 L 160.178 121.893 Q 160.474 121.893 160.474 122.189 L 160.474 122.189 L 160.474 125.504 L 160.474 125.504 Q 160.474 125.622 160.593 125.622 L 160.593 125.622 L 162.842 125.622 L 162.842 125.622 Q 163.138 125.622 163.138 125.918 L 163.138 125.918 L 163.138 126.895 L 163.138 126.895 Z  M 170.124 125.386 L 170.124 125.386 Q 172.196 125.386 173.424 126.732 L 173.424 126.732 L 173.424 126.732 Q 174.653 128.079 174.653 130.329 L 174.653 130.329 L 174.653 140.304 L 174.653 140.304 Q 174.653 140.6 174.357 140.6 L 174.357 140.6 L 172.847 140.6 L 172.847 140.6 Q 172.551 140.6 172.551 140.304 L 172.551 140.304 L 172.551 139.446 L 172.551 139.446 Q 172.551 139.386 172.507 139.372 L 172.507 139.372 L 172.507 139.372 Q 172.462 139.357 172.403 139.416 L 172.403 139.416 L 172.403 139.416 Q 171.308 140.837 169.147 140.837 L 169.147 140.837 L 169.147 140.837 Q 167.519 140.837 166.32 139.904 L 166.32 139.904 L 166.32 139.904 Q 165.122 138.972 165.122 136.604 L 165.122 136.604 L 165.122 136.604 Q 165.122 134.088 166.572 132.919 L 166.572 132.919 L 166.572 132.919 Q 168.022 131.75 170.39 131.75 L 170.39 131.75 L 172.433 131.75 L 172.433 131.75 Q 172.551 131.75 172.551 131.631 L 172.551 131.631 L 172.551 130.477 L 172.551 130.477 Q 172.551 128.997 171.885 128.109 L 171.885 128.109 L 171.885 128.109 Q 171.219 127.221 170.065 127.221 L 170.065 127.221 L 170.065 127.221 Q 169.177 127.221 168.526 127.813 L 168.526 127.813 L 168.526 127.813 Q 167.874 128.405 167.786 129.322 L 167.786 129.322 L 167.786 129.322 Q 167.756 129.618 167.46 129.618 L 167.46 129.618 L 165.832 129.589 L 165.832 129.589 Q 165.684 129.589 165.61 129.5 L 165.61 129.5 L 165.61 129.5 Q 165.536 129.411 165.566 129.293 L 165.566 129.293 L 165.566 129.293 Q 165.714 127.546 166.986 126.466 L 166.986 126.466 L 166.986 126.466 Q 168.259 125.386 170.124 125.386 L 170.124 125.386 L 170.124 125.386 Z  M 169.591 139.002 L 169.591 139.002 Q 170.805 139.002 171.678 138.217 L 171.678 138.217 L 171.678 138.217 Q 172.551 137.433 172.551 136.042 L 172.551 136.042 L 172.551 133.555 L 172.551 133.555 Q 172.551 133.437 172.433 133.437 L 172.433 133.437 L 170.361 133.437 L 170.361 133.437 Q 168.94 133.437 168.111 134.192 L 168.111 134.192 L 168.111 134.192 Q 167.282 134.946 167.282 136.426 L 167.282 136.426 L 167.282 136.426 Q 167.282 137.729 167.919 138.365 L 167.919 138.365 L 167.919 138.365 Q 168.555 139.002 169.591 139.002 L 169.591 139.002 L 169.591 139.002 Z  M 183.266 125.415 L 183.266 125.415 Q 185.072 125.415 186.064 126.658 L 186.064 126.658 L 186.064 126.658 Q 187.055 127.902 187.055 130.122 L 187.055 130.122 L 187.055 140.304 L 187.055 140.304 Q 187.055 140.6 186.759 140.6 L 186.759 140.6 L 185.25 140.6 L 185.25 140.6 Q 184.954 140.6 184.954 140.304 L 184.954 140.304 L 184.954 130.299 L 184.954 130.299 Q 184.954 128.849 184.332 128.05 L 184.332 128.05 L 184.332 128.05 Q 183.71 127.25 182.586 127.25 L 182.586 127.25 L 182.586 127.25 Q 181.402 127.25 180.721 128.109 L 180.721 128.109 L 180.721 128.109 Q 180.04 128.967 180.04 130.447 L 180.04 130.447 L 180.04 140.304 L 180.04 140.304 Q 180.04 140.6 179.744 140.6 L 179.744 140.6 L 178.234 140.6 L 178.234 140.6 Q 177.938 140.6 177.938 140.304 L 177.938 140.304 L 177.938 125.918 L 177.938 125.918 Q 177.938 125.622 178.234 125.622 L 178.234 125.622 L 179.744 125.622 L 179.744 125.622 Q 180.04 125.622 180.04 125.918 L 180.04 125.918 L 180.04 126.895 L 180.04 126.895 Q 180.04 126.954 180.099 126.969 L 180.099 126.969 L 180.099 126.969 Q 180.158 126.984 180.188 126.925 L 180.188 126.925 L 180.188 126.925 Q 181.283 125.415 183.266 125.415 L 183.266 125.415 L 183.266 125.415 Z  M 195.758 126.895 L 195.758 126.895 Q 195.758 127.191 195.462 127.191 L 195.462 127.191 L 193.212 127.191 L 193.212 127.191 Q 193.094 127.191 193.094 127.31 L 193.094 127.31 L 193.094 136.367 L 193.094 136.367 Q 193.094 137.729 193.567 138.247 L 193.567 138.247 L 193.567 138.247 Q 194.041 138.765 195.018 138.735 L 195.018 138.735 L 195.314 138.735 L 195.314 138.735 Q 195.61 138.735 195.61 139.031 L 195.61 139.031 L 195.61 140.304 L 195.61 140.304 Q 195.61 140.6 195.314 140.6 L 195.314 140.6 L 194.574 140.6 L 194.574 140.6 Q 192.827 140.6 191.924 139.845 L 191.924 139.845 L 191.924 139.845 Q 191.022 139.09 191.022 136.989 L 191.022 136.989 L 191.022 127.31 L 191.022 127.31 Q 191.022 127.191 190.903 127.191 L 190.903 127.191 L 189.749 127.191 L 189.749 127.191 Q 189.453 127.191 189.453 126.895 L 189.453 126.895 L 189.453 125.918 L 189.453 125.918 Q 189.453 125.622 189.749 125.622 L 189.749 125.622 L 190.903 125.622 L 190.903 125.622 Q 191.022 125.622 191.022 125.504 L 191.022 125.504 L 191.022 122.189 L 191.022 122.189 Q 191.022 121.893 191.318 121.893 L 191.318 121.893 L 192.798 121.893 L 192.798 121.893 Q 193.094 121.893 193.094 122.189 L 193.094 122.189 L 193.094 125.504 L 193.094 125.504 Q 193.094 125.622 193.212 125.622 L 193.212 125.622 L 195.462 125.622 L 195.462 125.622 Q 195.758 125.622 195.758 125.918 L 195.758 125.918 L 195.758 126.895 L 195.758 126.895 Z  M 54.832 125.415 L 54.832 125.415 Q 56.608 125.415 57.585 126.718 L 57.585 126.718 L 57.585 126.718 Q 58.562 128.02 58.562 130.329 L 58.562 130.329 L 58.562 140.304 L 58.562 140.304 Q 58.562 140.6 58.266 140.6 L 58.266 140.6 L 56.786 140.6 L 56.786 140.6 Q 56.49 140.6 56.49 140.304 L 56.49 140.304 L 56.49 130.506 L 56.49 130.506 Q 56.49 128.997 55.853 128.124 L 55.853 128.124 L 55.853 128.124 Q 55.217 127.25 54.181 127.25 L 54.181 127.25 L 54.181 127.25 Q 53.056 127.25 52.405 128.109 L 52.405 128.109 L 52.405 128.109 Q 51.754 128.967 51.754 130.447 L 51.754 130.447 L 51.754 140.304 L 51.754 140.304 Q 51.754 140.6 51.458 140.6 L 51.458 140.6 L 49.948 140.6 L 49.948 140.6 Q 49.652 140.6 49.652 140.304 L 49.652 140.304 L 49.652 130.506 L 49.652 130.506 Q 49.652 128.997 49.016 128.124 L 49.016 128.124 L 49.016 128.124 Q 48.379 127.25 47.373 127.25 L 47.373 127.25 L 47.373 127.25 Q 46.248 127.25 45.582 128.109 L 45.582 128.109 L 45.582 128.109 Q 44.916 128.967 44.916 130.447 L 44.916 130.447 L 44.916 140.304 L 44.916 140.304 Q 44.916 140.6 44.62 140.6 L 44.62 140.6 L 43.14 140.6 L 43.14 140.6 Q 42.844 140.6 42.844 140.304 L 42.844 140.304 L 42.844 125.918 L 42.844 125.918 Q 42.844 125.622 43.14 125.622 L 43.14 125.622 L 44.62 125.622 L 44.62 125.622 Q 44.916 125.622 44.916 125.918 L 44.916 125.918 L 44.916 126.836 L 44.916 126.836 Q 44.916 126.895 44.96 126.91 L 44.96 126.91 L 44.96 126.91 Q 45.005 126.925 45.064 126.866 L 45.064 126.866 L 45.064 126.866 Q 45.626 126.126 46.396 125.77 L 46.396 125.77 L 46.396 125.77 Q 47.166 125.415 48.024 125.415 L 48.024 125.415 L 48.024 125.415 Q 49.149 125.415 49.978 125.963 L 49.978 125.963 L 49.978 125.963 Q 50.806 126.51 51.25 127.517 L 51.25 127.517 L 51.25 127.517 Q 51.28 127.576 51.339 127.576 L 51.339 127.576 L 51.339 127.576 Q 51.398 127.576 51.428 127.487 L 51.428 127.487 L 51.428 127.487 Q 51.961 126.422 52.878 125.918 L 52.878 125.918 L 52.878 125.918 Q 53.796 125.415 54.832 125.415 L 54.832 125.415 L 54.832 125.415 Z  M 66.317 140.837 L 66.317 140.837 Q 64.186 140.837 62.928 139.594 L 62.928 139.594 L 62.928 139.594 Q 61.67 138.35 61.67 136.308 L 61.67 136.308 L 61.67 129.914 L 61.67 129.914 Q 61.67 127.902 62.942 126.644 L 62.942 126.644 L 62.942 126.644 Q 64.215 125.386 66.317 125.386 L 66.317 125.386 L 66.317 125.386 Q 68.418 125.386 69.706 126.644 L 69.706 126.644 L 69.706 126.644 Q 70.994 127.902 70.994 129.914 L 70.994 129.914 L 70.994 136.308 L 70.994 136.308 Q 70.994 138.35 69.721 139.594 L 69.721 139.594 L 69.721 139.594 Q 68.448 140.837 66.317 140.837 L 66.317 140.837 L 66.317 140.837 Z  M 66.317 139.002 L 66.317 139.002 Q 67.442 139.002 68.167 138.217 L 68.167 138.217 L 68.167 138.217 Q 68.892 137.433 68.892 136.19 L 68.892 136.19 L 68.892 130.062 L 68.892 130.062 Q 68.892 128.79 68.167 128.005 L 68.167 128.005 L 68.167 128.005 Q 67.442 127.221 66.317 127.221 L 66.317 127.221 L 66.317 127.221 Q 65.192 127.221 64.482 128.005 L 64.482 128.005 L 64.482 128.005 Q 63.771 128.79 63.771 130.062 L 63.771 130.062 L 63.771 136.19 L 63.771 136.19 Q 63.771 137.433 64.482 138.217 L 64.482 138.217 L 64.482 138.217 Q 65.192 139.002 66.317 139.002 L 66.317 139.002 L 66.317 139.002 Z  M 78.157 140.748 L 78.157 140.748 Q 76.114 140.748 74.886 139.697 L 74.886 139.697 L 74.886 139.697 Q 73.658 138.646 73.658 136.9 L 73.658 136.9 L 73.658 136.693 L 73.658 136.693 Q 73.658 136.397 73.954 136.397 L 73.954 136.397 L 75.374 136.397 L 75.374 136.397 Q 75.67 136.397 75.67 136.634 L 75.67 136.634 L 75.67 136.87 L 75.67 136.87 Q 75.67 137.818 76.366 138.469 L 76.366 138.469 L 76.366 138.469 Q 77.062 139.12 78.186 139.12 L 78.186 139.12 L 78.186 139.12 Q 79.252 139.12 79.903 138.469 L 79.903 138.469 L 79.903 138.469 Q 80.554 137.818 80.554 136.811 L 80.554 136.811 L 80.554 136.811 Q 80.554 136.042 80.14 135.524 L 80.14 135.524 L 80.14 135.524 Q 79.726 135.006 79.178 134.71 L 79.178 134.71 L 79.178 134.71 Q 78.63 134.414 77.535 133.94 L 77.535 133.94 L 77.535 133.94 Q 76.381 133.466 75.626 133.008 L 75.626 133.008 L 75.626 133.008 Q 74.871 132.549 74.324 131.705 L 74.324 131.705 L 74.324 131.705 Q 73.776 130.862 73.776 129.559 L 73.776 129.559 L 73.776 129.559 Q 73.776 127.665 74.945 126.57 L 74.945 126.57 L 74.945 126.57 Q 76.114 125.474 78.098 125.474 L 78.098 125.474 L 78.098 125.474 Q 80.11 125.474 81.294 126.599 L 81.294 126.599 L 81.294 126.599 Q 82.478 127.724 82.478 129.589 L 82.478 129.589 L 82.478 129.678 L 82.478 129.678 Q 82.478 129.974 82.182 129.974 L 82.182 129.974 L 80.821 129.974 L 80.821 129.974 Q 80.525 129.974 80.525 129.737 L 80.525 129.737 L 80.525 129.5 L 80.525 129.5 Q 80.525 128.494 79.859 127.842 L 79.859 127.842 L 79.859 127.842 Q 79.193 127.191 78.127 127.191 L 78.127 127.191 L 78.127 127.191 Q 77.062 127.191 76.425 127.857 L 76.425 127.857 L 76.425 127.857 Q 75.789 128.523 75.789 129.5 L 75.789 129.5 L 75.789 129.5 Q 75.789 130.21 76.174 130.699 L 76.174 130.699 L 76.174 130.699 Q 76.558 131.187 77.121 131.498 L 77.121 131.498 L 77.121 131.498 Q 77.683 131.809 78.69 132.253 L 78.69 132.253 L 78.69 132.253 Q 79.903 132.786 80.688 133.259 L 80.688 133.259 L 80.688 133.259 Q 81.472 133.733 82.064 134.591 L 82.064 134.591 L 82.064 134.591 Q 82.656 135.45 82.656 136.722 L 82.656 136.722 L 82.656 136.722 Q 82.656 138.558 81.442 139.653 L 81.442 139.653 L 81.442 139.653 Q 80.229 140.748 78.157 140.748 L 78.157 140.748 L 78.157 140.748 Z  M 90.589 126.895 L 90.589 126.895 Q 90.589 127.191 90.293 127.191 L 90.293 127.191 L 88.043 127.191 L 88.043 127.191 Q 87.925 127.191 87.925 127.31 L 87.925 127.31 L 87.925 136.367 L 87.925 136.367 Q 87.925 137.729 88.398 138.247 L 88.398 138.247 L 88.398 138.247 Q 88.872 138.765 89.849 138.735 L 89.849 138.735 L 90.145 138.735 L 90.145 138.735 Q 90.441 138.735 90.441 139.031 L 90.441 139.031 L 90.441 140.304 L 90.441 140.304 Q 90.441 140.6 90.145 140.6 L 90.145 140.6 L 89.405 140.6 L 89.405 140.6 Q 87.658 140.6 86.756 139.845 L 86.756 139.845 L 86.756 139.845 Q 85.853 139.09 85.853 136.989 L 85.853 136.989 L 85.853 127.31 L 85.853 127.31 Q 85.853 127.191 85.734 127.191 L 85.734 127.191 L 84.58 127.191 L 84.58 127.191 Q 84.284 127.191 84.284 126.895 L 84.284 126.895 L 84.284 125.918 L 84.284 125.918 Q 84.284 125.622 84.58 125.622 L 84.58 125.622 L 85.734 125.622 L 85.734 125.622 Q 85.853 125.622 85.853 125.504 L 85.853 125.504 L 85.853 122.189 L 85.853 122.189 Q 85.853 121.893 86.149 121.893 L 86.149 121.893 L 87.629 121.893 L 87.629 121.893 Q 87.925 121.893 87.925 122.189 L 87.925 122.189 L 87.925 125.504 L 87.925 125.504 Q 87.925 125.622 88.043 125.622 L 88.043 125.622 L 90.293 125.622 L 90.293 125.622 Q 90.589 125.622 90.589 125.918 L 90.589 125.918 L 90.589 126.895 L 90.589 126.895 Z  M 9.218 119.88 L 9.218 119.88 Q 9.514 119.88 9.514 120.176 L 9.514 120.176 L 9.514 121.419 L 9.514 121.419 Q 9.514 121.715 9.218 121.715 L 9.218 121.715 L 5.311 121.715 L 5.311 121.715 Q 5.193 121.715 5.193 121.834 L 5.193 121.834 L 5.193 140.304 L 5.193 140.304 Q 5.193 140.6 4.897 140.6 L 4.897 140.6 L 3.387 140.6 L 3.387 140.6 Q 3.091 140.6 3.091 140.304 L 3.091 140.304 L 3.091 121.834 L 3.091 121.834 Q 3.091 121.715 2.973 121.715 L 2.973 121.715 L -0.698 121.715 L -0.698 121.715 Q -0.994 121.715 -0.994 121.419 L -0.994 121.419 L -0.994 120.176 L -0.994 120.176 Q -0.994 119.88 -0.698 119.88 L -0.698 119.88 L 9.218 119.88 L 9.218 119.88 Z  M 17.654 125.415 L 17.654 125.415 Q 19.46 125.415 20.452 126.658 L 20.452 126.658 L 20.452 126.658 Q 21.443 127.902 21.443 130.122 L 21.443 130.122 L 21.443 140.304 L 21.443 140.304 Q 21.443 140.6 21.147 140.6 L 21.147 140.6 L 19.638 140.6 L 19.638 140.6 Q 19.342 140.6 19.342 140.304 L 19.342 140.304 L 19.342 130.299 L 19.342 130.299 Q 19.342 128.849 18.72 128.05 L 18.72 128.05 L 18.72 128.05 Q 18.098 127.25 16.974 127.25 L 16.974 127.25 L 16.974 127.25 Q 15.79 127.25 15.109 128.109 L 15.109 128.109 L 15.109 128.109 Q 14.428 128.967 14.428 130.447 L 14.428 130.447 L 14.428 140.304 L 14.428 140.304 Q 14.428 140.6 14.132 140.6 L 14.132 140.6 L 12.622 140.6 L 12.622 140.6 Q 12.326 140.6 12.326 140.304 L 12.326 140.304 L 12.326 120.176 L 12.326 120.176 Q 12.326 119.88 12.622 119.88 L 12.622 119.88 L 14.132 119.88 L 14.132 119.88 Q 14.428 119.88 14.428 120.176 L 14.428 120.176 L 14.428 126.895 L 14.428 126.895 Q 14.428 126.954 14.487 126.969 L 14.487 126.969 L 14.487 126.969 Q 14.546 126.984 14.576 126.925 L 14.576 126.925 L 14.576 126.925 Q 15.671 125.415 17.654 125.415 L 17.654 125.415 L 17.654 125.415 Z  M 33.816 133.614 L 33.816 133.614 Q 33.816 133.91 33.52 133.91 L 33.52 133.91 L 26.771 133.91 L 26.771 133.91 Q 26.653 133.91 26.653 134.029 L 26.653 134.029 L 26.653 136.19 L 26.653 136.19 Q 26.653 137.433 27.348 138.217 L 27.348 138.217 L 27.348 138.217 Q 28.044 139.002 29.169 139.002 L 29.169 139.002 L 29.169 139.002 Q 30.116 139.002 30.782 138.424 L 30.782 138.424 L 30.782 138.424 Q 31.448 137.847 31.655 136.93 L 31.655 136.93 L 31.655 136.93 Q 31.744 136.663 31.981 136.663 L 31.981 136.663 L 33.461 136.722 L 33.461 136.722 Q 33.579 136.722 33.668 136.811 L 33.668 136.811 L 33.668 136.811 Q 33.757 136.9 33.727 137.048 L 33.727 137.048 L 33.727 137.048 Q 33.49 138.794 32.292 139.816 L 32.292 139.816 L 32.292 139.816 Q 31.093 140.837 29.169 140.837 L 29.169 140.837 L 29.169 140.837 Q 27.067 140.837 25.809 139.594 L 25.809 139.594 L 25.809 139.594 Q 24.551 138.35 24.551 136.308 L 24.551 136.308 L 24.551 129.914 L 24.551 129.914 Q 24.551 127.902 25.809 126.644 L 25.809 126.644 L 25.809 126.644 Q 27.067 125.386 29.169 125.386 L 29.169 125.386 L 29.169 125.386 Q 31.3 125.386 32.558 126.644 L 32.558 126.644 L 32.558 126.644 Q 33.816 127.902 33.816 129.914 L 33.816 129.914 L 33.816 133.614 L 33.816 133.614 Z  M 29.169 127.221 L 29.169 127.221 Q 28.044 127.221 27.348 128.005 L 27.348 128.005 L 27.348 128.005 Q 26.653 128.79 26.653 130.062 L 26.653 130.062 L 26.653 132.046 L 26.653 132.046 Q 26.653 132.164 26.771 132.164 L 26.771 132.164 L 31.626 132.164 L 31.626 132.164 Q 31.744 132.164 31.744 132.046 L 31.744 132.046 L 31.744 130.062 L 31.744 130.062 Q 31.744 128.79 31.034 128.005 L 31.034 128.005 L 31.034 128.005 Q 30.323 127.221 29.169 127.221 L 29.169 127.221 L 29.169 127.221 Z " fill="rgb(1,1,1)"/></svg>