<svg xmlns="http://www.w3.org/2000/svg" viewBox="0 0 470.23 89.96"><defs><style>.cls-1{fill:#010101;}</style></defs><g id="Layer_2" data-name="Layer 2"><g id="Layer_1-2" data-name="Layer 1"><path class="cls-1" d="M33.32,63.56q-5.4,4.81-14,4.81H1.16A1.11,1.11,0,0,1,.34,68,1.11,1.11,0,0,1,0,67.22V2.12A1.11,1.11,0,0,1,.34,1.3,1.12,1.12,0,0,1,1.16,1H17.24q9.63,0,15.07,4.62t5.44,13.78q0,9.53-6.55,13.86c-.26.2-.29.39-.09.58q7.61,5.4,7.6,16Q38.71,58.75,33.32,63.56ZM13.58,13.1V28.22a.42.42,0,0,0,.48.48h3.47a6.45,6.45,0,0,0,5.1-2.07,8.52,8.52,0,0,0,1.83-5.83,9.19,9.19,0,0,0-1.78-6.07,6.36,6.36,0,0,0-5.15-2.11H14.06A.42.42,0,0,0,13.58,13.1Zm9.73,41.21a10.37,10.37,0,0,0,1.82-6.54A11.28,11.28,0,0,0,23.31,41a5.82,5.82,0,0,0-4.92-2.5H14.06a.42.42,0,0,0-.48.48V56.14a.42.42,0,0,0,.48.48H18.3A6.06,6.06,0,0,0,23.31,54.31Z"/><path class="cls-1" d="M55.23,68a1.11,1.11,0,0,1-.34-.82V2.12a1.11,1.11,0,0,1,.34-.82A1.12,1.12,0,0,1,56.05,1H67.31a1.13,1.13,0,0,1,.82.34,1.11,1.11,0,0,1,.34.82v65.1a1.11,1.11,0,0,1-.34.82,1.12,1.12,0,0,1-.82.33H56.05A1.11,1.11,0,0,1,55.23,68Z"/><path class="cls-1" d="M124.85,1.3a1.11,1.11,0,0,1,.34.82v9.34A1.16,1.16,0,0,1,124,12.62H112a.42.42,0,0,0-.48.48V67.22a1.14,1.14,0,0,1-1.16,1.15H99.09a1.13,1.13,0,0,1-1.15-1.15V13.1a.42.42,0,0,0-.48-.48H85.9a1.15,1.15,0,0,1-.82-.34,1.11,1.11,0,0,1-.34-.82V2.12a1.11,1.11,0,0,1,.34-.82A1.15,1.15,0,0,1,85.9,1H124A1.11,1.11,0,0,1,124.85,1.3Z"/><path class="cls-1" d="M143.82,64q-5.25-5.15-5.24-13.82V19q0-8.56,5.24-13.67T157.74.19q8.76,0,14,5.11T177,19V20a1.11,1.11,0,0,1-.34.82,1.08,1.08,0,0,1-.82.34l-11.26.48c-.77,0-1.16-.35-1.16-1.06V18.1a6.52,6.52,0,0,0-1.54-4.52,5.26,5.26,0,0,0-4.14-1.74,5.16,5.16,0,0,0-4.05,1.74,6.57,6.57,0,0,0-1.54,4.52V51.33a6.43,6.43,0,0,0,1.54,4.48,5.24,5.24,0,0,0,4.05,1.68,5.35,5.35,0,0,0,4.14-1.68,6.38,6.38,0,0,0,1.54-4.48v-2.6a1.16,1.16,0,0,1,1.16-1.16l11.26.48A1.16,1.16,0,0,1,177,49.21v1q0,8.67-5.3,13.82t-14,5.15Q149.07,69.14,143.82,64Z"/><path class="cls-1" d="M198.19,63.94q-5.31-5.19-5.3-13.86V19.26q0-8.67,5.3-13.87T212.34.19q8.86,0,14.21,5.2t5.34,13.87V50.08q0,8.66-5.34,13.86t-14.21,5.2Q203.48,69.14,198.19,63.94Zm18.49-8.33a7.27,7.27,0,0,0,1.63-5v-32a7.29,7.29,0,0,0-1.63-5,5.5,5.5,0,0,0-4.34-1.88,5.32,5.32,0,0,0-4.28,1.88,7.42,7.42,0,0,0-1.59,5v32a7.4,7.4,0,0,0,1.59,5,5.29,5.29,0,0,0,4.28,1.88A5.46,5.46,0,0,0,216.68,55.61Z"/><path class="cls-1" d="M249.37,68a1.11,1.11,0,0,1-.34-.82V2.12a1.11,1.11,0,0,1,.34-.82,1.13,1.13,0,0,1,.82-.34h11.27a1.11,1.11,0,0,1,.81.34,1.11,1.11,0,0,1,.34.82v65.1a1.14,1.14,0,0,1-1.15,1.15H250.19A1.12,1.12,0,0,1,249.37,68Z"/><path class="cls-1" d="M308.69,1.3a1.15,1.15,0,0,1,.82-.34h11.17a1.16,1.16,0,0,1,1.16,1.16v65.1a1.14,1.14,0,0,1-1.16,1.15H308a1.21,1.21,0,0,1-1.25-1L294.78,30.14c-.07-.19-.18-.27-.34-.24s-.24.15-.24.34l.09,37a1.13,1.13,0,0,1-1.15,1.15H282a1.12,1.12,0,0,1-.82-.33,1.11,1.11,0,0,1-.34-.82V2.12a1.11,1.11,0,0,1,.34-.82A1.13,1.13,0,0,1,282,1h12.61a1.21,1.21,0,0,1,1.25,1l12,37.26c.07.2.18.28.34.25a.31.31,0,0,0,.24-.34l-.1-37A1.11,1.11,0,0,1,308.69,1.3Z"/><path class="cls-1" d="M377.4,1h5.2a.86.86,0,0,1,1,1V67.41a.85.85,0,0,1-1,1h-4.91a.85.85,0,0,1-1-1V9.05a.33.33,0,0,0-.15-.29.32.32,0,0,0-.33,0l-9.06,3-.29.09c-.45,0-.73-.28-.86-.86l-.48-3.56v-.2c0-.32.22-.64.67-1l9.92-5A2.77,2.77,0,0,1,377.4,1Z"/><path class="cls-1" d="M408.36,64.57q-4.47-4.77-4.48-12.47V17.24q0-7.71,4.48-12.47A15.44,15.44,0,0,1,420.16,0,15.7,15.7,0,0,1,432.1,4.77q4.53,4.76,4.53,12.47V52.1q0,7.71-4.53,12.47a15.7,15.7,0,0,1-11.94,4.77A15.44,15.44,0,0,1,408.36,64.57Zm18.83-4.19a11.61,11.61,0,0,0,2.6-7.9V16.85A11.6,11.6,0,0,0,427.19,9a8.85,8.85,0,0,0-7-3,8.63,8.63,0,0,0-6.84,3,11.6,11.6,0,0,0-2.6,7.89V52.48a11.61,11.61,0,0,0,2.6,7.9,8.63,8.63,0,0,0,6.84,3A8.85,8.85,0,0,0,427.19,60.38Z"/><path class="cls-1" d="M464.07,1h5.2a.86.86,0,0,1,1,1V67.41a.85.85,0,0,1-1,1h-4.91a.85.85,0,0,1-1-1V9.05a.33.33,0,0,0-.15-.29.32.32,0,0,0-.33,0l-9.06,3-.29.09c-.45,0-.74-.28-.86-.86l-.48-3.56v-.2c0-.32.22-.64.67-1l9.92-5A2.77,2.77,0,0,1,464.07,1Z"/><path class="cls-1" d="M4.85,89.69l-.39-1.92a.06.06,0,0,0,0,0l-.06,0H1.57l-.05,0s0,0,0,0l-.39,1.92a.15.15,0,0,1-.17.14H.14c-.05,0-.09,0-.11,0a.12.12,0,0,1,0-.12L2.33,79.1A.16.16,0,0,1,2.5,79h.94a.15.15,0,0,1,.17.14L6,89.66v0a.13.13,0,0,1-.14.14H5A.16.16,0,0,1,4.85,89.69ZM1.74,86.8H4.2s0,0,0-.06L3,80.64s0,0,0,0,0,0,0,0L1.7,86.74S1.71,86.8,1.74,86.8Z"/><path class="cls-1" d="M18,79h.78a.14.14,0,0,1,.16.15V89.68a.14.14,0,0,1-.16.15h-.92a.17.17,0,0,1-.17-.12l-3-8s0-.05-.05,0,0,0,0,0v8a.13.13,0,0,1-.15.15h-.79c-.11,0-.16,0-.16-.15V79.11c0-.1.05-.15.16-.15h.9a.17.17,0,0,1,.17.12l3,8a.05.05,0,0,0,.05,0,.06.06,0,0,0,0-.06v-8A.13.13,0,0,1,18,79Z"/><path class="cls-1" d="M27.37,89.68V79.11a.13.13,0,0,1,.15-.15h2.4a2.48,2.48,0,0,1,1.91.78,3.06,3.06,0,0,1,.71,2.11v5.09a3.06,3.06,0,0,1-.71,2.11,2.48,2.48,0,0,1-1.91.78h-2.4A.13.13,0,0,1,27.37,89.68Zm1.16-.81,1.37,0a1.31,1.31,0,0,0,1.1-.53,2.33,2.33,0,0,0,.42-1.42v-5a2.31,2.31,0,0,0-.4-1.45,1.34,1.34,0,0,0-1.12-.53H28.53a.05.05,0,0,0-.06.06v8.83A.05.05,0,0,0,28.53,88.87Z"/><path class="cls-1" d="M54.69,89.05a2.73,2.73,0,0,1-2,.78H50.28c-.11,0-.16,0-.16-.15V79.11c0-.1.05-.15.16-.15h2.23a2.91,2.91,0,0,1,2.1.74,2.77,2.77,0,0,1,.76,2.1,2.41,2.41,0,0,1-1.29,2.38l0,0s0,0,0,0a2.81,2.81,0,0,1,1.36,2.64A2.93,2.93,0,0,1,54.69,89.05ZM51.22,80v3.75s0,.06.07.06h1.22a1.72,1.72,0,0,0,1.31-.5,1.94,1.94,0,0,0,.46-1.39,2.11,2.11,0,0,0-.46-1.46,1.69,1.69,0,0,0-1.31-.52H51.29S51.22,79.94,51.22,80Zm2.64,8.32a2.27,2.27,0,0,0,.47-1.54,2.32,2.32,0,0,0-.47-1.57,1.56,1.56,0,0,0-1.28-.56H51.29s-.07,0-.07.06v4.1s0,.06.07.06h1.29A1.58,1.58,0,0,0,53.86,88.3Z"/><path class="cls-1" d="M68,79.92H64.36a.05.05,0,0,0-.06.06v3.86a.05.05,0,0,0,.06.06h2.27a.14.14,0,0,1,.16.15v.67a.14.14,0,0,1-.16.16H64.36a.05.05,0,0,0-.06.06v3.87a.05.05,0,0,0,.06.06H68a.13.13,0,0,1,.15.15v.66a.13.13,0,0,1-.15.15H63.35a.13.13,0,0,1-.15-.15V79.11a.13.13,0,0,1,.15-.15H68a.13.13,0,0,1,.15.15v.66A.13.13,0,0,1,68,79.92Z"/><path class="cls-1" d="M77.7,89.66V85s0-.07,0-.08l-2.16-5.79,0-.07c0-.08,0-.12.14-.12h.84a.18.18,0,0,1,.19.12l1.52,4.55a.05.05,0,0,0,0,0s0,0,0,0l1.53-4.55A.17.17,0,0,1,80,79h.84A.17.17,0,0,1,81,79a.14.14,0,0,1,0,.14l-2.14,5.79s0,0,0,.08v4.64a.15.15,0,0,1-.16.16h-.79A.15.15,0,0,1,77.7,89.66Z"/><path class="cls-1" d="M89.17,89.21a2.68,2.68,0,0,1-.73-2V81.55a2.7,2.7,0,0,1,.73-2,2.93,2.93,0,0,1,3.89,0,2.67,2.67,0,0,1,.75,2v5.69a2.66,2.66,0,0,1-.75,2,2.63,2.63,0,0,1-2,.76A2.6,2.6,0,0,1,89.17,89.21Zm3.09-.69a1.7,1.7,0,0,0,.45-1.22V81.51a1.73,1.73,0,0,0-.45-1.24,1.51,1.51,0,0,0-1.15-.47,1.49,1.49,0,0,0-1.14.47,1.77,1.77,0,0,0-.43,1.24V87.3A1.73,1.73,0,0,0,90,88.52a1.49,1.49,0,0,0,1.14.47A1.51,1.51,0,0,0,92.26,88.52Z"/><path class="cls-1" d="M106.5,79h.77c.11,0,.16.05.16.15V89.68c0,.1-.05.15-.16.15h-.91a.16.16,0,0,1-.17-.12l-3-8s0-.05,0,0,0,0,0,0l0,8a.14.14,0,0,1-.16.15h-.79a.14.14,0,0,1-.16-.15V79.11a.14.14,0,0,1,.16-.15h.9a.17.17,0,0,1,.17.12l3,8a.05.05,0,0,0,0,0,.06.06,0,0,0,0-.06v-8C106.34,79,106.39,79,106.5,79Z"/><path class="cls-1" d="M115.86,89.68V79.11c0-.1,0-.15.16-.15h2.39a2.47,2.47,0,0,1,1.91.78,3,3,0,0,1,.71,2.11v5.09a3,3,0,0,1-.71,2.11,2.47,2.47,0,0,1-1.91.78H116C115.91,89.83,115.86,89.78,115.86,89.68Zm1.17-.81,1.36,0a1.31,1.31,0,0,0,1.1-.53,2.33,2.33,0,0,0,.43-1.42v-5a2.31,2.31,0,0,0-.41-1.45,1.34,1.34,0,0,0-1.12-.53H117s-.07,0-.07.06v8.83S117,88.87,117,88.87Z"/></g></g></svg>