<?xml version="1.0" encoding="UTF-8" standalone="no"?><!-- Generator: Gravit.io --><svg xmlns="http://www.w3.org/2000/svg" xmlns:xlink="http://www.w3.org/1999/xlink" style="isolation:isolate" viewBox="0 0 470 180" width="470pt" height="180pt"><defs><clipPath id="_clipPath_CItTOeFCLIfBQRgSZl4YwXydO1XRHGxW"><rect width="470" height="180"/></clipPath></defs><g clip-path="url(#_clipPath_CItTOeFCLIfBQRgSZl4YwXydO1XRHGxW)"><g><g><path d=" M 33.3 63.535 Q 27.903 68.342 19.308 68.342 L 1.159 68.342 C 0.846 68.34 0.549 68.206 0.34 67.972 C 0.128 67.768 0.005 67.487 0 67.193 L 0 2.132 C -0.005 1.824 0.118 1.527 0.34 1.313 C 0.561 1.106 0.857 0.998 1.159 1.013 L 17.23 1.013 Q 26.854 1.013 32.29 5.63 Q 37.727 10.247 37.727 19.402 Q 37.727 28.926 31.181 33.253 C 30.921 33.453 30.891 33.643 31.091 33.833 Q 38.697 39.23 38.687 49.823 Q 38.687 58.728 33.3 63.535 Z  M 13.572 13.106 L 13.572 28.217 C 13.551 28.349 13.595 28.484 13.69 28.578 C 13.785 28.673 13.919 28.717 14.052 28.696 L 17.52 28.696 C 19.442 28.803 21.312 28.044 22.616 26.627 C 23.925 24.978 24.577 22.903 24.445 20.801 C 24.589 18.632 23.958 16.483 22.666 14.735 C 21.366 13.279 19.468 12.501 17.52 12.626 L 14.052 12.626 C 13.919 12.605 13.785 12.649 13.69 12.744 C 13.595 12.839 13.551 12.973 13.572 13.106 Z  M 23.296 54.291 C 24.618 52.378 25.259 50.076 25.115 47.755 C 25.243 45.363 24.605 42.994 23.296 40.989 C 22.181 39.382 20.334 38.444 18.379 38.49 L 14.052 38.49 C 13.919 38.469 13.785 38.513 13.69 38.608 C 13.595 38.703 13.551 38.837 13.572 38.97 L 13.572 56.12 C 13.551 56.252 13.595 56.386 13.69 56.481 C 13.785 56.576 13.919 56.62 14.052 56.599 L 18.289 56.599 C 20.232 56.678 22.094 55.819 23.296 54.291 Z " fill="rgb(1,1,1)"/><path d=" M 55.197 67.972 C 54.974 67.758 54.851 67.461 54.857 67.153 L 54.857 2.132 C 54.851 1.824 54.974 1.527 55.197 1.313 C 55.418 1.106 55.714 0.998 56.016 1.013 L 67.269 1.013 C 67.577 1.01 67.873 1.133 68.089 1.353 C 68.311 1.567 68.434 1.864 68.428 2.172 L 68.428 67.233 C 68.434 67.541 68.311 67.838 68.089 68.052 C 67.872 68.27 67.576 68.389 67.269 68.382 L 56.016 68.382 C 55.697 68.37 55.398 68.221 55.197 67.972 Z " fill="rgb(1,1,1)"/><path d=" M 124.774 1.313 C 124.996 1.527 125.12 1.824 125.114 2.132 L 125.114 11.467 C 125.114 11.779 124.988 12.079 124.764 12.297 C 124.54 12.516 124.237 12.634 123.925 12.626 L 111.932 12.626 C 111.799 12.605 111.665 12.649 111.57 12.744 C 111.475 12.839 111.431 12.973 111.452 13.106 L 111.452 67.193 C 111.455 67.5 111.333 67.796 111.115 68.012 C 110.897 68.228 110.6 68.347 110.293 68.342 L 99.03 68.342 C 98.723 68.348 98.428 68.228 98.211 68.011 C 97.994 67.795 97.875 67.499 97.88 67.193 L 97.88 13.106 C 97.901 12.973 97.857 12.839 97.763 12.744 C 97.668 12.649 97.533 12.605 97.401 12.626 L 85.848 12.626 C 85.54 12.627 85.245 12.505 85.028 12.286 C 84.806 12.072 84.683 11.775 84.689 11.467 L 84.689 2.132 C 84.683 1.824 84.806 1.527 85.028 1.313 C 85.251 1.109 85.546 1.001 85.848 1.013 L 123.925 1.013 C 124.237 0.988 124.546 1.097 124.774 1.313 Z " fill="rgb(1,1,1)"/><path d=" M 143.733 63.975 Q 138.486 58.828 138.496 50.163 L 138.496 19.002 Q 138.496 10.447 143.733 5.34 Q 148.969 0.234 157.644 0.204 Q 166.399 0.204 171.636 5.31 Q 176.872 10.417 176.892 19.002 L 176.892 20.002 C 176.898 20.31 176.775 20.607 176.553 20.821 C 176.341 21.047 176.042 21.17 175.733 21.161 L 164.48 21.641 C 163.71 21.641 163.321 21.291 163.321 20.581 L 163.321 18.103 C 163.397 16.457 162.847 14.842 161.782 13.585 C 160.732 12.417 159.214 11.779 157.644 11.847 C 156.103 11.792 154.618 12.43 153.597 13.585 C 152.535 14.845 151.986 16.457 152.057 18.103 L 152.057 51.312 C 151.982 52.946 152.532 54.548 153.597 55.79 C 154.635 56.914 156.114 57.528 157.644 57.469 C 159.202 57.539 160.713 56.926 161.782 55.79 C 162.85 54.55 163.401 52.947 163.321 51.312 L 163.321 48.714 C 163.321 48.074 163.84 47.555 164.48 47.555 L 175.733 48.034 C 176.04 48.034 176.335 48.157 176.553 48.374 C 176.77 48.591 176.892 48.886 176.892 49.194 L 176.892 50.193 Q 176.892 58.858 171.596 64.005 Q 166.299 69.152 157.604 69.152 Q 148.979 69.112 143.733 63.975 Z " fill="rgb(1,1,1)"/><path d=" M 198.069 63.915 Q 192.763 58.728 192.773 50.063 L 192.773 19.262 Q 192.773 10.597 198.069 5.4 Q 203.366 0.204 212.211 0.204 Q 221.065 0.204 226.412 5.4 Q 231.759 10.597 231.749 19.262 L 231.749 50.063 Q 231.749 58.718 226.412 63.915 Q 221.075 69.112 212.211 69.112 Q 203.356 69.112 198.069 63.915 Z  M 216.548 55.59 C 217.696 54.186 218.277 52.403 218.177 50.593 L 218.177 18.612 C 218.275 16.802 217.694 15.02 216.548 13.615 C 215.459 12.368 213.866 11.677 212.211 11.737 C 210.571 11.669 208.993 12.363 207.933 13.615 C 206.813 15.032 206.248 16.809 206.344 18.612 L 206.344 50.593 C 206.246 52.397 206.811 54.174 207.933 55.59 C 208.99 56.846 210.571 57.541 212.211 57.469 C 213.867 57.534 215.463 56.842 216.548 55.59 Z " fill="rgb(1,1,1)"/><path d=" M 249.218 67.972 C 248.996 67.758 248.873 67.461 248.878 67.153 L 248.878 2.132 C 248.873 1.824 248.996 1.527 249.218 1.313 C 249.434 1.093 249.73 0.97 250.038 0.973 L 261.301 0.973 C 261.606 0.97 261.899 1.093 262.11 1.313 C 262.333 1.527 262.456 1.824 262.45 2.132 L 262.45 67.193 C 262.453 67.498 262.333 67.792 262.116 68.008 C 261.9 68.225 261.606 68.345 261.301 68.342 L 250.038 68.342 C 249.725 68.339 249.428 68.205 249.218 67.972 Z " fill="rgb(1,1,1)"/><path d=" M 308.502 1.313 C 308.719 1.095 309.014 0.972 309.322 0.973 L 320.485 0.973 C 320.792 0.973 321.087 1.095 321.304 1.313 C 321.522 1.53 321.644 1.825 321.644 2.132 L 321.644 67.193 C 321.647 67.5 321.525 67.796 321.307 68.012 C 321.089 68.228 320.792 68.347 320.485 68.342 L 307.812 68.342 C 307.204 68.371 306.668 67.943 306.563 67.343 L 294.601 30.135 C 294.531 29.945 294.421 29.866 294.261 29.896 C 294.101 29.925 294.021 30.045 294.021 30.235 L 294.111 67.213 C 294.116 67.519 293.997 67.815 293.78 68.031 C 293.563 68.248 293.268 68.368 292.962 68.362 L 281.828 68.362 C 281.521 68.369 281.225 68.25 281.009 68.032 C 280.786 67.818 280.663 67.521 280.669 67.213 L 280.669 2.132 C 280.663 1.824 280.786 1.527 281.009 1.313 C 281.231 1.107 281.526 0.999 281.828 1.013 L 294.431 1.013 C 295.039 0.984 295.575 1.412 295.68 2.013 L 307.673 39.25 C 307.742 39.45 307.852 39.53 308.012 39.5 C 308.168 39.465 308.271 39.318 308.252 39.16 L 308.152 2.182 C 308.135 1.855 308.263 1.537 308.502 1.313 Z " fill="rgb(1,1,1)"/><path d=" M 377.17 1.013 L 382.367 1.013 C 382.644 0.963 382.929 1.052 383.129 1.251 C 383.328 1.45 383.417 1.735 383.366 2.013 L 383.366 67.383 C 383.422 67.661 383.335 67.949 383.134 68.15 C 382.933 68.35 382.645 68.438 382.367 68.382 L 377.46 68.382 C 377.182 68.438 376.894 68.35 376.693 68.15 C 376.492 67.949 376.405 67.661 376.461 67.383 L 376.461 9.058 C 376.465 8.942 376.408 8.832 376.311 8.768 C 376.209 8.707 376.082 8.707 375.981 8.768 L 366.926 11.767 L 366.637 11.857 C 366.187 11.857 365.907 11.577 365.777 10.997 L 365.297 7.439 L 365.297 7.239 C 365.297 6.92 365.517 6.6 365.967 6.24 L 375.881 1.243 C 376.286 1.064 376.728 0.986 377.17 1.013 L 377.17 1.013 Z " fill="rgb(1,1,1)"/><path d=" M 408.111 64.544 Q 403.644 59.777 403.634 52.082 L 403.634 17.243 Q 403.634 9.538 408.111 4.781 C 411.174 1.57 415.471 -0.167 419.904 0.014 C 424.38 -0.173 428.722 1.561 431.837 4.781 Q 436.364 9.538 436.364 17.243 L 436.364 52.082 Q 436.364 59.787 431.837 64.544 C 428.722 67.764 424.38 69.499 419.904 69.311 C 415.471 69.492 411.174 67.755 408.111 64.544 L 408.111 64.544 Z  M 426.93 60.357 C 428.741 58.136 429.667 55.324 429.528 52.462 L 429.528 16.853 C 429.655 14.008 428.73 11.215 426.93 9.008 C 425.169 7.005 422.599 5.904 419.934 6.01 C 417.319 5.921 414.804 7.024 413.098 9.008 C 411.288 11.226 410.363 14.034 410.5 16.893 L 410.5 52.462 C 410.361 55.324 411.287 58.136 413.098 60.357 C 414.804 62.342 417.319 63.445 419.934 63.355 C 422.599 63.461 425.169 62.36 426.93 60.357 Z " fill="rgb(1,1,1)"/><path d=" M 463.787 1.013 L 468.984 1.013 C 469.262 0.963 469.546 1.052 469.746 1.251 C 469.945 1.45 470.034 1.735 469.984 2.013 L 469.984 67.383 C 470.039 67.661 469.952 67.949 469.751 68.15 C 469.55 68.35 469.263 68.438 468.984 68.382 L 464.077 68.382 C 463.799 68.438 463.511 68.35 463.31 68.15 C 463.109 67.949 463.022 67.661 463.078 67.383 L 463.078 9.058 C 463.082 8.942 463.025 8.832 462.928 8.768 C 462.826 8.707 462.699 8.707 462.598 8.768 L 453.544 11.767 L 453.254 11.857 C 452.804 11.857 452.514 11.577 452.394 10.997 L 451.915 7.439 L 451.915 7.239 C 451.915 6.92 452.134 6.6 452.584 6.24 L 462.498 1.243 C 462.903 1.064 463.345 0.986 463.787 1.013 Z " fill="rgb(1,1,1)"/><path d=" M 4.847 89.649 L 4.457 87.73 L 4.398 87.73 L 1.569 87.73 L 1.519 87.73 C 1.519 87.73 1.519 87.73 1.519 87.73 L 1.129 89.649 C 1.127 89.691 1.107 89.73 1.075 89.756 C 1.043 89.783 1.001 89.795 0.96 89.789 L 0.14 89.789 C 0.09 89.789 0.05 89.789 0.03 89.789 C 0.009 89.752 0.009 89.706 0.03 89.669 L 2.329 79.066 C 2.356 78.997 2.426 78.956 2.499 78.966 L 3.438 78.966 C 3.479 78.96 3.521 78.972 3.554 78.998 C 3.586 79.025 3.606 79.064 3.608 79.105 L 5.997 89.619 L 5.997 89.619 C 6 89.657 5.986 89.694 5.959 89.721 C 5.932 89.748 5.895 89.762 5.857 89.759 L 4.997 89.759 C 4.929 89.758 4.869 89.714 4.847 89.649 Z  M 1.739 86.761 L 4.198 86.761 C 4.198 86.761 4.198 86.761 4.198 86.701 L 2.998 80.605 C 2.998 80.605 2.998 80.605 2.998 80.605 C 2.998 80.605 2.998 80.605 2.998 80.605 L 1.699 86.701 C 1.699 86.701 1.709 86.761 1.739 86.761 Z " fill="rgb(1,1,1)"/><path d=" M 17.989 78.966 L 18.769 78.966 C 18.811 78.959 18.854 78.973 18.885 79.002 C 18.916 79.031 18.932 79.073 18.929 79.115 L 18.929 89.639 C 18.932 89.682 18.916 89.723 18.885 89.753 C 18.854 89.782 18.811 89.795 18.769 89.789 L 17.849 89.789 C 17.772 89.792 17.702 89.743 17.679 89.669 L 14.681 81.674 C 14.681 81.674 14.681 81.624 14.631 81.674 C 14.631 81.674 14.631 81.674 14.631 81.674 L 14.631 89.669 C 14.638 89.711 14.625 89.753 14.595 89.783 C 14.565 89.813 14.523 89.826 14.481 89.819 L 13.692 89.819 C 13.582 89.819 13.532 89.819 13.532 89.669 L 13.532 79.076 C 13.532 78.976 13.582 78.926 13.692 78.926 L 14.591 78.926 C 14.669 78.922 14.738 78.972 14.761 79.046 L 17.759 87.041 C 17.775 87.05 17.794 87.05 17.809 87.041 C 17.82 87.022 17.82 86.999 17.809 86.981 L 17.809 78.986 C 17.854 78.931 17.934 78.923 17.989 78.966 Z " fill="rgb(1,1,1)"/><path d=" M 27.354 89.639 L 27.354 79.076 C 27.346 79.034 27.36 78.992 27.39 78.962 C 27.419 78.932 27.462 78.919 27.503 78.926 L 29.902 78.926 C 30.621 78.896 31.318 79.18 31.811 79.705 C 32.304 80.294 32.557 81.047 32.52 81.814 L 32.52 86.901 C 32.557 87.668 32.304 88.421 31.811 89.009 C 31.318 89.534 30.621 89.819 29.902 89.789 L 27.503 89.789 C 27.462 89.796 27.419 89.783 27.39 89.753 C 27.36 89.723 27.346 89.681 27.354 89.639 Z  M 28.513 88.83 L 29.882 88.83 C 30.313 88.845 30.725 88.647 30.981 88.3 C 31.272 87.885 31.419 87.387 31.401 86.881 L 31.401 81.884 C 31.433 81.37 31.292 80.86 31.001 80.435 C 30.737 80.086 30.319 79.888 29.882 79.905 L 28.513 79.905 C 28.496 79.901 28.478 79.906 28.466 79.918 C 28.454 79.931 28.449 79.948 28.453 79.965 L 28.453 88.79 C 28.455 88.803 28.463 88.815 28.474 88.822 C 28.486 88.83 28.5 88.832 28.513 88.83 Z " fill="rgb(1,1,1)"/><path d=" M 54.657 89.009 C 54.125 89.531 53.403 89.813 52.658 89.789 L 50.25 89.789 C 50.14 89.789 50.09 89.789 50.09 89.639 L 50.09 79.076 C 50.09 78.976 50.14 78.926 50.25 78.926 L 52.478 78.926 C 53.248 78.884 54.003 79.15 54.577 79.665 C 55.113 80.227 55.389 80.989 55.336 81.764 C 55.435 82.746 54.924 83.689 54.047 84.142 L 54.047 84.142 C 54.047 84.142 54.047 84.142 54.047 84.142 C 54.966 84.691 55.493 85.714 55.406 86.781 C 55.479 87.596 55.207 88.404 54.657 89.009 Z  M 51.189 79.965 L 51.189 83.713 C 51.189 83.713 51.189 83.773 51.259 83.773 L 52.478 83.773 C 52.966 83.8 53.442 83.618 53.787 83.273 C 54.116 82.888 54.281 82.389 54.247 81.884 C 54.282 81.357 54.118 80.836 53.787 80.425 C 53.447 80.069 52.969 79.879 52.478 79.905 L 51.259 79.905 C 51.259 79.905 51.189 79.905 51.189 79.965 Z  M 53.827 88.28 C 54.167 87.842 54.334 87.294 54.297 86.741 C 54.337 86.178 54.17 85.62 53.827 85.172 C 53.513 84.794 53.039 84.587 52.548 84.612 L 51.259 84.612 C 51.259 84.612 51.189 84.612 51.189 84.672 L 51.189 88.77 C 51.189 88.77 51.189 88.83 51.259 88.83 L 52.548 88.83 C 53.04 88.849 53.513 88.639 53.827 88.26 L 53.827 88.28 Z " fill="rgb(1,1,1)"/><path d=" M 67.959 79.885 L 64.321 79.885 C 64.304 79.881 64.287 79.886 64.274 79.898 C 64.262 79.911 64.257 79.928 64.261 79.945 L 64.261 83.803 C 64.257 83.819 64.262 83.837 64.274 83.849 C 64.287 83.861 64.304 83.866 64.321 83.863 L 66.59 83.863 C 66.632 83.856 66.675 83.87 66.706 83.899 C 66.737 83.928 66.753 83.97 66.749 84.012 L 66.749 84.682 C 66.756 84.726 66.742 84.771 66.71 84.803 C 66.679 84.834 66.634 84.849 66.59 84.842 L 64.321 84.842 C 64.304 84.838 64.287 84.843 64.274 84.855 C 64.262 84.868 64.257 84.885 64.261 84.902 L 64.261 88.77 C 64.257 88.786 64.262 88.804 64.274 88.816 C 64.287 88.828 64.304 88.833 64.321 88.83 L 67.959 88.83 C 68 88.822 68.043 88.836 68.072 88.866 C 68.102 88.896 68.116 88.938 68.109 88.979 L 68.109 89.639 C 68.116 89.681 68.102 89.723 68.072 89.753 C 68.043 89.783 68 89.796 67.959 89.789 L 63.312 89.789 C 63.27 89.796 63.228 89.783 63.198 89.753 C 63.168 89.723 63.155 89.681 63.162 89.639 L 63.162 79.076 C 63.155 79.034 63.168 78.992 63.198 78.962 C 63.228 78.932 63.27 78.919 63.312 78.926 L 67.959 78.926 C 68 78.919 68.043 78.932 68.072 78.962 C 68.102 78.992 68.116 79.034 68.109 79.076 L 68.109 79.735 C 68.116 79.777 68.102 79.819 68.072 79.849 C 68.043 79.879 68 79.892 67.959 79.885 Z " fill="rgb(1,1,1)"/><path d=" M 77.653 89.619 L 77.653 84.962 C 77.653 84.962 77.653 84.892 77.653 84.882 L 75.494 79.095 L 75.494 79.026 C 75.494 78.946 75.494 78.906 75.634 78.906 L 76.474 78.906 C 76.557 78.896 76.636 78.946 76.663 79.026 L 78.183 83.573 C 78.183 83.573 78.183 83.573 78.183 83.573 L 79.712 79.026 C 79.734 78.985 79.773 78.955 79.819 78.944 C 79.864 78.932 79.912 78.94 79.951 78.966 L 80.791 78.966 C 80.841 78.939 80.901 78.939 80.951 78.966 C 80.976 79.009 80.976 79.062 80.951 79.105 L 78.812 84.892 C 78.812 84.892 78.812 84.892 78.812 84.972 L 78.812 89.609 C 78.815 89.652 78.799 89.695 78.769 89.725 C 78.738 89.756 78.695 89.772 78.652 89.769 L 77.863 89.769 C 77.814 89.79 77.758 89.785 77.715 89.754 C 77.672 89.723 77.648 89.672 77.653 89.619 Z " fill="rgb(1,1,1)"/><path d=" M 89.116 89.169 C 88.607 88.632 88.343 87.909 88.386 87.171 L 88.386 81.514 C 88.345 80.776 88.609 80.053 89.116 79.515 C 90.225 78.531 91.894 78.531 93.003 79.515 C 93.521 80.048 93.792 80.772 93.753 81.514 L 93.753 87.201 C 93.793 87.942 93.522 88.667 93.003 89.199 C 92.475 89.724 91.748 90 91.005 89.959 C 90.294 89.965 89.611 89.68 89.116 89.169 L 89.116 89.169 Z  M 92.204 88.48 C 92.51 88.149 92.671 87.71 92.654 87.261 L 92.654 81.474 C 92.673 81.018 92.512 80.572 92.204 80.235 C 91.906 79.921 91.487 79.75 91.055 79.765 C 90.625 79.75 90.209 79.921 89.915 80.235 C 89.619 80.578 89.465 81.021 89.486 81.474 L 89.486 87.261 C 89.474 87.711 89.639 88.149 89.945 88.48 C 90.239 88.794 90.655 88.965 91.085 88.949 C 91.507 88.956 91.913 88.786 92.204 88.48 Z " fill="rgb(1,1,1)"/><path d=" M 106.435 78.966 L 107.205 78.966 C 107.315 78.966 107.365 79.016 107.365 79.115 L 107.365 89.639 C 107.365 89.739 107.315 89.789 107.205 89.789 L 106.295 89.789 C 106.217 89.796 106.145 89.745 106.125 89.669 L 103.127 81.674 C 103.127 81.674 103.127 81.624 103.127 81.674 C 103.127 81.674 103.127 81.674 103.127 81.674 L 103.127 89.669 C 103.131 89.712 103.115 89.753 103.084 89.783 C 103.052 89.812 103.01 89.825 102.967 89.819 L 102.178 89.819 C 102.136 89.825 102.093 89.812 102.062 89.783 C 102.031 89.753 102.014 89.712 102.018 89.669 L 102.018 79.076 C 102.014 79.033 102.031 78.991 102.062 78.962 C 102.093 78.933 102.136 78.919 102.178 78.926 L 103.077 78.926 C 103.155 78.922 103.225 78.972 103.247 79.046 L 106.245 87.041 C 106.256 87.022 106.256 86.999 106.245 86.981 L 106.245 78.986 C 106.275 78.966 106.325 78.966 106.435 78.966 Z " fill="rgb(1,1,1)"/><path d=" M 115.79 89.639 L 115.79 79.076 C 115.79 78.976 115.79 78.926 115.949 78.926 L 118.338 78.926 C 119.058 78.895 119.755 79.179 120.247 79.705 C 120.745 80.291 120.999 81.046 120.956 81.814 L 120.956 86.901 C 120.999 87.669 120.745 88.424 120.247 89.009 C 119.755 89.535 119.058 89.82 118.338 89.789 L 115.929 89.789 C 115.84 89.789 115.79 89.739 115.79 89.639 Z  M 116.959 88.83 L 118.318 88.83 C 118.749 88.845 119.161 88.647 119.417 88.3 C 119.711 87.886 119.862 87.388 119.847 86.881 L 119.847 81.884 C 119.876 81.369 119.732 80.858 119.437 80.435 C 119.173 80.086 118.755 79.888 118.318 79.905 L 116.929 79.905 C 116.929 79.905 116.859 79.905 116.859 79.965 L 116.859 88.79 C 116.859 88.79 116.929 88.83 116.929 88.83 L 116.959 88.83 Z " fill="rgb(1,1,1)"/></g></g><text transform="matrix(1,0,0,1,-3,155.52)" style="font-family:'Noto Sans CJK SC';font-weight:400;font-size:47px;font-style:normal;font-variant-ligatures:none;letter-spacing:0.1;fill:#2a2833;stroke:none;">重點整理讓您簡單入門</text></g></svg>