<?xml version="1.0" encoding="UTF-8" standalone="no"?><!-- Generator: Gravit.io --><svg xmlns="http://www.w3.org/2000/svg" xmlns:xlink="http://www.w3.org/1999/xlink" style="isolation:isolate" viewBox="0 0 470 180" width="470pt" height="180pt"><g><g><path d=" M 33.3 63.535 Q 27.903 68.342 19.308 68.342 L 1.159 68.342 C 0.846 68.34 0.549 68.206 0.34 67.972 C 0.128 67.768 0.005 67.487 0 67.193 L 0 2.132 C -0.005 1.824 0.118 1.527 0.34 1.313 C 0.561 1.106 0.857 0.998 1.159 1.013 L 17.23 1.013 Q 26.854 1.013 32.29 5.63 Q 37.727 10.247 37.727 19.402 Q 37.727 28.926 31.181 33.253 C 30.921 33.453 30.891 33.643 31.091 33.833 Q 38.697 39.23 38.687 49.823 Q 38.687 58.728 33.3 63.535 Z  M 13.572 13.106 L 13.572 28.217 C 13.551 28.349 13.595 28.484 13.69 28.578 C 13.785 28.673 13.919 28.717 14.052 28.696 L 17.52 28.696 C 19.442 28.803 21.312 28.044 22.616 26.627 C 23.925 24.978 24.577 22.903 24.445 20.801 C 24.589 18.632 23.958 16.483 22.666 14.735 C 21.366 13.279 19.468 12.501 17.52 12.626 L 14.052 12.626 C 13.919 12.605 13.785 12.649 13.69 12.744 C 13.595 12.839 13.551 12.973 13.572 13.106 Z  M 23.296 54.291 C 24.618 52.378 25.259 50.076 25.115 47.755 C 25.243 45.363 24.605 42.994 23.296 40.989 C 22.181 39.382 20.334 38.444 18.379 38.49 L 14.052 38.49 C 13.919 38.469 13.785 38.513 13.69 38.608 C 13.595 38.703 13.551 38.837 13.572 38.97 L 13.572 56.12 C 13.551 56.252 13.595 56.386 13.69 56.481 C 13.785 56.576 13.919 56.62 14.052 56.599 L 18.289 56.599 C 20.232 56.678 22.094 55.819 23.296 54.291 Z " fill="rgb(1,1,1)"/><path d=" M 55.197 67.972 C 54.974 67.758 54.851 67.461 54.857 67.153 L 54.857 2.132 C 54.851 1.824 54.974 1.527 55.197 1.313 C 55.418 1.106 55.714 0.998 56.016 1.013 L 67.269 1.013 C 67.577 1.01 67.873 1.133 68.089 1.353 C 68.311 1.567 68.434 1.864 68.428 2.172 L 68.428 67.233 C 68.434 67.541 68.311 67.838 68.089 68.052 C 67.872 68.27 67.576 68.389 67.269 68.382 L 56.016 68.382 C 55.697 68.37 55.398 68.221 55.197 67.972 Z " fill="rgb(1,1,1)"/><path d=" M 124.774 1.313 C 124.996 1.527 125.12 1.824 125.114 2.132 L 125.114 11.467 C 125.114 11.779 124.988 12.079 124.764 12.297 C 124.54 12.516 124.237 12.634 123.925 12.626 L 111.932 12.626 C 111.799 12.605 111.665 12.649 111.57 12.744 C 111.475 12.839 111.431 12.973 111.452 13.106 L 111.452 67.193 C 111.455 67.5 111.333 67.796 111.115 68.012 C 110.897 68.228 110.6 68.347 110.293 68.342 L 99.03 68.342 C 98.723 68.348 98.428 68.228 98.211 68.011 C 97.994 67.795 97.875 67.499 97.88 67.193 L 97.88 13.106 C 97.901 12.973 97.857 12.839 97.763 12.744 C 97.668 12.649 97.533 12.605 97.401 12.626 L 85.848 12.626 C 85.54 12.627 85.245 12.505 85.028 12.286 C 84.806 12.072 84.683 11.775 84.689 11.467 L 84.689 2.132 C 84.683 1.824 84.806 1.527 85.028 1.313 C 85.251 1.109 85.546 1.001 85.848 1.013 L 123.925 1.013 C 124.237 0.988 124.546 1.097 124.774 1.313 Z " fill="rgb(1,1,1)"/><path d=" M 143.733 63.975 Q 138.486 58.828 138.496 50.163 L 138.496 19.002 Q 138.496 10.447 143.733 5.34 Q 148.969 0.234 157.644 0.204 Q 166.399 0.204 171.636 5.31 Q 176.872 10.417 176.892 19.002 L 176.892 20.002 C 176.898 20.31 176.775 20.607 176.553 20.821 C 176.341 21.047 176.042 21.17 175.733 21.161 L 164.48 21.641 C 163.71 21.641 163.321 21.291 163.321 20.581 L 163.321 18.103 C 163.397 16.457 162.847 14.842 161.782 13.585 C 160.732 12.417 159.214 11.779 157.644 11.847 C 156.103 11.792 154.618 12.43 153.597 13.585 C 152.535 14.845 151.986 16.457 152.057 18.103 L 152.057 51.312 C 151.982 52.946 152.532 54.548 153.597 55.79 C 154.635 56.914 156.114 57.528 157.644 57.469 C 159.202 57.539 160.713 56.926 161.782 55.79 C 162.85 54.55 163.401 52.947 163.321 51.312 L 163.321 48.714 C 163.321 48.074 163.84 47.555 164.48 47.555 L 175.733 48.034 C 176.04 48.034 176.335 48.157 176.553 48.374 C 176.77 48.591 176.892 48.886 176.892 49.194 L 176.892 50.193 Q 176.892 58.858 171.596 64.005 Q 166.299 69.152 157.604 69.152 Q 148.979 69.112 143.733 63.975 Z " fill="rgb(1,1,1)"/><path d=" M 198.069 63.915 Q 192.763 58.728 192.773 50.063 L 192.773 19.262 Q 192.773 10.597 198.069 5.4 Q 203.366 0.204 212.211 0.204 Q 221.065 0.204 226.412 5.4 Q 231.759 10.597 231.749 19.262 L 231.749 50.063 Q 231.749 58.718 226.412 63.915 Q 221.075 69.112 212.211 69.112 Q 203.356 69.112 198.069 63.915 Z  M 216.548 55.59 C 217.696 54.186 218.277 52.403 218.177 50.593 L 218.177 18.612 C 218.275 16.802 217.694 15.02 216.548 13.615 C 215.459 12.368 213.866 11.677 212.211 11.737 C 210.571 11.669 208.993 12.363 207.933 13.615 C 206.813 15.032 206.248 16.809 206.344 18.612 L 206.344 50.593 C 206.246 52.397 206.811 54.174 207.933 55.59 C 208.99 56.846 210.571 57.541 212.211 57.469 C 213.867 57.534 215.463 56.842 216.548 55.59 Z " fill="rgb(1,1,1)"/><path d=" M 249.218 67.972 C 248.996 67.758 248.873 67.461 248.878 67.153 L 248.878 2.132 C 248.873 1.824 248.996 1.527 249.218 1.313 C 249.434 1.093 249.73 0.97 250.038 0.973 L 261.301 0.973 C 261.606 0.97 261.899 1.093 262.11 1.313 C 262.333 1.527 262.456 1.824 262.45 2.132 L 262.45 67.193 C 262.453 67.498 262.333 67.792 262.116 68.008 C 261.9 68.225 261.606 68.345 261.301 68.342 L 250.038 68.342 C 249.725 68.339 249.428 68.205 249.218 67.972 Z " fill="rgb(1,1,1)"/><path d=" M 308.502 1.313 C 308.719 1.095 309.014 0.972 309.322 0.973 L 320.485 0.973 C 320.792 0.973 321.087 1.095 321.304 1.313 C 321.522 1.53 321.644 1.825 321.644 2.132 L 321.644 67.193 C 321.647 67.5 321.525 67.796 321.307 68.012 C 321.089 68.228 320.792 68.347 320.485 68.342 L 307.812 68.342 C 307.204 68.371 306.668 67.943 306.563 67.343 L 294.601 30.135 C 294.531 29.945 294.421 29.866 294.261 29.896 C 294.101 29.925 294.021 30.045 294.021 30.235 L 294.111 67.213 C 294.116 67.519 293.997 67.815 293.78 68.031 C 293.563 68.248 293.268 68.368 292.962 68.362 L 281.828 68.362 C 281.521 68.369 281.225 68.25 281.009 68.032 C 280.786 67.818 280.663 67.521 280.669 67.213 L 280.669 2.132 C 280.663 1.824 280.786 1.527 281.009 1.313 C 281.231 1.107 281.526 0.999 281.828 1.013 L 294.431 1.013 C 295.039 0.984 295.575 1.412 295.68 2.013 L 307.673 39.25 C 307.742 39.45 307.852 39.53 308.012 39.5 C 308.168 39.465 308.271 39.318 308.252 39.16 L 308.152 2.182 C 308.135 1.855 308.263 1.537 308.502 1.313 Z " fill="rgb(1,1,1)"/><path d=" M 377.17 1.013 L 382.367 1.013 C 382.644 0.963 382.929 1.052 383.129 1.251 C 383.328 1.45 383.417 1.735 383.366 2.013 L 383.366 67.383 C 383.422 67.661 383.335 67.949 383.134 68.15 C 382.933 68.35 382.645 68.438 382.367 68.382 L 377.46 68.382 C 377.182 68.438 376.894 68.35 376.693 68.15 C 376.492 67.949 376.405 67.661 376.461 67.383 L 376.461 9.058 C 376.465 8.942 376.408 8.832 376.311 8.768 C 376.209 8.707 376.082 8.707 375.981 8.768 L 366.926 11.767 L 366.637 11.857 C 366.187 11.857 365.907 11.577 365.777 10.997 L 365.297 7.439 L 365.297 7.239 C 365.297 6.92 365.517 6.6 365.967 6.24 L 375.881 1.243 C 376.286 1.064 376.728 0.986 377.17 1.013 L 377.17 1.013 Z " fill="rgb(1,1,1)"/><path d=" M 408.111 64.544 Q 403.644 59.777 403.634 52.082 L 403.634 17.243 Q 403.634 9.538 408.111 4.781 C 411.174 1.57 415.471 -0.167 419.904 0.014 C 424.38 -0.173 428.722 1.561 431.837 4.781 Q 436.364 9.538 436.364 17.243 L 436.364 52.082 Q 436.364 59.787 431.837 64.544 C 428.722 67.764 424.38 69.499 419.904 69.311 C 415.471 69.492 411.174 67.755 408.111 64.544 L 408.111 64.544 Z  M 426.93 60.357 C 428.741 58.136 429.667 55.324 429.528 52.462 L 429.528 16.853 C 429.655 14.008 428.73 11.215 426.93 9.008 C 425.169 7.005 422.599 5.904 419.934 6.01 C 417.319 5.921 414.804 7.024 413.098 9.008 C 411.288 11.226 410.363 14.034 410.5 16.893 L 410.5 52.462 C 410.361 55.324 411.287 58.136 413.098 60.357 C 414.804 62.342 417.319 63.445 419.934 63.355 C 422.599 63.461 425.169 62.36 426.93 60.357 Z " fill="rgb(1,1,1)"/><path d=" M 463.787 1.013 L 468.984 1.013 C 469.262 0.963 469.546 1.052 469.746 1.251 C 469.945 1.45 470.034 1.735 469.984 2.013 L 469.984 67.383 C 470.039 67.661 469.952 67.949 469.751 68.15 C 469.55 68.35 469.263 68.438 468.984 68.382 L 464.077 68.382 C 463.799 68.438 463.511 68.35 463.31 68.15 C 463.109 67.949 463.022 67.661 463.078 67.383 L 463.078 9.058 C 463.082 8.942 463.025 8.832 462.928 8.768 C 462.826 8.707 462.699 8.707 462.598 8.768 L 453.544 11.767 L 453.254 11.857 C 452.804 11.857 452.514 11.577 452.394 10.997 L 451.915 7.439 L 451.915 7.239 C 451.915 6.92 452.134 6.6 452.584 6.24 L 462.498 1.243 C 462.903 1.064 463.345 0.986 463.787 1.013 Z " fill="rgb(1,1,1)"/><path d=" M 4.847 89.649 L 4.457 87.73 L 4.398 87.73 L 1.569 87.73 L 1.519 87.73 C 1.519 87.73 1.519 87.73 1.519 87.73 L 1.129 89.649 C 1.127 89.691 1.107 89.73 1.075 89.756 C 1.043 89.783 1.001 89.795 0.96 89.789 L 0.14 89.789 C 0.09 89.789 0.05 89.789 0.03 89.789 C 0.009 89.752 0.009 89.706 0.03 89.669 L 2.329 79.066 C 2.356 78.997 2.426 78.956 2.499 78.966 L 3.438 78.966 C 3.479 78.96 3.521 78.972 3.554 78.998 C 3.586 79.025 3.606 79.064 3.608 79.105 L 5.997 89.619 L 5.997 89.619 C 6 89.657 5.986 89.694 5.959 89.721 C 5.932 89.748 5.895 89.762 5.857 89.759 L 4.997 89.759 C 4.929 89.758 4.869 89.714 4.847 89.649 Z  M 1.739 86.761 L 4.198 86.761 C 4.198 86.761 4.198 86.761 4.198 86.701 L 2.998 80.605 C 2.998 80.605 2.998 80.605 2.998 80.605 C 2.998 80.605 2.998 80.605 2.998 80.605 L 1.699 86.701 C 1.699 86.701 1.709 86.761 1.739 86.761 Z " fill="rgb(1,1,1)"/><path d=" M 17.989 78.966 L 18.769 78.966 C 18.811 78.959 18.854 78.973 18.885 79.002 C 18.916 79.031 18.932 79.073 18.929 79.115 L 18.929 89.639 C 18.932 89.682 18.916 89.723 18.885 89.753 C 18.854 89.782 18.811 89.795 18.769 89.789 L 17.849 89.789 C 17.772 89.792 17.702 89.743 17.679 89.669 L 14.681 81.674 C 14.681 81.674 14.681 81.624 14.631 81.674 C 14.631 81.674 14.631 81.674 14.631 81.674 L 14.631 89.669 C 14.638 89.711 14.625 89.753 14.595 89.783 C 14.565 89.813 14.523 89.826 14.481 89.819 L 13.692 89.819 C 13.582 89.819 13.532 89.819 13.532 89.669 L 13.532 79.076 C 13.532 78.976 13.582 78.926 13.692 78.926 L 14.591 78.926 C 14.669 78.922 14.738 78.972 14.761 79.046 L 17.759 87.041 C 17.775 87.05 17.794 87.05 17.809 87.041 C 17.82 87.022 17.82 86.999 17.809 86.981 L 17.809 78.986 C 17.854 78.931 17.934 78.923 17.989 78.966 Z " fill="rgb(1,1,1)"/><path d=" M 27.354 89.639 L 27.354 79.076 C 27.346 79.034 27.36 78.992 27.39 78.962 C 27.419 78.932 27.462 78.919 27.503 78.926 L 29.902 78.926 C 30.621 78.896 31.318 79.18 31.811 79.705 C 32.304 80.294 32.557 81.047 32.52 81.814 L 32.52 86.901 C 32.557 87.668 32.304 88.421 31.811 89.009 C 31.318 89.534 30.621 89.819 29.902 89.789 L 27.503 89.789 C 27.462 89.796 27.419 89.783 27.39 89.753 C 27.36 89.723 27.346 89.681 27.354 89.639 Z  M 28.513 88.83 L 29.882 88.83 C 30.313 88.845 30.725 88.647 30.981 88.3 C 31.272 87.885 31.419 87.387 31.401 86.881 L 31.401 81.884 C 31.433 81.37 31.292 80.86 31.001 80.435 C 30.737 80.086 30.319 79.888 29.882 79.905 L 28.513 79.905 C 28.496 79.901 28.478 79.906 28.466 79.918 C 28.454 79.931 28.449 79.948 28.453 79.965 L 28.453 88.79 C 28.455 88.803 28.463 88.815 28.474 88.822 C 28.486 88.83 28.5 88.832 28.513 88.83 Z " fill="rgb(1,1,1)"/><path d=" M 54.657 89.009 C 54.125 89.531 53.403 89.813 52.658 89.789 L 50.25 89.789 C 50.14 89.789 50.09 89.789 50.09 89.639 L 50.09 79.076 C 50.09 78.976 50.14 78.926 50.25 78.926 L 52.478 78.926 C 53.248 78.884 54.003 79.15 54.577 79.665 C 55.113 80.227 55.389 80.989 55.336 81.764 C 55.435 82.746 54.924 83.689 54.047 84.142 L 54.047 84.142 C 54.047 84.142 54.047 84.142 54.047 84.142 C 54.966 84.691 55.493 85.714 55.406 86.781 C 55.479 87.596 55.207 88.404 54.657 89.009 Z  M 51.189 79.965 L 51.189 83.713 C 51.189 83.713 51.189 83.773 51.259 83.773 L 52.478 83.773 C 52.966 83.8 53.442 83.618 53.787 83.273 C 54.116 82.888 54.281 82.389 54.247 81.884 C 54.282 81.357 54.118 80.836 53.787 80.425 C 53.447 80.069 52.969 79.879 52.478 79.905 L 51.259 79.905 C 51.259 79.905 51.189 79.905 51.189 79.965 Z  M 53.827 88.28 C 54.167 87.842 54.334 87.294 54.297 86.741 C 54.337 86.178 54.17 85.62 53.827 85.172 C 53.513 84.794 53.039 84.587 52.548 84.612 L 51.259 84.612 C 51.259 84.612 51.189 84.612 51.189 84.672 L 51.189 88.77 C 51.189 88.77 51.189 88.83 51.259 88.83 L 52.548 88.83 C 53.04 88.849 53.513 88.639 53.827 88.26 L 53.827 88.28 Z " fill="rgb(1,1,1)"/><path d=" M 67.959 79.885 L 64.321 79.885 C 64.304 79.881 64.287 79.886 64.274 79.898 C 64.262 79.911 64.257 79.928 64.261 79.945 L 64.261 83.803 C 64.257 83.819 64.262 83.837 64.274 83.849 C 64.287 83.861 64.304 83.866 64.321 83.863 L 66.59 83.863 C 66.632 83.856 66.675 83.87 66.706 83.899 C 66.737 83.928 66.753 83.97 66.749 84.012 L 66.749 84.682 C 66.756 84.726 66.742 84.771 66.71 84.803 C 66.679 84.834 66.634 84.849 66.59 84.842 L 64.321 84.842 C 64.304 84.838 64.287 84.843 64.274 84.855 C 64.262 84.868 64.257 84.885 64.261 84.902 L 64.261 88.77 C 64.257 88.786 64.262 88.804 64.274 88.816 C 64.287 88.828 64.304 88.833 64.321 88.83 L 67.959 88.83 C 68 88.822 68.043 88.836 68.072 88.866 C 68.102 88.896 68.116 88.938 68.109 88.979 L 68.109 89.639 C 68.116 89.681 68.102 89.723 68.072 89.753 C 68.043 89.783 68 89.796 67.959 89.789 L 63.312 89.789 C 63.27 89.796 63.228 89.783 63.198 89.753 C 63.168 89.723 63.155 89.681 63.162 89.639 L 63.162 79.076 C 63.155 79.034 63.168 78.992 63.198 78.962 C 63.228 78.932 63.27 78.919 63.312 78.926 L 67.959 78.926 C 68 78.919 68.043 78.932 68.072 78.962 C 68.102 78.992 68.116 79.034 68.109 79.076 L 68.109 79.735 C 68.116 79.777 68.102 79.819 68.072 79.849 C 68.043 79.879 68 79.892 67.959 79.885 Z " fill="rgb(1,1,1)"/><path d=" M 77.653 89.619 L 77.653 84.962 C 77.653 84.962 77.653 84.892 77.653 84.882 L 75.494 79.095 L 75.494 79.026 C 75.494 78.946 75.494 78.906 75.634 78.906 L 76.474 78.906 C 76.557 78.896 76.636 78.946 76.663 79.026 L 78.183 83.573 C 78.183 83.573 78.183 83.573 78.183 83.573 L 79.712 79.026 C 79.734 78.985 79.773 78.955 79.819 78.944 C 79.864 78.932 79.912 78.94 79.951 78.966 L 80.791 78.966 C 80.841 78.939 80.901 78.939 80.951 78.966 C 80.976 79.009 80.976 79.062 80.951 79.105 L 78.812 84.892 C 78.812 84.892 78.812 84.892 78.812 84.972 L 78.812 89.609 C 78.815 89.652 78.799 89.695 78.769 89.725 C 78.738 89.756 78.695 89.772 78.652 89.769 L 77.863 89.769 C 77.814 89.79 77.758 89.785 77.715 89.754 C 77.672 89.723 77.648 89.672 77.653 89.619 Z " fill="rgb(1,1,1)"/><path d=" M 89.116 89.169 C 88.607 88.632 88.343 87.909 88.386 87.171 L 88.386 81.514 C 88.345 80.776 88.609 80.053 89.116 79.515 C 90.225 78.531 91.894 78.531 93.003 79.515 C 93.521 80.048 93.792 80.772 93.753 81.514 L 93.753 87.201 C 93.793 87.942 93.522 88.667 93.003 89.199 C 92.475 89.724 91.748 90 91.005 89.959 C 90.294 89.965 89.611 89.68 89.116 89.169 L 89.116 89.169 Z  M 92.204 88.48 C 92.51 88.149 92.671 87.71 92.654 87.261 L 92.654 81.474 C 92.673 81.018 92.512 80.572 92.204 80.235 C 91.906 79.921 91.487 79.75 91.055 79.765 C 90.625 79.75 90.209 79.921 89.915 80.235 C 89.619 80.578 89.465 81.021 89.486 81.474 L 89.486 87.261 C 89.474 87.711 89.639 88.149 89.945 88.48 C 90.239 88.794 90.655 88.965 91.085 88.949 C 91.507 88.956 91.913 88.786 92.204 88.48 Z " fill="rgb(1,1,1)"/><path d=" M 106.435 78.966 L 107.205 78.966 C 107.315 78.966 107.365 79.016 107.365 79.115 L 107.365 89.639 C 107.365 89.739 107.315 89.789 107.205 89.789 L 106.295 89.789 C 106.217 89.796 106.145 89.745 106.125 89.669 L 103.127 81.674 C 103.127 81.674 103.127 81.624 103.127 81.674 C 103.127 81.674 103.127 81.674 103.127 81.674 L 103.127 89.669 C 103.131 89.712 103.115 89.753 103.084 89.783 C 103.052 89.812 103.01 89.825 102.967 89.819 L 102.178 89.819 C 102.136 89.825 102.093 89.812 102.062 89.783 C 102.031 89.753 102.014 89.712 102.018 89.669 L 102.018 79.076 C 102.014 79.033 102.031 78.991 102.062 78.962 C 102.093 78.933 102.136 78.919 102.178 78.926 L 103.077 78.926 C 103.155 78.922 103.225 78.972 103.247 79.046 L 106.245 87.041 C 106.256 87.022 106.256 86.999 106.245 86.981 L 106.245 78.986 C 106.275 78.966 106.325 78.966 106.435 78.966 Z " fill="rgb(1,1,1)"/><path d=" M 115.79 89.639 L 115.79 79.076 C 115.79 78.976 115.79 78.926 115.949 78.926 L 118.338 78.926 C 119.058 78.895 119.755 79.179 120.247 79.705 C 120.745 80.291 120.999 81.046 120.956 81.814 L 120.956 86.901 C 120.999 87.669 120.745 88.424 120.247 89.009 C 119.755 89.535 119.058 89.82 118.338 89.789 L 115.929 89.789 C 115.84 89.789 115.79 89.739 115.79 89.639 Z  M 116.959 88.83 L 118.318 88.83 C 118.749 88.845 119.161 88.647 119.417 88.3 C 119.711 87.886 119.862 87.388 119.847 86.881 L 119.847 81.884 C 119.876 81.369 119.732 80.858 119.437 80.435 C 119.173 80.086 118.755 79.888 118.318 79.905 L 116.929 79.905 C 116.929 79.905 116.859 79.905 116.859 79.965 L 116.859 88.79 C 116.859 88.79 116.929 88.83 116.929 88.83 L 116.959 88.83 Z " fill="rgb(1,1,1)"/></g></g><path d=" M 438.76 121.351 L 438.76 125.44 L 428.796 125.44 L 428.796 121.351 L 438.76 121.351 Z  M 428.796 132.631 L 428.796 128.119 L 438.76 128.119 L 438.76 132.631 L 428.796 132.631 Z  M 442.05 118.39 L 425.365 118.39 L 425.365 159.092 L 428.796 159.092 L 428.796 135.545 L 442.05 135.545 L 442.05 118.39 Z  M 449.758 132.678 L 449.758 128.119 L 460.192 128.119 L 460.192 132.678 L 449.758 132.678 Z  M 460.192 121.351 L 460.192 125.44 L 449.758 125.44 L 449.758 121.351 L 460.192 121.351 Z  M 463.717 118.39 L 446.421 118.39 L 446.421 135.592 L 460.192 135.592 L 460.192 154.298 C 460.192 155.238 459.863 155.473 459.017 155.52 C 458.03 155.567 454.834 155.614 451.638 155.426 C 452.155 156.413 452.719 158.058 452.907 159.045 C 457.137 159.045 459.91 158.951 461.555 158.387 C 463.106 157.823 463.717 156.695 463.717 154.298 L 463.717 118.39 Z  M 387.759 120.223 C 390.814 122.338 393.211 124.97 395.232 127.837 C 392.224 141.091 386.396 150.585 375.915 155.99 C 376.855 156.648 378.453 158.058 379.064 158.81 C 388.511 153.264 394.48 144.663 398.052 132.443 C 403.222 141.843 406.465 152.653 417.181 158.622 C 417.416 157.588 418.262 155.661 418.92 154.768 C 403.363 145.462 404.773 127.884 389.874 117.215 L 387.759 120.223 Z  M 364.441 124.782 L 355.37 124.782 L 355.37 120.364 L 364.441 120.364 L 364.441 124.782 Z  M 367.684 118.014 L 352.174 118.014 L 352.174 127.132 L 367.684 127.132 L 367.684 118.014 Z  M 345.124 124.782 L 336.147 124.782 L 336.147 120.364 L 345.124 120.364 L 345.124 124.782 Z  M 348.414 118.014 L 332.998 118.014 L 332.998 127.132 L 348.414 127.132 L 348.414 118.014 Z  M 337.651 143.018 L 337.651 138.976 L 348.273 138.976 L 348.273 143.018 L 337.651 143.018 Z  M 337.651 132.302 L 348.273 132.302 L 348.273 136.297 L 337.651 136.297 L 337.651 132.302 Z  M 363.031 136.297 L 351.845 136.297 L 351.845 132.302 L 363.031 132.302 L 363.031 136.297 Z  M 363.031 143.018 L 351.845 143.018 L 351.845 138.976 L 363.031 138.976 L 363.031 143.018 Z  M 370.927 149.41 L 351.845 149.41 L 351.845 145.838 L 366.603 145.838 L 366.603 129.482 L 334.267 129.482 L 334.267 145.838 L 348.273 145.838 L 348.273 149.41 L 329.567 149.41 L 329.567 152.465 L 348.273 152.465 L 348.273 159.092 L 351.845 159.092 L 351.845 152.465 L 370.927 152.465 L 370.927 149.41 Z  M 290.363 122.573 C 291.256 124.171 292.196 126.051 292.572 127.32 L 295.58 126.427 C 295.251 125.393 294.546 123.936 293.747 122.573 L 302.489 122.573 L 302.489 119.8 L 290.128 119.8 C 290.645 118.813 291.115 117.826 291.538 116.839 L 288.295 115.993 C 286.885 119.612 284.347 123.231 281.527 125.675 C 282.373 126.098 283.736 127.038 284.394 127.555 C 285.757 126.192 287.214 124.5 288.483 122.573 L 290.363 122.573 Z  M 297.93 130.375 L 297.93 132.96 L 287.966 132.96 L 287.966 130.375 L 297.93 130.375 Z  M 287.966 137.801 L 287.966 135.169 L 297.93 135.169 L 297.93 137.801 L 287.966 137.801 Z  M 301.126 140.104 L 301.126 128.072 L 284.723 128.072 L 284.723 159.045 L 287.966 159.045 L 287.966 140.104 L 301.126 140.104 Z  M 308.74 144.71 L 308.74 147.718 L 297.648 147.718 L 297.648 144.71 L 308.74 144.71 Z  M 297.648 153.029 L 297.648 149.88 L 308.74 149.88 L 308.74 153.029 L 297.648 153.029 Z  M 311.842 142.501 L 294.499 142.501 L 294.499 156.93 L 297.648 156.93 L 297.648 155.238 L 311.842 155.238 L 311.842 142.501 Z  M 308.27 137.801 L 308.27 135.169 L 318.751 135.169 L 318.751 137.801 L 308.27 137.801 Z  M 318.751 130.375 L 318.751 132.96 L 308.27 132.96 L 308.27 130.375 L 318.751 130.375 Z  M 322.041 128.072 L 305.074 128.072 L 305.074 140.104 L 318.751 140.104 L 318.751 155.097 C 318.751 155.755 318.516 155.99 317.811 156.037 C 317.059 156.037 314.615 156.084 311.983 155.943 C 312.406 156.836 312.923 158.199 313.064 159.045 C 316.542 159.092 318.845 159.045 320.255 158.528 C 321.571 158.011 322.041 157.024 322.041 155.097 L 322.041 128.072 Z  M 308.646 119.8 C 309.21 118.813 309.727 117.826 310.15 116.792 L 306.813 115.993 C 305.356 119.659 302.583 123.137 299.481 125.44 C 300.327 125.816 301.831 126.662 302.489 127.179 C 303.993 125.957 305.497 124.359 306.813 122.573 L 310.479 122.573 C 311.748 124.171 313.064 126.145 313.581 127.461 L 316.683 126.427 C 316.166 125.346 315.226 123.889 314.192 122.573 L 323.968 122.573 L 323.968 119.8 L 308.646 119.8 Z  M 272.215 123.654 C 271.463 125.346 270.617 127.085 269.959 128.26 L 272.92 128.871 C 274.095 126.991 275.505 123.795 276.727 121.116 L 274.33 120.458 L 273.766 120.599 L 256.188 120.599 C 256.752 119.424 257.269 118.249 257.739 117.074 L 254.496 116.275 C 252.945 120.693 250.219 124.97 247.023 127.743 C 247.775 128.26 249.091 129.341 249.655 129.952 C 251.394 128.26 253.086 126.098 254.543 123.654 L 272.215 123.654 Z  M 267.374 130.328 C 269.677 133.242 272.074 137.237 273.108 139.869 L 276.116 138.318 C 275.035 135.733 272.591 131.832 270.194 129.012 L 267.374 130.328 Z  M 261.499 149.833 C 260.183 147.53 257.222 144.146 254.637 141.749 L 251.958 143.3 C 254.496 145.791 257.41 149.269 258.585 151.525 L 261.499 149.833 Z  M 254.449 129.106 C 253.18 132.349 251.018 135.639 248.574 137.848 C 249.326 138.318 250.595 139.258 251.206 139.822 C 253.65 137.425 256.094 133.712 257.645 129.999 L 254.449 129.106 Z  M 264.789 125.252 L 261.405 125.252 L 261.405 138.976 C 261.405 139.493 261.264 139.634 260.653 139.634 C 260.089 139.681 258.162 139.681 255.953 139.634 C 256.376 140.527 256.893 141.749 257.081 142.689 C 260.042 142.689 261.922 142.689 263.144 142.125 C 264.46 141.608 264.789 140.762 264.789 139.023 L 264.789 125.252 Z  M 238.187 157.212 C 239.926 154.345 241.571 149.927 242.793 146.872 L 239.644 145.603 C 238.61 148.658 236.777 152.935 234.897 155.708 L 238.187 157.212 Z  M 245.519 116.087 C 242.84 121.304 238.61 126.474 234.286 129.717 C 234.991 130.375 236.119 131.785 236.589 132.443 C 238.093 131.174 239.644 129.67 241.101 128.025 L 241.101 142.924 L 244.485 142.924 L 244.485 123.842 C 246.036 121.68 247.493 119.424 248.621 117.121 L 245.519 116.087 Z  M 252.052 155.003 C 248.95 155.003 248.386 154.768 248.386 153.405 L 248.386 145.321 L 244.908 145.321 L 244.908 153.452 C 244.908 157.259 246.365 158.246 251.864 158.246 L 263.097 158.246 C 267.75 158.246 268.878 156.789 269.348 150.867 C 268.361 150.679 266.904 150.162 266.105 149.551 C 265.87 154.298 265.447 155.003 262.862 155.003 L 252.052 155.003 Z  M 268.502 145.932 C 270.617 149.269 272.779 153.781 273.437 156.648 L 276.774 155.285 C 275.975 152.418 273.766 148.094 271.557 144.757 L 268.502 145.932 Z  M 229.862 119.706 L 218.535 119.706 C 218.065 118.531 217.313 116.98 216.514 115.852 L 213.647 116.698 C 214.164 117.591 214.681 118.672 215.104 119.706 L 203.072 119.706 L 203.072 122.432 L 229.862 122.432 L 229.862 119.706 Z  M 197.197 122.714 C 196.868 121.069 195.693 118.484 194.518 116.51 L 191.98 117.403 C 193.108 119.377 194.189 122.056 194.565 123.701 L 197.197 122.714 Z  M 202.132 124.171 L 187.421 124.171 L 187.421 127.038 L 202.132 127.038 L 202.132 124.171 Z  M 198.231 145.697 L 198.231 153.593 L 191.698 153.593 L 191.698 145.697 L 198.231 145.697 Z  M 200.863 142.877 L 189.113 142.877 L 189.113 158.622 L 191.698 158.622 L 191.698 156.413 L 200.863 156.413 L 200.863 142.877 Z  M 189.348 139.352 L 200.863 139.352 L 200.863 136.532 L 189.348 136.532 L 189.348 139.352 Z  M 189.348 133.101 L 200.863 133.101 L 200.863 130.328 L 189.348 130.328 L 189.348 133.101 Z  M 212.754 141.937 L 219.804 141.937 L 219.804 144.475 L 212.754 144.475 L 212.754 141.937 Z  M 212.754 137.096 L 219.804 137.096 L 219.804 139.587 L 212.754 139.587 L 212.754 137.096 Z  M 207.537 126.427 L 212.472 126.427 L 212.472 130.093 L 207.537 130.093 L 207.537 126.427 Z  M 220.415 126.427 L 225.538 126.427 L 225.538 130.093 L 220.415 130.093 L 220.415 126.427 Z  M 227.559 147.671 C 226.149 148.658 223.94 150.021 221.966 150.961 C 220.979 149.786 220.086 148.423 219.381 147.013 L 230.332 147.013 L 230.332 144.475 L 223 144.475 L 223 141.937 L 228.405 141.937 L 228.405 139.587 L 223 139.587 L 223 137.096 L 229.298 137.096 L 229.298 134.746 L 223 134.746 L 223 132.208 L 228.358 132.208 L 228.358 124.312 L 217.736 124.312 L 217.736 132.208 L 219.804 132.208 L 219.804 134.746 L 212.754 134.746 L 212.754 132.208 L 215.245 132.208 L 215.245 124.312 L 204.858 124.312 L 204.858 132.208 L 209.605 132.208 L 209.605 134.746 L 203.871 134.746 L 203.871 137.096 L 209.605 137.096 L 209.605 139.587 L 204.717 139.587 L 204.717 141.937 L 209.605 141.937 L 209.605 144.475 L 202.414 144.475 L 202.414 147.013 L 211.908 147.013 C 209.182 148.94 205.328 150.491 201.662 151.431 C 202.226 151.995 203.119 153.17 203.495 153.734 C 205.234 153.17 207.02 152.465 208.759 151.619 L 208.759 153.076 C 208.759 155.144 207.631 156.319 206.926 156.836 C 207.443 157.353 208.195 158.434 208.477 159.092 C 209.229 158.622 210.498 158.199 218.676 156.366 C 218.582 155.708 218.535 154.533 218.582 153.687 L 211.579 155.05 L 211.579 150.162 C 213.177 149.175 214.634 148.188 215.809 147.013 L 216.42 147.013 C 218.723 152.747 222.906 157.024 228.875 158.904 C 229.298 158.105 230.191 157.024 230.849 156.366 C 228.123 155.661 225.726 154.392 223.752 152.747 C 225.632 151.807 227.794 150.679 229.439 149.457 L 227.559 147.671 Z  M 154.891 146.073 L 149.768 147.765 L 149.768 136.156 L 154.515 136.156 L 154.515 132.866 L 149.768 132.866 L 149.768 122.667 L 155.173 122.667 L 155.173 119.377 L 140.603 119.377 L 140.603 122.667 L 146.431 122.667 L 146.431 132.866 L 141.073 132.866 L 141.073 136.156 L 146.431 136.156 L 146.431 148.799 C 144.034 149.598 141.872 150.256 140.133 150.773 L 140.932 154.298 C 145.115 152.935 150.473 151.102 155.502 149.41 L 154.891 146.073 Z  M 160.672 130.187 L 167.816 130.187 L 167.816 136.203 L 160.672 136.203 L 160.672 130.187 Z  M 160.672 121.398 L 167.816 121.398 L 167.816 127.32 L 160.672 127.32 L 160.672 121.398 Z  M 178.015 127.32 L 170.824 127.32 L 170.824 121.398 L 178.015 121.398 L 178.015 127.32 Z  M 178.015 136.203 L 170.824 136.203 L 170.824 130.187 L 178.015 130.187 L 178.015 136.203 Z  M 171.106 154.392 L 171.106 147.953 L 182.057 147.953 L 182.057 144.757 L 171.106 144.757 L 171.106 139.258 L 181.352 139.258 L 181.352 118.343 L 157.476 118.343 L 157.476 139.258 L 167.581 139.258 L 167.581 144.757 L 156.912 144.757 L 156.912 147.953 L 167.581 147.953 L 167.581 154.392 L 153.293 154.392 L 153.293 157.588 L 183.561 157.588 L 183.561 154.392 L 171.106 154.392 Z  M 98.25 126.521 L 103.326 126.521 L 103.326 129.952 L 98.25 129.952 L 98.25 126.521 Z  M 111.081 126.521 L 111.081 129.952 L 106.428 129.952 L 106.428 126.521 L 111.081 126.521 Z  M 103.326 140.386 L 106.428 140.386 L 106.428 134.37 C 108.637 135.545 111.222 137.237 112.585 138.459 L 114.136 136.391 C 112.679 135.169 110 133.477 107.744 132.443 L 106.428 134.041 L 106.428 132.302 L 114.089 132.302 L 114.089 124.218 L 106.428 124.218 L 106.428 121.821 L 115.264 121.821 L 115.264 119.142 L 106.428 119.142 L 106.428 116.181 L 103.326 116.181 L 103.326 119.142 L 94.02 119.142 L 94.02 121.821 L 103.326 121.821 L 103.326 124.218 L 95.383 124.218 L 95.383 132.302 L 102.198 132.302 C 99.989 134.84 96.417 137.284 93.221 138.459 C 93.879 139.023 94.772 140.104 95.242 140.762 C 98.015 139.493 101.07 137.19 103.326 134.746 L 103.326 140.386 Z  M 116.392 151.008 L 129.834 151.008 L 129.834 148.282 L 116.392 148.282 L 116.392 144.616 L 132.936 144.616 L 132.936 141.702 L 96.699 141.702 L 96.699 144.616 L 112.961 144.616 L 112.961 154.862 L 104.642 154.862 L 104.642 147.107 L 101.305 147.107 L 101.305 154.862 L 93.597 154.862 L 93.597 157.87 L 135.944 157.87 L 135.944 154.862 L 116.392 154.862 L 116.392 151.008 Z  M 121.327 124.406 L 129.458 124.359 C 128.659 127.132 127.343 129.529 125.698 131.503 C 123.724 129.247 122.267 126.803 121.327 124.406 Z  M 135.803 124.359 L 135.803 121.445 L 122.737 121.445 C 123.395 119.988 123.912 118.484 124.382 116.933 L 121.186 116.228 C 119.917 120.928 117.567 125.346 114.512 128.119 C 115.17 128.683 116.392 129.858 116.862 130.469 C 117.802 129.529 118.742 128.401 119.635 127.226 C 120.575 129.341 121.938 131.503 123.677 133.524 C 121.233 135.639 118.178 137.237 114.559 138.412 C 115.17 138.976 116.204 140.292 116.58 140.903 C 120.105 139.587 123.207 137.942 125.745 135.733 C 128.048 137.895 130.915 139.775 134.299 141.044 C 134.675 140.292 135.615 138.976 136.273 138.365 C 132.936 137.237 130.116 135.592 127.86 133.618 C 130.022 131.127 131.667 128.072 132.795 124.359 L 135.803 124.359 Z  M 60.362 130.234 C 61.161 128.354 62.054 125.346 62.9 122.902 L 60.832 122.15 C 60.409 124.312 59.516 127.602 58.811 129.623 L 60.362 130.234 Z  M 51.291 122.761 C 52.09 125.017 52.654 127.978 52.748 129.905 L 54.628 129.388 C 54.487 127.508 53.876 124.547 53.03 122.291 L 51.291 122.761 Z  M 50.633 120.458 L 55.709 120.458 L 55.709 131.738 L 50.633 131.738 L 50.633 120.458 Z  M 63.511 131.738 L 58.106 131.738 L 58.106 120.458 L 63.511 120.458 L 63.511 131.738 Z  M 46.732 147.389 C 52.137 147.107 59.798 146.637 67.271 146.073 L 67.365 143.253 C 64.357 143.441 61.349 143.629 58.482 143.77 L 58.482 140.292 L 66.613 140.292 L 66.613 137.519 L 58.482 137.519 L 58.482 134.276 L 66.331 134.276 L 66.331 117.92 L 47.907 117.92 L 47.907 134.276 L 55.333 134.276 L 55.333 137.519 L 47.578 137.519 L 47.578 140.292 L 55.333 140.292 L 55.333 143.958 C 51.996 144.099 48.988 144.287 46.544 144.381 L 46.732 147.389 Z  M 48.142 159.092 C 50.21 157.024 50.915 153.405 51.385 149.927 L 48.894 149.269 C 48.518 152.512 47.625 155.896 45.792 157.823 L 48.142 159.092 Z  M 52.889 149.41 C 53.547 152.042 54.017 155.379 54.017 157.588 L 56.414 157.259 C 56.414 155.097 55.897 151.713 55.145 149.175 L 52.889 149.41 Z  M 57.354 149.175 C 58.388 151.572 59.375 154.674 59.61 156.742 L 62.007 156.225 C 61.678 154.157 60.644 151.055 59.563 148.705 L 57.354 149.175 Z  M 61.819 148.564 C 63.37 150.726 65.015 153.734 65.673 155.708 L 68.023 154.674 C 67.318 152.747 65.626 149.833 63.981 147.671 L 61.819 148.564 Z  M 83.956 153.687 L 72.112 153.687 L 72.112 141.608 L 83.956 141.608 L 83.956 153.687 Z  M 89.126 129.67 L 89.126 126.38 L 79.115 126.38 L 79.115 116.275 L 75.684 116.275 L 75.684 138.365 L 68.916 138.365 L 68.916 159.045 L 72.112 159.045 L 72.112 156.836 L 83.956 156.836 L 83.956 158.857 L 87.246 158.857 L 87.246 138.365 L 79.115 138.365 L 79.115 129.67 L 89.126 129.67 Z  M 7.998 142.172 L 7.998 138.6 L 18.62 138.6 L 18.62 142.172 L 7.998 142.172 Z  M 7.998 132.725 L 18.62 132.725 L 18.62 136.25 L 7.998 136.25 L 7.998 132.725 Z  M 33.237 132.725 L 33.237 136.25 L 22.051 136.25 L 22.051 132.725 L 33.237 132.725 Z  M 33.237 142.172 L 22.051 142.172 L 22.051 138.6 L 33.237 138.6 L 33.237 142.172 Z  M 22.051 154.768 L 22.051 150.726 L 38.501 150.726 L 38.501 147.906 L 22.051 147.906 L 22.051 144.663 L 36.762 144.663 L 36.762 130.187 L 22.051 130.187 L 22.051 127.367 L 41.18 127.367 L 41.18 124.5 L 22.051 124.5 L 22.051 120.881 C 27.55 120.458 32.673 119.941 36.668 119.189 L 34.788 116.463 C 27.409 117.826 14.249 118.672 3.392 118.954 C 3.721 119.706 4.097 120.881 4.144 121.727 C 8.75 121.633 13.732 121.445 18.62 121.116 L 18.62 124.5 L -0.133 124.5 L -0.133 127.367 L 18.62 127.367 L 18.62 130.187 L 4.567 130.187 L 4.567 144.663 L 18.62 144.663 L 18.62 147.906 L 3.157 147.906 L 3.157 150.726 L 18.62 150.726 L 18.62 154.768 L -0.368 154.768 L -0.368 157.635 L 41.462 157.635 L 41.462 154.768 L 22.051 154.768 Z " fill="rgb(42,40,51)"/></svg>